<?xml version="1.0" encoding="UTF-8" standalone="no"?>
<!-- Created with Inkscape (http://www.inkscape.org/) -->

<svg
   version="1.1"
   id="svg1"
   width="119.44133"
   height="70.921333"
   viewBox="0 0 119.44133 70.921333"
   xmlns="http://www.w3.org/2000/svg"
   xmlns:svg="http://www.w3.org/2000/svg">
  <defs
     id="defs1" />
  <g
     id="g1">
    <g
       id="g2"
       aria-label="X&#10;i&#10;|x&#10;i"
       transform="matrix(1.3333333,0,0,1.3333333,10.950667,63.173333)">
      <path
         id="path2"
         d="M 4.8270391,-4.0909375 3.9950078,-6.083125 c -0.035156,-0.070312 -0.046875,-0.1171875 -0.046875,-0.1289062 0,-0.058594 0.1640625,-0.2460938 0.5859375,-0.28125 0.09375,-0.011719 0.1992188,-0.023437 0.1992188,-0.1875 0,-0.1289063 -0.1171875,-0.1289063 -0.1523438,-0.1289063 -0.4101562,0 -0.8320312,0.035156 -1.2539062,0.035156 -0.2460938,0 -0.8671875,-0.035156 -1.1132813,-0.035156 -0.058594,0 -0.1875,0 -0.1875,0.1992188 0,0.1171875 0.1054688,0.1171875 0.234375,0.1171875 0.5976563,0 0.65625,0.09375 0.75,0.3164062 l 1.171875,2.7773438 -2.0976562,2.2617187 -0.1289063,0.1054688 C 1.4637578,-0.505 0.99500781,-0.3409375 0.49110156,-0.30578125 c -0.12890625,0 -0.22265625,0 -0.22265625,0.19921875 0,0 0,0.10546875 0.12890625,0.10546875 0.3046875,0 0.63281254,-0.03515625 0.93750004,-0.03515625 0.3632812,0 0.7617187,0.03515625 1.1132812,0.03515625 0.058594,0 0.1757813,0 0.1757813,-0.19921875 0,-0.10546875 -0.09375,-0.10546875 -0.1171875,-0.10546875 C 2.4246953,-0.3175 2.1082891,-0.3409375 2.1082891,-0.6221875 c 0,-0.15234375 0.1523437,-0.31640625 0.2695312,-0.4453125 l 1.0195313,-1.078125 0.890625,-0.9726562 1.0078125,2.3789062 c 0.046875,0.10546875 0.046875,0.1171875 0.046875,0.140625 0,0.0820313 -0.1875,0.24609375 -0.5742188,0.29296875 -0.1054687,0 -0.1992187,0.0117188 -0.1992187,0.1875 0,0.1171875 0.1171875,0.1171875 0.1523437,0.1171875 0.28125,0 0.9726563,-0.03515625 1.2539063,-0.03515625 0.2460937,0 0.8554687,0.03515625 1.1015625,0.03515625 0.070312,0 0.1992187,0 0.1992187,-0.1875 0,-0.1171875 -0.1054687,-0.1171875 -0.1875,-0.1171875 C 6.4207891,-0.3175 6.4090703,-0.35265625 6.2332891,-0.75109375 5.8465703,-1.676875 5.1786016,-3.22375 4.9442266,-3.8214062 5.6239141,-4.5245312 6.6786016,-5.708125 6.9950078,-5.989375 7.2762578,-6.22375 7.6629766,-6.4698437 8.2606328,-6.4932812 8.3895391,-6.505 8.4715703,-6.505 8.4715703,-6.6925 c 0,-0.011719 0,-0.1171875 -0.1289062,-0.1171875 -0.2929688,0 -0.6210938,0.035156 -0.9375,0.035156 -0.3632813,0 -0.7382813,-0.035156 -1.1015625,-0.035156 -0.058594,0 -0.1875,0 -0.1875,0.1992188 0,0.070312 0.046875,0.1054687 0.1171875,0.1171875 0.09375,0.011719 0.3984375,0.023437 0.3984375,0.3046875 0,0.140625 -0.1054688,0.2695312 -0.1875,0.3632812 z m 0,0"
         style="fill:#a6a6a6;fill-opacity:1;fill-rule:nonzero;stroke:none" />
      <path
         id="path3"
         d="m 10.516492,-2.8663281 c 0,-0.1054688 -0.08203,-0.2578125 -0.28125,-0.2578125 -0.1875,0 -0.3867186,0.1757812 -0.3867186,0.375 0,0.1171875 0.082031,0.2695312 0.2695316,0.2695312 0.210937,0 0.398437,-0.1992187 0.398437,-0.3867187 z M 9.0868047,0.67273438 c -0.023437,0.09375 -0.058594,0.17578125 -0.058594,0.29296875 0,0.32812497 0.28125,0.59765627 0.6679688,0.59765627 0.6914065,0 0.9960935,-0.96093752 0.9960935,-1.06640627 0,-0.09375 -0.08203,-0.09375 -0.105468,-0.09375 -0.105469,0 -0.105469,0.046875 -0.140625,0.1171875 C 10.293836,1.0828906 9.9891484,1.3641406 9.7078984,1.3641406 c -0.140625,0 -0.1757812,-0.082031 -0.1757812,-0.2460937 0,-0.15234377 0.058594,-0.29296877 0.1171875,-0.44531252 0.070312,-0.1875 0.140625,-0.375 0.2226562,-0.55078125 0.058594,-0.1640625 0.3164061,-0.80859375 0.3398441,-0.890625 0.02344,-0.0703125 0.04687,-0.15234375 0.04687,-0.22265625 0,-0.32812498 -0.2812503,-0.58593748 -0.6679691,-0.58593748 -0.6914062,0 -1.0078125,0.94921873 -1.0078125,1.06640623 0,0.0820313 0.09375,0.0820313 0.1171875,0.0820313 0.09375,0 0.1054688,-0.0351563 0.1289063,-0.10546875 0.1757812,-0.59765628 0.4804687,-0.85546878 0.7382812,-0.85546878 0.1171875,0 0.1757813,0.058594 0.1757813,0.2460938 0,0.16406248 -0.035156,0.26953123 -0.2109375,0.70312498 z m 0,0"
         style="fill:#a6a6a6;fill-opacity:1;fill-rule:nonzero;stroke:none" />
      <path
         id="path4"
         d="m 13.153211,-7.114375 c 0,-0.1757812 0,-0.3632812 -0.199219,-0.3632812 -0.199219,0 -0.199219,0.1875 -0.199219,0.3632812 v 9.2460938 c 0,0.1757812 0,0.3632812 0.199219,0.3632812 0.199219,0 0.199219,-0.1875 0.199219,-0.3632812 z m 0,0"
         style="fill:#a6a6a6;fill-opacity:1;fill-rule:nonzero;stroke:none" />
      <path
         id="path5"
         d="m 17.667859,-3.0128125 c 0.05859,-0.2578125 0.292969,-1.171875 0.984375,-1.171875 0.04687,0 0.292969,0 0.503907,0.1289063 -0.28125,0.046875 -0.480469,0.3046875 -0.480469,0.5390625 0,0.1640625 0.105469,0.3515625 0.375,0.3515625 0.222656,0 0.539062,-0.1875 0.539062,-0.5859375 0,-0.515625 -0.585937,-0.65625 -0.925781,-0.65625 -0.574219,0 -0.925781,0.5273437 -1.042969,0.7617187 -0.257812,-0.65625 -0.785156,-0.7617187 -1.078125,-0.7617187 -1.042968,0 -1.605468,1.2890625 -1.605468,1.5351562 0,0.1054688 0.105468,0.1054688 0.117187,0.1054688 0.08203,0 0.117188,-0.023437 0.128906,-0.1171875 0.339844,-1.0546875 0.996094,-1.3007813 1.335938,-1.3007813 0.1875,0 0.539062,0.09375 0.539062,0.6679688 0,0.3046875 -0.164062,0.9726562 -0.539062,2.3671875 -0.152344,0.6210937 -0.503906,1.0429687 -0.949219,1.0429687 -0.05859,0 -0.28125,0 -0.492187,-0.12890625 0.246093,-0.0585938 0.46875,-0.26953125 0.46875,-0.5390625 0,-0.26953125 -0.222657,-0.35156245 -0.375,-0.35156245 -0.292969,0 -0.539063,0.25781245 -0.539063,0.5742187 0,0.45703125 0.492188,0.65625 0.9375,0.65625 0.65625,0 1.007813,-0.69140625 1.042969,-0.75 0.117187,0.36328125 0.480469,0.75 1.078125,0.75 1.019531,0 1.59375,-1.2773437 1.59375,-1.5351562 0,-0.09375 -0.09375,-0.09375 -0.128906,-0.09375 -0.08203,0 -0.105469,0.035156 -0.128907,0.1054687 -0.328125,1.06640625 -0.996093,1.3125 -1.324218,1.3125 -0.386719,0 -0.539063,-0.328125 -0.539063,-0.65625 0,-0.22265625 0.05859,-0.4453125 0.164063,-0.8789062 z m 0,0"
         style="fill:#a6a6a6;fill-opacity:1;fill-rule:nonzero;stroke:none" />
      <path
         id="path6"
         d="m 22.293836,-2.8663281 c 0,-0.1054688 -0.08203,-0.2578125 -0.28125,-0.2578125 -0.1875,0 -0.386719,0.1757812 -0.386719,0.375 0,0.1171875 0.08203,0.2695312 0.269531,0.2695312 0.210938,0 0.398438,-0.1992187 0.398438,-0.3867187 z m -1.429688,3.53906248 c -0.02344,0.09375 -0.05859,0.17578125 -0.05859,0.29296875 0,0.32812497 0.28125,0.59765627 0.667968,0.59765627 0.691407,0 0.996094,-0.96093752 0.996094,-1.06640627 0,-0.09375 -0.08203,-0.09375 -0.105469,-0.09375 -0.105468,0 -0.105468,0.046875 -0.140625,0.1171875 -0.152343,0.56249997 -0.457031,0.84374997 -0.738281,0.84374997 -0.140625,0 -0.175781,-0.082031 -0.175781,-0.2460937 0,-0.15234377 0.05859,-0.29296877 0.117187,-0.44531252 0.07031,-0.1875 0.140625,-0.375 0.222657,-0.55078125 0.05859,-0.1640625 0.316406,-0.80859375 0.339843,-0.890625 0.02344,-0.0703125 0.04687,-0.15234375 0.04687,-0.22265625 0,-0.32812498 -0.28125,-0.58593748 -0.667968,-0.58593748 -0.691407,0 -1.007813,0.94921873 -1.007813,1.06640623 0,0.0820313 0.09375,0.0820313 0.117188,0.0820313 0.09375,0 0.105468,-0.0351563 0.128906,-0.10546875 0.175781,-0.59765628 0.480469,-0.85546878 0.738281,-0.85546878 0.117188,0 0.175781,0.058594 0.175781,0.2460937 0,0.16406258 -0.03516,0.26953133 -0.210937,0.70312508 z m 0,0"
         style="fill:#a6a6a6;fill-opacity:1;fill-rule:nonzero;stroke:none" />
    </g>
    <g
       id="g6"
       aria-label="Y&#10;x&#10;i"
       transform="matrix(1.3333333,0,0,1.3333333,97.662667,62.661333)">
      <path
         id="path7"
         d="m 5.9424531,-5.6727578 0.140625,-0.140625 c 0.3046875,-0.2929688 0.6328125,-0.6328125 1.3125,-0.6796875 0.1054688,-0.011719 0.1992188,-0.011719 0.1992188,-0.1875 0,-0.082031 -0.058594,-0.1289063 -0.1289063,-0.1289063 -0.2578125,0 -0.5507812,0.035156 -0.8203125,0.035156 -0.328125,0 -0.6796875,-0.035156 -0.9960937,-0.035156 -0.058594,0 -0.1875,0 -0.1875,0.1992188 0,0.1054687 0.09375,0.1171875 0.1523437,0.1171875 0.070312,0 0.3515625,0.011719 0.3515625,0.2226562 0,0.1757813 -0.2226562,0.4335938 -0.2695312,0.4804688 l -2.3085938,2.6601562 -1.0898437,-2.953125 c -0.070312,-0.140625 -0.070312,-0.1640625 -0.070312,-0.1757812 0,-0.234375 0.4921875,-0.234375 0.5976562,-0.234375 0.1289063,0 0.234375,0 0.234375,-0.1992188 0,-0.1171875 -0.1171875,-0.1171875 -0.1523437,-0.1171875 -0.28125,0 -0.9726563,0.035156 -1.2539063,0.035156 -0.2460937,0 -0.86718747,-0.035156 -1.11328122,-0.035156 -0.0585938,0 -0.1875,0 -0.1875,0.1992188 0,0.1171875 0.09375,0.1171875 0.22265625,0.1171875 0.59765627,0 0.64453127,0.082031 0.72656247,0.3398437 l 1.2304688,3.2695313 c 0.011719,0.035156 0.035156,0.140625 0.035156,0.1757812 0,0.023437 -0.3984375,1.6289063 -0.4453125,1.80468754 -0.1289062,0.55078125 -0.140625,0.5859375 -0.9375,0.59765625 -0.18749997,0 -0.26953122,0 -0.26953122,0.19921875 0,0.1054687475 0.11718752,0.1054687475 0.14062502,0.1054687475 0.28125,0 0.9726562,-0.0351562475 1.2539062,-0.0351562475 0.28125,0 0.9960938,0.0351562475 1.2773438,0.0351562475 0.070312,0 0.1875,0 0.1875,-0.1992187475 0,-0.10546875 -0.082031,-0.10546875 -0.28125,-0.10546875 -0.011719,0 -0.1992188,0 -0.375,-0.0234375 -0.2109375,-0.0234375 -0.2695313,-0.0351563 -0.2695313,-0.1640625 0,-0.0703125 0.09375,-0.41015625 0.140625,-0.62109379 l 0.3515625,-1.40625 c 0.046875,-0.1875 0.058594,-0.2226562 0.140625,-0.3046875 z m 0,0"
         style="fill:#a6a6a6;fill-opacity:1;fill-rule:nonzero;stroke:none" />
      <path
         id="path8"
         d="m 9.7334688,-4.3543984 c -0.070312,0.234375 -0.2929688,0.609375 -0.65625,0.609375 -0.023437,0 -0.2226563,0 -0.375,-0.09375 0.28125,-0.09375 0.3046875,-0.3398438 0.3046875,-0.3867188 0,-0.1523437 -0.1171875,-0.2578125 -0.28125,-0.2578125 -0.1875,0 -0.3867188,0.1640625 -0.3867188,0.4335938 0,0.3398437 0.3867188,0.5039062 0.7265625,0.5039062 0.3164063,0 0.609375,-0.1992187 0.7851563,-0.4921875 0.1640627,0.3632813 0.5507817,0.4921875 0.8203127,0.4921875 0.808594,0 1.230469,-0.8671875 1.230469,-1.0664062 0,-0.09375 -0.09375,-0.09375 -0.105469,-0.09375 -0.105469,0 -0.105469,0.035156 -0.140625,0.1171875 -0.140625,0.4804687 -0.5625,0.84375 -0.949219,0.84375 -0.28125,0 -0.421875,-0.1875 -0.421875,-0.4453125 0,-0.1875 0.164063,-0.8203125 0.363281,-1.59375 0.128907,-0.5390625 0.445313,-0.7148438 0.679688,-0.7148438 0.01172,0 0.222656,0 0.375,0.1054688 -0.222656,0.058594 -0.304688,0.2578125 -0.304688,0.375 0,0.1523437 0.117188,0.2578125 0.28125,0.2578125 0.152344,0 0.386719,-0.1289063 0.386719,-0.421875 0,-0.3867188 -0.445312,-0.5039063 -0.726562,-0.5039063 -0.351563,0 -0.632813,0.2226563 -0.785157,0.4921875 -0.117187,-0.2929687 -0.445312,-0.4921875 -0.832031,-0.4921875 -0.7851562,0 -1.2304687,0.8554688 -1.2304687,1.0664063 0,0.082031 0.1054687,0.082031 0.1171875,0.082031 0.09375,0 0.1054687,-0.023437 0.140625,-0.1171875 0.1757812,-0.5390625 0.609375,-0.84375 0.9492187,-0.84375 0.234375,0 0.4218755,0.1289063 0.4218755,0.46875 0,0.1289063 -0.08203,0.4804688 -0.1523442,0.7148438 z m -1.6875,2.5898437 c 0,-0.1054687 -0.082031,-0.2578125 -0.2812501,-0.2578125 -0.1875,0 -0.3867187,0.1757813 -0.3867187,0.375 0,0.1171875 0.082031,0.2695313 0.2695312,0.2695313 0.2109375,0 0.3984376,-0.1992188 0.3984376,-0.3867188 z M 6.6162812,1.7745078 c -0.023437,0.09375 -0.058594,0.1757813 -0.058594,0.2929688 0,0.328125 0.28125,0.5976562 0.6679687,0.5976562 0.6914063,0 0.9960938,-0.9609375 0.9960938,-1.0664062 0,-0.09375 -0.082031,-0.09375 -0.1054687,-0.09375 -0.1054688,0 -0.1054688,0.046875 -0.1406251,0.1171875 -0.1523437,0.5625 -0.4570312,0.84375 -0.7382812,0.84375 -0.140625,0 -0.1757813,-0.082031 -0.1757813,-0.2460938 0,-0.1523437 0.058594,-0.2929687 0.1171875,-0.4453125 0.070312,-0.1875 0.140625,-0.375 0.2226563,-0.5507812 0.058594,-0.1640625 0.3164062,-0.80859379 0.3398437,-0.89062504 0.023437,-0.0703125 0.046875,-0.15234375 0.046875,-0.22265625 0,-0.328125 -0.28125,-0.5859375 -0.6679687,-0.5859375 -0.6914063,0 -1.0078125,0.94921875 -1.0078125,1.06640625 0,0.0820313 0.09375,0.0820313 0.1171875,0.0820313 0.09375,0 0.1054687,-0.0351563 0.1289062,-0.10546875 0.1757813,-0.59765625 0.4804688,-0.85546875 0.7382813,-0.85546875 0.1171875,0 0.1757812,0.0585937 0.1757812,0.24609375 0,0.1640625 -0.035156,0.26953125 -0.2109375,0.703125 z m 0,0"
         style="fill:#a6a6a6;fill-opacity:1;fill-rule:nonzero;stroke:none" />
    </g>
    <g
       id="g8"
       aria-label="W&#10;i"
       transform="matrix(1.3333333,0,0,1.3333333,4.428,13.504)">
      <path
         id="path9"
         d="m 9.1301719,-5.6485078 c 0.2578125,-0.4335938 0.4921875,-0.796875 1.1250001,-0.84375 0.08203,-0.011719 0.1875,-0.011719 0.1875,-0.1992188 0,-0.046875 -0.04687,-0.1171875 -0.117188,-0.1171875 -0.246093,0 -0.5273434,0.035156 -0.7734371,0.035156 -0.3398438,0 -0.703125,-0.035156 -1.03125,-0.035156 -0.058594,0 -0.1875,0 -0.1875,0.1992188 0,0.1054687 0.082031,0.1171875 0.140625,0.1171875 0.2460937,0.011719 0.5976562,0.082031 0.5976562,0.3867187 0,0.1054688 -0.058594,0.1875 -0.140625,0.328125 l -2.6835937,4.6875 -0.3632813,-4.9335937 c -0.011719,-0.1992188 -0.035156,-0.4570313 0.6914063,-0.46875 0.1640625,0 0.2695312,0 0.2695312,-0.1992188 0,-0.1054687 -0.1054687,-0.1171875 -0.1523437,-0.1171875 -0.3984375,0 -0.8085938,0.035156 -1.2070313,0.035156 -0.234375,0 -0.8203125,-0.035156 -1.0546875,-0.035156 -0.058594,0 -0.1875,0 -0.1875,0.1992188 0,0.1171875 0.1054688,0.1171875 0.2460938,0.1171875 0.4335937,0 0.5039062,0.058594 0.5273437,0.2460937 l 0.058594,0.7617188 -2.5195313,4.3945312 -0.3867187,-5.0507812 c 0,-0.1171875 0,-0.3398438 0.7617187,-0.3515625 0.09375,0 0.2109375,0 0.2109375,-0.1992188 0,-0.1171875 -0.1171875,-0.1171875 -0.140625,-0.1171875 -0.3984375,0 -0.8203125,0.035156 -1.2304687,0.035156 -0.3398438,0 -0.703125,-0.035156 -1.04296878,-0.035156 -0.046875,0 -0.17578125,0 -0.17578125,0.1992188 0,0.1171875 0.0820313,0.1171875 0.24609375,0.1171875 0.50390628,0 0.50390628,0.082031 0.52734378,0.3632812 l 0.4453125,6.09375004 c 0.011719,0.17578125 0.023437,0.2578125 0.1640625,0.2578125 0.1171875,0 0.1523437,-0.0585938 0.234375,-0.2109375 l 2.9296875,-5.08593754 0.375,5.03906254 c 0.011719,0.19921875 0.035156,0.2578125 0.1523437,0.2578125 0.1289063,0 0.1875,-0.10546875 0.2460938,-0.1875 z m 0,0"
         style="fill:#a6a6a6;fill-opacity:1;fill-rule:nonzero;stroke:none" />
      <path
         id="path10"
         d="m 11.670211,-2.8653047 c 0,-0.1054687 -0.08203,-0.2578125 -0.28125,-0.2578125 -0.1875,0 -0.386719,0.1757813 -0.386719,0.375 0,0.1171875 0.08203,0.2695313 0.269531,0.2695313 0.210938,0 0.398438,-0.1992188 0.398438,-0.3867188 z m -1.429688,3.53906251 c -0.02344,0.09375 -0.05859,0.17578125 -0.05859,0.29296875 0,0.32812504 0.28125,0.59765624 0.667968,0.59765624 0.691407,0 0.996094,-0.96093749 0.996094,-1.06640624 0,-0.09375 -0.08203,-0.09375 -0.105469,-0.09375 -0.105468,0 -0.105468,0.046875 -0.140625,0.1171875 C 11.447558,1.0839141 11.14287,1.3651641 10.86162,1.3651641 c -0.140625,0 -0.175781,-0.082031 -0.175781,-0.2460938 0,-0.15234374 0.05859,-0.29296874 0.117187,-0.44531249 0.07031,-0.1875 0.140625,-0.375 0.222657,-0.55078125 0.05859,-0.1640625 0.316406,-0.80859375 0.339843,-0.890625 0.02344,-0.0703125 0.04687,-0.15234375 0.04687,-0.22265625 0,-0.32812501 -0.28125,-0.58593751 -0.667968,-0.58593751 -0.691407,0 -1.0078128,0.94921876 -1.0078128,1.06640626 0,0.0820313 0.09375,0.0820313 0.1171875,0.0820313 0.09375,0 0.1054687,-0.0351563 0.1289062,-0.10546875 C 10.15849,-1.1309296 10.463178,-1.3887421 10.72099,-1.3887421 c 0.117188,0 0.175781,0.058594 0.175781,0.2460938 0,0.16406241 -0.03516,0.26953116 -0.210937,0.70312491 z m 0,0"
         style="fill:#a6a6a6;fill-opacity:1;fill-rule:nonzero;stroke:none" />
    </g>
    <path
       id="path11"
       d="m 150.42953,-146.94012 33.44796,-0.002"
       style="fill:none;stroke:#a6a6a6;stroke-width:0.79701;stroke-linecap:butt;stroke-linejoin:miter;stroke-miterlimit:10;stroke-dasharray:none;stroke-opacity:1"
       transform="matrix(1.3333333,0,0,-1.3333333,-153.54133,-136.08133)" />
    <path
       id="path12"
       d="M -2.55046,3.11095 C -2.0845,1.24435 -1.04614,0.36295 0,0 -1.04614,-0.36295 -2.0845,-1.24435 -2.55046,-3.11095"
       style="fill:none;stroke:#a6a6a6;stroke-width:0.79701;stroke-linecap:round;stroke-linejoin:round;stroke-miterlimit:10;stroke-dasharray:none;stroke-opacity:1"
       transform="matrix(1.3333067,6.6666667e-5,6.6666667e-5,-1.3333067,92.159987,59.840987)" />
    <path
       id="path13"
       d="m 134.91457,-114.90999 49.05691,-26.20112"
       style="fill:none;stroke:#a6a6a6;stroke-width:0.79701;stroke-linecap:butt;stroke-linejoin:miter;stroke-miterlimit:10;stroke-dasharray:none;stroke-opacity:1"
       transform="matrix(1.3333333,0,0,-1.3333333,-153.54133,-136.08133)" />
    <path
       id="path14"
       d="M -2.55046,3.11095 C -2.0845,1.24435 -1.04614,0.36295 0,0 -1.04614,-0.36295 -2.0845,-1.24435 -2.55046,-3.11095"
       style="fill:none;stroke:#a6a6a6;stroke-width:0.79701;stroke-linecap:round;stroke-linejoin:round;stroke-miterlimit:10;stroke-dasharray:none;stroke-opacity:1"
       transform="matrix(1.1760667,0.62810667,0.62810667,-1.1760667,92.22264,52.31712)" />
  </g>
</svg>
