<?xml version="1.0" encoding="UTF-8" standalone="no"?>
<!-- Created with Inkscape (http://www.inkscape.org/) -->

<svg
   version="1.1"
   id="svg1"
   width="540.7627"
   height="265.35867"
   viewBox="0 0 540.7627 265.35867"
   xmlns="http://www.w3.org/2000/svg"
   xmlns:svg="http://www.w3.org/2000/svg">
  <defs
     id="defs1">
    <clipPath
       clipPathUnits="userSpaceOnUse"
       id="clipPath16">
      <path
         d="M 2.5e-6,0 H 295.3258 V 181.94061 H 2.5e-6 Z"
         id="path16" />
    </clipPath>
    <clipPath
       clipPathUnits="userSpaceOnUse"
       id="clipPath23">
      <path
         d="M -4.5160026,148.435 H 290.80979 V -33.505611 H -4.5160026 Z"
         id="path23" />
    </clipPath>
    <clipPath
       clipPathUnits="userSpaceOnUse"
       id="clipPath25">
      <path
         d="M 2.5e-6,0 H 295.3258 V 181.94061 H 2.5e-6 Z"
         id="path25" />
    </clipPath>
    <clipPath
       clipPathUnits="userSpaceOnUse"
       id="clipPath32">
      <path
         d="M -110.412,7.0070027 H 184.9138 V -174.93361 H -110.412 Z"
         id="path32" />
    </clipPath>
  </defs>
  <g
     id="g1">
    <path
       id="path1"
       d="M 9.9492188,-2.5419609 V -2.7528984 H 0 v 0.2109375 z m 5.0888672,-4.3710938 -1.429688,0.1054688 v 0.3164062 c 0.703125,0 0.773438,0.070312 0.773438,0.5507813 v 5.17968746 c 0,0.45703125 -0.105469,0.45703125 -0.773438,0.45703125 v 0.3046875 c 0.328125,-0.01171875 0.855469,-0.03515625 1.101563,-0.03515625 0.257812,0 0.738281,0.0234375 1.113281,0.03515625 v -0.3046875 c -0.667969,0 -0.785156,0 -0.785156,-0.45703125 z m 4.327148,6.15234376 c 0.03516,0.3984375 0.304688,0.8203125 0.773438,0.8203125 0.210937,0 0.820312,-0.140625 0.820312,-0.94921875 V -1.4403984 h -0.246093 v 0.55078121 c 0,0.5859375 -0.246094,0.64453125 -0.363282,0.64453125 -0.328125,0 -0.363281,-0.45703125 -0.363281,-0.50390625 V -2.7411797 c 0,-0.4101562 0,-0.8085937 -0.363281,-1.171875 -0.386719,-0.3867187 -0.878906,-0.5507812 -1.359375,-0.5507812 -0.820313,0 -1.511719,0.46875 -1.511719,1.125 0,0.3046875 0.199219,0.46875 0.457031,0.46875 0.28125,0 0.46875,-0.1992188 0.46875,-0.4570313 0,-0.1171875 -0.05859,-0.4453125 -0.515625,-0.4570312 0.269532,-0.3515625 0.761719,-0.4570313 1.078125,-0.4570313 0.492188,0 1.054688,0.3867188 1.054688,1.2773438 v 0.3632812 c -0.503906,0.035156 -1.207031,0.058594 -1.828125,0.3632813 -0.75,0.3398437 -0.996094,0.8554687 -0.996094,1.28906246 0,0.80859375 0.960938,1.0546875 1.59375,1.0546875 0.65625,0 1.113281,-0.3984375 1.300781,-0.8671875 z m -0.07031,-1.62890626 v 0.9960938 c 0,0.94921871 -0.714844,1.28906246 -1.160156,1.28906246 -0.492188,0 -0.902344,-0.3515625 -0.902344,-0.85546875 0,-0.53906251 0.421875,-1.37109371 2.0625,-1.42968751 z m 3.445312,-1.359375 v -3.1640625 l -1.429687,0.1054688 v 0.3164062 c 0.691406,0 0.773437,0.070312 0.773437,0.5507813 v 5.94140621 h 0.246094 c 0.01172,-0.01171875 0.09375,-0.15234375 0.363281,-0.62109375 0.152344,0.234375 0.5625,0.7265625 1.300782,0.7265625 1.183593,0 2.226562,-0.97265625 2.226562,-2.26171876 0,-1.265625 -0.972656,-2.25 -2.109375,-2.25 -0.785156,0 -1.207031,0.46875 -1.371094,0.65625 z m 0.03516,2.6132813 v -2.0507813 c 0,-0.1875 0,-0.1992187 0.105468,-0.3632812 0.386719,-0.5507813 0.9375,-0.6328125 1.171875,-0.6328125 0.457032,0 0.808594,0.2578125 1.054688,0.6328125 0.257812,0.4101562 0.28125,0.984375 0.28125,1.3945312 0,0.3632813 -0.01172,0.9609375 -0.304688,1.40625001 -0.210937,0.31640625 -0.585937,0.64453125 -1.125,0.64453125 -0.445312,0 -0.808593,-0.24609375 -1.042968,-0.609375 -0.140625,-0.2109375 -0.140625,-0.24609375 -0.140625,-0.42187496 z m 5.179687,-1.3710938 c 0.05859,-1.4882812 0.902344,-1.734375 1.242188,-1.734375 1.019531,0 1.125,1.3476563 1.125,1.734375 z m -0.01172,0.2109375 h 2.789063 c 0.210937,0 0.246094,0 0.246094,-0.2109375 0,-0.984375 -0.539063,-1.9570312 -1.78125,-1.9570312 -1.160157,0 -2.074219,1.03125 -2.074219,2.2734375 0,1.33593746 1.042969,2.29687496 2.191406,2.29687496 1.21875,0 1.664063,-1.1015625 1.664063,-1.28906246 0,-0.1054688 -0.08203,-0.1171875 -0.128907,-0.1171875 -0.09375,0 -0.117187,0.058594 -0.128906,0.140625 -0.351562,1.01953121 -1.253906,1.01953121 -1.347656,1.01953121 -0.503906,0 -0.902344,-0.29296875 -1.125,-0.66796875 C 27.943359,-1.2880547 27.943359,-1.9443047 27.943359,-2.2958672 Z m 5.085938,-4.6171875 -1.429688,0.1054688 v 0.3164062 c 0.703125,0 0.773438,0.070312 0.773438,0.5507813 v 5.17968746 c 0,0.45703125 -0.105469,0.45703125 -0.773438,0.45703125 v 0.3046875 c 0.328125,-0.01171875 0.855469,-0.03515625 1.101563,-0.03515625 0.257812,0 0.738281,0.0234375 1.113281,0.03515625 v -0.3046875 c -0.667969,0 -0.785156,0 -0.785156,-0.45703125 z m 2.917969,3.1523438 c 0,-0.2929688 -0.234375,-0.5273438 -0.527344,-0.5273438 -0.28125,0 -0.527344,0.234375 -0.527344,0.5273438 0,0.28125 0.246094,0.5273437 0.527344,0.5273437 0.292969,0 0.527344,-0.2460937 0.527344,-0.5273437 z m 0,3.23437496 c 0,-0.29296875 -0.234375,-0.52734376 -0.527344,-0.52734376 -0.28125,0 -0.527344,0.23437501 -0.527344,0.52734376 0,0.29296875 0.246094,0.52734375 0.527344,0.52734375 0.292969,0 0.527344,-0.234375 0.527344,-0.52734375 z m 8.58398,-3.45703126 c 0.457031,0 0.527344,0.1289063 0.527344,0.5390625 v 2.68359376 c 0,0.45703125 -0.117188,0.45703125 -0.785157,0.45703125 v 0.3046875 c 0.328125,-0.01171875 0.855469,-0.03515625 1.113282,-0.03515625 0.246093,0 0.738281,0.0234375 1.101562,0.03515625 v -0.3046875 c -0.667969,0 -0.773437,0 -0.773437,-0.45703125 V -4.4169609 l -1.253907,0.09375 c -0.164062,0.011719 -0.175781,0.023437 -0.1875,0.023437 -0.01172,0.011719 -0.03516,0.011719 -0.175781,0.011719 h -1.171875 v -1.125 c 0,-0.9960937 0.855469,-1.3945312 1.464844,-1.3945312 0.304687,0 0.667969,0.1054687 0.867187,0.328125 -0.410156,0.023437 -0.46875,0.3046875 -0.46875,0.46875 0,0.328125 0.257813,0.4570312 0.445313,0.4570312 0.222656,0 0.457031,-0.1640625 0.457031,-0.4570312 0,-0.5976563 -0.550781,-1.0078125 -1.289062,-1.0078125 -0.925782,0 -2.109375,0.5039062 -2.109375,1.59375 v 1.1367187 h -0.785157 v 0.3046875 h 0.785157 v 3.22265626 c 0,0.45703125 -0.105469,0.45703125 -0.773438,0.45703125 v 0.3046875 c 0.328125,-0.01171875 0.855469,-0.03515625 1.101563,-0.03515625 0.246093,0 0.738281,0.0234375 1.113281,0.03515625 v -0.3046875 c -0.667969,0 -0.785156,0 -0.785156,-0.45703125 V -3.9833672 Z m 4.447266,2.2734375 c -0.867188,0 -0.867188,-0.9960937 -0.867188,-1.2304687 0,-0.2695313 0.01172,-0.5859375 0.152344,-0.8320313 0.08203,-0.1171875 0.316406,-0.3984375 0.714844,-0.3984375 0.867187,0 0.867187,0.9960938 0.867187,1.21875 0,0.2695313 -0.01172,0.5976563 -0.164062,0.84375 -0.08203,0.1171875 -0.304688,0.3984375 -0.703125,0.3984375 z m -1.160157,0.3867188 c 0,-0.035156 0,-0.2695313 0.175782,-0.46875 0.386718,0.28125 0.796875,0.3046875 0.984375,0.3046875 0.925781,0 1.605468,-0.6796875 1.605468,-1.453125 0,-0.3632813 -0.152343,-0.7382813 -0.398437,-0.9609375 0.351562,-0.3398438 0.714844,-0.3867188 0.890625,-0.3867188 0.02344,0 0.07031,0 0.105469,0 -0.117188,0.046875 -0.164063,0.1523438 -0.164063,0.2695313 0,0.1757812 0.128906,0.2929687 0.292969,0.2929687 0.09375,0 0.28125,-0.070312 0.28125,-0.2929687 0,-0.1757813 -0.117188,-0.4921875 -0.503906,-0.4921875 -0.199219,0 -0.632813,0.058594 -1.054688,0.46875 -0.421875,-0.328125 -0.84375,-0.3632813 -1.054687,-0.3632813 -0.925782,0 -1.617188,0.6914063 -1.617188,1.453125 0,0.4453125 0.222656,0.8203125 0.46875,1.03125 -0.128906,0.1523438 -0.304687,0.4804688 -0.304687,0.8203125 0,0.31640626 0.128906,0.69140626 0.433593,0.89062501 -0.597656,0.17578125 -0.914062,0.59765625 -0.914062,0.99609375 0,0.71484374 0.984375,1.26562504 2.203125,1.26562504 1.171875,0 2.203125,-0.5039063 2.203125,-1.28906254 0,-0.33984375 -0.140625,-0.85546875 -0.644531,-1.125 -0.527344,-0.28125 -1.101563,-0.28125 -1.710938,-0.28125 -0.246094,0 -0.679687,0 -0.75,-0.0117188 -0.316406,-0.046875 -0.527344,-0.35156246 -0.527344,-0.66796866 z m 1.441407,3.1523437 c -1.007813,0 -1.699219,-0.515625 -1.699219,-1.04296874 0,-0.45703125 0.375,-0.8203125 0.820312,-0.85546875 h 0.585938 c 0.855469,0 1.96875,0 1.96875,0.85546875 0,0.53906254 -0.703125,1.04296874 -1.675781,1.04296874 z m 5.241211,-3.6914062 v -0.5742188 h -2.648438 v 0.5742188 z m 4.359375,1.25390621 V 1.1728828 c 0,0.4570313 -0.105469,0.4570313 -0.773438,0.4570313 v 0.3046875 c 0.339844,-0.011719 0.855469,-0.035156 1.113281,-0.035156 0.269532,0 0.773438,0.023437 1.125,0.035156 V 1.6299141 c -0.667968,0 -0.773437,0 -0.773437,-0.4570313 v -5.578125 h -0.222656 l -0.375,0.9140625 c -0.128907,-0.28125 -0.539063,-0.9140625 -1.335938,-0.9140625 -1.160156,0 -2.203125,0.9726563 -2.203125,2.2617188 0,1.24218746 0.960938,2.24999996 2.121094,2.24999996 0.691406,0 1.101562,-0.421875 1.324219,-0.71484375 z m 0.03516,-2.14453121 v 1.3945312 c 0,0.328125 -0.1875,0.59765626 -0.398438,0.84375001 -0.128906,0.140625 -0.457031,0.41015625 -0.925781,0.41015625 -0.726562,0 -1.335937,-0.890625 -1.335937,-2.03906246 0,-1.1835938 0.703125,-2.0039063 1.441406,-2.0039063 0.796875,0 1.21875,0.8554688 1.21875,1.3945313 z m 3.152344,-1.2304688 h 1.429687 v -0.3046875 h -1.429687 v -1.8398437 h -0.246094 c -0.01172,0.8203125 -0.316406,1.8867187 -1.289063,1.921875 v 0.2226562 h 0.84375 v 2.7539063 c 0,1.21874996 0.925782,1.33593746 1.289063,1.33593746 0.703125,0 0.984375,-0.703125 0.984375,-1.33593746 v -0.5742188 h -0.246094 v 0.5507813 c 0,0.73828121 -0.304687,1.11328121 -0.667969,1.11328121 -0.667968,0 -0.667968,-0.90234371 -0.667968,-1.07812501 z m 3.263671,1.4765625 c 0.05859,-1.4882812 0.902344,-1.734375 1.242188,-1.734375 1.019531,0 1.125,1.3476563 1.125,1.734375 z m -0.01172,0.2109375 h 2.789062 c 0.210938,0 0.246094,0 0.246094,-0.2109375 0,-0.984375 -0.539063,-1.9570312 -1.78125,-1.9570312 -1.160156,0 -2.074219,1.03125 -2.074219,2.2734375 0,1.33593746 1.042969,2.29687496 2.191406,2.29687496 1.21875,0 1.664063,-1.1015625 1.664063,-1.28906246 0,-0.1054688 -0.08203,-0.1171875 -0.128906,-0.1171875 -0.09375,0 -0.117188,0.058594 -0.128907,0.140625 -0.351562,1.01953121 -1.253906,1.01953121 -1.347656,1.01953121 -0.503906,0 -0.902344,-0.29296875 -1.125,-0.66796875 C 65.299805,-1.2880547 65.299805,-1.9443047 65.299805,-2.2958672 Z m 6.09082,0.4335938 v -0.5742188 h -2.648438 v 0.5742188 z m 4.350586,1.31249996 v 0.65625 l 1.464844,-0.10546875 v -0.3046875 c -0.703125,0 -0.773438,-0.0703125 -0.773438,-0.5625 V -6.9130547 l -1.441406,0.1054688 v 0.3164062 c 0.703125,0 0.785156,0.070312 0.785156,0.5507813 v 2.15625 c -0.292969,-0.3632813 -0.726562,-0.6210938 -1.265625,-0.6210938 -1.171875,0 -2.214844,0.984375 -2.214844,2.2617188 0,1.26562496 0.972657,2.24999996 2.109375,2.24999996 0.644532,0 1.089844,-0.33984375 1.335938,-0.65625 z m 0,-2.67187496 v 2.0507812 c 0,0.17578126 0,0.19921876 -0.105469,0.36328126 -0.304687,0.48046875 -0.75,0.703125 -1.183594,0.703125 -0.445312,0 -0.796875,-0.2578125 -1.042968,-0.64453125 -0.257813,-0.41015621 -0.292969,-0.97265621 -0.292969,-1.38281251 0,-0.3632812 0.02344,-0.9609375 0.316406,-1.4179687 0.210938,-0.3046875 0.585938,-0.6328125 1.125,-0.6328125 0.351563,0 0.761719,0.1523437 1.078125,0.5976562 0.105469,0.1640625 0.105469,0.1875 0.105469,0.3632813 z m 3.474609,-0.7617188 h 1.429688 v -0.3046875 h -1.42969 v -1.8398437 h -0.246093 c -0.01172,0.8203125 -0.316407,1.8867187 -1.289063,1.921875 v 0.2226562 h 0.84375 v 2.7539063 c 0,1.21874996 0.925781,1.33593746 1.289063,1.33593746 0.703125,0 0.984375,-0.703125 0.984375,-1.33593746 v -0.5742188 h -0.246094 v 0.5507813 c 0,0.73828121 -0.304688,1.11328121 -0.667969,1.11328121 -0.667969,0 -0.667969,-0.90234371 -0.667969,-1.07812501 z m 3.263672,1.4765625 c 0.05859,-1.4882812 0.902344,-1.734375 1.242188,-1.734375 1.019531,0 1.125,1.3476563 1.125,1.734375 z m -0.01172,0.2109375 h 2.789063 c 0.210937,0 0.246094,0 0.246094,-0.2109375 0,-0.984375 -0.539063,-1.9570312 -1.78125,-1.9570312 -1.160157,0 -2.074219,1.03125 -2.074219,2.2734375 0,1.33593746 1.042969,2.29687496 2.191406,2.29687496 1.21875,0 1.664063,-1.1015625 1.664063,-1.28906246 0,-0.1054688 -0.08203,-0.1171875 -0.128907,-0.1171875 -0.09375,0 -0.117187,0.058594 -0.128906,0.140625 -0.351562,1.01953121 -1.253906,1.01953121 -1.347656,1.01953121 -0.503906,0 -0.902344,-0.29296875 -1.125,-0.66796875 C 82.467773,-1.2880547 82.467773,-1.9443047 82.467774,-2.2958672 Z m 0,0"
       style="fill:#000000;fill-opacity:1;fill-rule:nonzero;stroke:none"
       aria-label="—label:fg-qte-dte"
       transform="matrix(1.3333333,0,0,1.3333333,0,262.776)" />
    <path
       id="path2"
       d="m 73.83144,-2.12622 v 4.25244 m 73.83145,-4.25244 v 4.25244 m 73.83145,-4.25244 v 4.25244"
       style="fill:none;stroke:#808080;stroke-width:0.19925;stroke-linecap:butt;stroke-linejoin:miter;stroke-miterlimit:10;stroke-dasharray:none;stroke-opacity:1"
       transform="matrix(1.3333333,0,0,-1.3333333,146.46933,243.116)" />
    <path
       id="path3"
       d="m -2.12602,82.70027 h 4.25204 m -4.25204,82.70029 h 4.25204"
       style="fill:none;stroke:#808080;stroke-width:0.19925;stroke-linecap:butt;stroke-linejoin:miter;stroke-miterlimit:10;stroke-dasharray:none;stroke-opacity:1"
       transform="matrix(1.3333333,0,0,-1.3333333,146.46933,243.116)" />
    <path
       id="path4"
       d="M 0,0 H 292.73552"
       style="fill:none;stroke:#a6a6a6;stroke-width:0.79701;stroke-linecap:butt;stroke-linejoin:miter;stroke-miterlimit:10;stroke-dasharray:none;stroke-opacity:1"
       transform="matrix(1.3333333,0,0,-1.3333333,146.46933,243.116)" />
    <path
       id="path5"
       d="M 2.59026,0 -1.55415,2.0722 0,0 -1.55415,-2.0722"
       style="fill:#a6a6a6;fill-opacity:1;fill-rule:nonzero;stroke:none"
       transform="matrix(1.3333333,0,0,-1.3333333,536.78336,243.116)" />
    <path
       id="path6"
       d="M 0,0 V 179.35034"
       style="fill:none;stroke:#a6a6a6;stroke-width:0.79701;stroke-linecap:butt;stroke-linejoin:miter;stroke-miterlimit:10;stroke-dasharray:none;stroke-opacity:1"
       transform="matrix(1.3333333,0,0,-1.3333333,146.46933,243.116)" />
    <path
       id="path7"
       d="M 2.59026,0 -1.55415,2.0722 0,0 -1.55415,-2.0722"
       style="fill:#a6a6a6;fill-opacity:1;fill-rule:nonzero;stroke:none"
       transform="matrix(0,-1.3333333,-1.3333333,0,146.46933,3.9822133)" />
    <path
       id="path8"
       d="m 2.7313516,-5.7307266 c 0,-0.2226562 -0.011719,-0.234375 -0.234375,-0.234375 -0.5625,0.5625 -1.3828125,0.5625 -1.66406254,0.5625 v 0.28125 c 0.17578124,0 0.71484374,0 1.20703124,-0.234375 v 4.64062504 c 0,0.328125 -0.035156,0.43359375 -0.8671875,0.43359375 H 0.89150781 V -2.578125e-4 C 1.2079141,-0.02369531 2.0047891,-0.02369531 2.3797891,-0.02369531 c 0.3632812,0 1.171875,0 1.4882812,0.0234374975 V -0.28150781 h -0.28125 c -0.8320312,0 -0.8554687,-0.10546875 -0.8554687,-0.43359375 z m 0,0"
       style="fill:#a6a6a6;fill-opacity:1;fill-rule:nonzero;stroke:none"
       aria-label="1"
       transform="matrix(1.3333333,0,0,1.3333333,241.83867,258.348)" />
    <path
       id="path9"
       d="M 4.1357266,-1.5822891 H 3.8896328 c -0.023437,0.1171875 -0.09375,0.64453129 -0.2109375,0.78515629 -0.046875,0.0820313 -0.6679687,0.0820313 -0.84375,0.0820313 h -1.59375 L 2.1201016,-1.5588516 c 1.4765625,-1.2773437 2.015625,-1.7460937 2.015625,-2.6601562 0,-1.03125 -0.84375,-1.7460938 -1.9453125,-1.7460938 -1.03125,0 -1.73437504,0.8085938 -1.73437504,1.6289063 0,0.4453125 0.38671875,0.4921875 0.46875,0.4921875 0.19921874,0 0.46875004,-0.140625 0.46875004,-0.46875 0,-0.2695313 -0.1875,-0.46875 -0.46875004,-0.46875 -0.046875,0 -0.0703125,0 -0.10546875,0.011719 C 1.0302578,-5.4026013 1.6044766,-5.69557 2.0849453,-5.69557 c 0.9140625,0 1.2304688,0.8554687 1.2304688,1.4765625 0,0.9140625 -0.6914063,1.6523437 -1.125,2.1210937 l -1.64062504,1.76953129 c -0.09375,0.10546875 -0.09375,0.1171875 -0.09375,0.3281249975 H 3.8896328 Z m 0,0"
       style="fill:#a6a6a6;fill-opacity:1;fill-rule:nonzero;stroke:none"
       aria-label="2"
       transform="matrix(1.3333333,0,0,1.3333333,340.27867,258.348)" />
    <path
       id="path10"
       d="M 2.7295312,-3.1526016 C 3.5615625,-3.4690078 3.96,-4.1252578 3.96,-4.7463516 c 0,-0.6914062 -0.7617188,-1.21875 -1.6875,-1.21875 -0.9375,0 -1.640625,0.5273438 -1.640625,1.2070313 0,0.2929687 0.19921875,0.46875 0.4570312,0.46875 0.2695313,0 0.4570313,-0.1875 0.4570313,-0.4570313 0,-0.3046875 -0.2226563,-0.4453125 -0.5273438,-0.4453125 0.234375,-0.375 0.7851563,-0.5507812 1.21875,-0.5507812 0.75,0 0.890625,0.5859375 0.890625,1.0078125 0,0.2695312 -0.058594,0.703125 -0.28125,1.0429687 -0.2695312,0.3984375 -0.5859375,0.421875 -0.84375,0.4335938 -0.234375,0.023437 -0.2460937,0.023437 -0.3164062,0.023437 -0.082031,0.011719 -0.1523438,0.011719 -0.1523438,0.1171875 0,0.1171875 0.070312,0.1171875 0.2226563,0.1171875 H 2.17875 c 0.7734375,0 1.125,0.6210937 1.125,1.4765625 0,1.14843749 -0.6210938,1.46484374 -1.078125,1.46484374 -0.1640625,0 -1.03125,-0.03515625 -1.44140625,-0.703125 0.32812495,0.046875 0.57421875,-0.17578125 0.57421875,-0.48046874 0,-0.3046875 -0.2226563,-0.4921875 -0.48046875,-0.4921875 -0.22265625,0 -0.4921875,0.140625 -0.4921875,0.515625 0,0.79687499 0.83203125,1.41796874 1.87499995,1.41796874 1.1132813,0 1.9570313,-0.80859375 1.9570313,-1.72265624 0,-0.7851563 -0.6210938,-1.4414063 -1.4882813,-1.6289058 z m 0,0"
       style="fill:#a6a6a6;fill-opacity:1;fill-rule:nonzero;stroke:none"
       aria-label="3"
       transform="matrix(1.3333333,0,0,1.3333333,438.72,258.348)" />
    <g
       id="g10"
       aria-label="0.5"
       transform="matrix(1.3333333,0,0,1.3333333,123.24133,136.70267)">
      <path
         id="path11"
         d="m 4.2428281,-2.87075 c 0,-0.5976562 -0.023437,-1.3710937 -0.3398437,-2.0390625 -0.3984375,-0.84375 -1.078125,-1.0546875 -1.59375,-1.0546875 -0.5390625,0 -1.21875,0.2109375 -1.61718752,1.0664063 -0.29296875,0.6210937 -0.328125,1.3476562 -0.328125,2.0273437 0,0.5859375 0.0117188,1.453125 0.3984375,2.16796875 C 1.1842344,0.0589375 1.8873594,0.1995625 2.2975156,0.1995625 c 0.5859375,0 1.2421875,-0.2578125 1.6171875,-1.078125 0.2695313,-0.5976562 0.328125,-1.2773437 0.328125,-1.9921875 z m -1.9335937,2.84765625 c -0.2695313,0 -0.9140625,-0.12890625 -1.0898438,-1.13671875 -0.09375,-0.5390625 -0.09375,-1.3007812 -0.09375,-1.8164062 0,-0.609375 0,-1.3125 0.1171875,-1.8164063 0.1757813,-0.796875 0.75,-0.9492187 1.0546875,-0.9492187 0.3398438,0 0.9023438,0.1757812 1.078125,1.0078125 0.09375,0.4921875 0.09375,1.1953125 0.09375,1.7578125 0,0.5507812 0,1.3125 -0.09375,1.8398437 -0.1875,1.01953125 -0.84375,1.11328125 -1.0664062,1.11328125 z m 0,0"
         style="fill:#a6a6a6;fill-opacity:1;fill-rule:nonzero;stroke:none" />
      <path
         id="path12"
         d="m 6.3668516,-0.480125 c 0,-0.2578125 -0.2109375,-0.4921875 -0.4804688,-0.4921875 -0.28125,0 -0.4921875,0.234375 -0.4921875,0.4921875 0,0.2578125 0.2109375,0.48046875 0.4921875,0.48046875 0.2695313,0 0.4804688,-0.22265625 0.4804688,-0.48046875 z m 0,0"
         style="fill:#a6a6a6;fill-opacity:1;fill-rule:nonzero;stroke:none" />
      <path
         id="path13"
         d="m 8.1041563,-3.0934062 c 0,0.1640625 0,0.2578125 0.1171875,0.2578125 0.070312,0 0.1054687,-0.035156 0.1523437,-0.1171875 0.2695313,-0.375 0.703125,-0.5859375 1.171875,-0.5859375 0.9609375,0 0.9609375,1.3828125 0.9609375,1.6992187 0,0.28125 0,0.8320313 -0.257812,1.2421875 -0.234375,0.375 -0.6210942,0.5390625 -0.960938,0.5390625 -0.5390625,0 -1.1367187,-0.328125 -1.3476562,-0.9960937 0.011719,0 0.058594,0.023437 0.1171875,0.023437 0.1875,0 0.4453125,-0.1171875 0.4453125,-0.4335938 0,-0.28125 -0.1992188,-0.4453125 -0.4453125,-0.4453125 -0.1875,0 -0.4335938,0.1054688 -0.4335938,0.46875 0,0.80859375 0.6796875,1.640625 1.6757813,1.640625 1.0898442,0 2.0039062,-0.87890625 2.0039062,-1.9921875 0,-1.0898437 -0.761719,-1.96875 -1.7460937,-1.96875 -0.421875,0 -0.8671875,0.140625 -1.1835938,0.4570313 v -1.7578125 c 0.2695313,0.082031 0.5507813,0.1171875 0.8320313,0.1171875 1.1015622,0 1.7460942,-0.796875 1.7460942,-0.9140625 0,-0.070312 -0.05859,-0.1054688 -0.105469,-0.1054688 -0.01172,0 -0.03516,0 -0.117188,0.035156 C 10.319,-5.7535625 9.897125,-5.68325 9.522125,-5.68325 9.1354063,-5.68325 8.7369688,-5.753562 8.3268125,-5.9293437 8.2330625,-5.9645 8.2213438,-5.9645 8.209625,-5.9645 c -0.1054687,0 -0.1054687,0.082031 -0.1054687,0.234375 z m 0,0"
         style="fill:#a6a6a6;fill-opacity:1;fill-rule:nonzero;stroke:none" />
    </g>
    <path
       id="path14"
       d="m 2.730125,-5.7303437 c 0,-0.2226563 -0.011719,-0.234375 -0.234375,-0.234375 -0.5625,0.5625 -1.3828125,0.5625 -1.6640625,0.5625 v 0.28125 c 0.1757813,0 0.7148438,0 1.2070313,-0.234375 v 4.64062495 c 0,0.328125 -0.035156,0.43359375 -0.8671875,0.43359375 H 0.89028125 V 1.25e-4 C 1.2066875,-0.0233125 2.0035625,-0.0233125 2.3785625,-0.0233125 c 0.3632813,0 1.171875,0 1.4882813,0.0234375 v -0.28125 h -0.28125 c -0.8320313,0 -0.8554688,-0.10546875 -0.8554688,-0.43359375 z m 0,0"
       style="fill:#a6a6a6;fill-opacity:1;fill-rule:nonzero;stroke:none"
       aria-label="1"
       transform="matrix(1.3333333,0,0,1.3333333,132.79733,26.437333)" />
    <path
       id="path15"
       d="m 0,0 c 0,0 26.67174,8.5079 36.91571,16.54005 10.24399,8.03214 26.67175,27.58074 36.91573,41.35015 10.24397,13.76939 26.67175,45.26823 36.91572,57.8902 10.24397,12.62194 26.67175,27.11335 36.91573,33.0801 10.24397,5.96674 16.42778,7.62914 36.91572,9.92403 20.48795,2.29489 110.74718,6.61603 110.74718,6.61603"
       style="fill:none;stroke:#a6a6a6;stroke-width:1.59404;stroke-linecap:butt;stroke-linejoin:miter;stroke-miterlimit:10;stroke-dasharray:none;stroke-opacity:1"
       transform="matrix(1.3333333,0,0,-1.3333333,146.46933,243.116)"
       clip-path="url(#clipPath16)" />
    <path
       id="path17"
       d="m 0,0 h 36.91571 l 36.91573,16.54005 73.83145,46.31215 25.841,19.84807 47.99045,57.8902 36.91572,18.19406 36.91573,6.61603"
       style="fill:none;stroke:#a6a6a6;stroke-width:1.59404;stroke-linecap:butt;stroke-linejoin:miter;stroke-miterlimit:10;stroke-dasharray:2.98883, 1.99255, 1.59404, 1.99255;stroke-dashoffset:0;stroke-opacity:1"
       transform="matrix(1.3333333,0,0,-1.3333333,146.46933,243.116)"
       clip-path="url(#clipPath16)" />
    <path
       id="path18"
       d="m 0,140.59047 h 221.49434 v 20.67508 H 0"
       style="fill:none;stroke:#a6a6a6;stroke-width:0.3985;stroke-linecap:butt;stroke-linejoin:miter;stroke-miterlimit:10;stroke-dasharray:2.98883, 2.98883;stroke-dashoffset:0;stroke-opacity:1"
       transform="matrix(1.3333333,0,0,-1.3333333,146.46933,243.116)"
       clip-path="url(#clipPath16)" />
    <path
       id="path19"
       d="M 221.49434,0 V 140.59047"
       style="fill:none;stroke:#a6a6a6;stroke-width:0.3985;stroke-linecap:butt;stroke-linejoin:miter;stroke-miterlimit:10;stroke-dasharray:2.98883, 2.98883;stroke-dashoffset:0;stroke-opacity:1"
       transform="matrix(1.3333333,0,0,-1.3333333,146.46933,243.116)"
       clip-path="url(#clipPath16)" />
    <path
       id="path20"
       d="m 2.98883,140.59047 c 0.74721,0.3736 1.24535,1.24535 1.24535,2.49069 v 5.35614 c 0,1.24535 0.49812,2.11711 1.24534,2.4907 -0.74722,0.37359 -1.24534,1.24534 -1.24534,2.49069 v 5.35617 c 0,1.24534 -0.49814,2.11709 -1.24535,2.49069"
       style="fill:none;stroke:#a6a6a6;stroke-width:0.3985;stroke-linecap:butt;stroke-linejoin:miter;stroke-miterlimit:10;stroke-dasharray:none;stroke-opacity:1"
       transform="matrix(1.3333333,0,0,-1.3333333,146.46933,243.116)" />
    <g
       id="g20"
       aria-label="DTE(3)"
       transform="matrix(1.3333333,0,0,1.3333333,152.49067,45.202667)"
       clip-path="url(#clipPath23)">
      <path
         id="path21"
         d="m 1.5831719,-0.77309375 c -0.09375,0.38671875 -0.1171875,0.46875 -0.90234377,0.46875 -0.17578125,0 -0.28125,0 -0.28125,0.1875 0,0.1171875 0.09375,0.1171875 0.28125,0.1171875 H 3.9737969 c 2.0742187,0 4.03125,-2.09765625 4.03125,-4.28906245 0,-1.3945313 -0.84375,-2.5195313 -2.3320313,-2.5195313 H 2.3214531 c -0.1875,0 -0.2929687,0 -0.2929687,0.1992188 0,0.1171875 0.082031,0.1171875 0.28125,0.1171875 0.1289062,0 0.3164062,0.011719 0.4335937,0.011719 0.1523438,0.023437 0.2109375,0.058594 0.2109375,0.1640625 0,0.035156 0,0.070312 -0.035156,0.1875 z m 2.15625,-5.34374995 c 0.082031,-0.3515625 0.1054687,-0.375 0.5390625,-0.375 h 1.0664062 c 0.9726563,0 1.7929688,0.5273437 1.7929688,1.8398437 0,0.4921875 -0.1992188,2.1210938 -1.0429688,3.2226563 -0.28125,0.3632812 -1.078125,1.12499995 -2.296875,1.12499995 h -1.125 c -0.140625,0 -0.1640625,0 -0.2226562,-0.0117188 -0.09375,-0.0117188 -0.1289063,-0.0234375 -0.1289063,-0.10546875 0,-0.0234375 0,-0.046875 0.046875,-0.22265625 z m 9.0410161,0.070312 c 0.07031,-0.28125 0.105468,-0.3398438 0.234375,-0.3632813 0.08203,-0.023437 0.410156,-0.023437 0.621093,-0.023437 1.007813,0 1.453125,0.035156 1.453125,0.8203125 0,0.140625 -0.03516,0.5273438 -0.08203,0.796875 0,0.035156 -0.02344,0.1523438 -0.02344,0.1875 0,0.058594 0.02344,0.1289063 0.117187,0.1289063 0.105469,0 0.128906,-0.082031 0.152344,-0.234375 l 0.269531,-1.734375 c 0.01172,-0.035156 0.01172,-0.140625 0.01172,-0.1640625 0,-0.1054688 -0.09375,-0.1054688 -0.269531,-0.1054688 H 9.7452813 c -0.2460938,0 -0.2578125,0 -0.3164063,0.1992188 L 8.8312188,-4.792625 c -0.011719,0.023437 -0.070312,0.1640625 -0.070312,0.1757813 0,0.070312 0.058594,0.1171875 0.1289062,0.1171875 0.09375,0 0.1054688,-0.046875 0.1640625,-0.2109375 C 9.5929375,-6.2574687 9.85075,-6.43325 11.327313,-6.43325 h 0.386718 c 0.28125,0 0.28125,0.035156 0.28125,0.1171875 0,0.058594 -0.03516,0.1757813 -0.04687,0.2109375 l -1.324218,5.3203125 c -0.09375,0.36328125 -0.128907,0.48046875 -1.195313,0.48046875 -0.3515625,0 -0.4101562,0 -0.4101562,0.1875 0,0.1171875 0.1054687,0.1171875 0.1640625,0.1171875 0.2695312,0 0.5507812,-0.0234375 0.8203127,-0.0234375 0.28125,0 0.5625,-0.01171875 0.84375,-0.01171875 0.28125,0 0.5625,0.01171875 0.832031,0.01171875 0.28125,0 0.585938,0.0234375 0.867188,0.0234375 0.09375,0 0.210937,0 0.210937,-0.19921875 0,-0.10546875 -0.08203,-0.10546875 -0.339844,-0.10546875 -0.246093,0 -0.375,0 -0.632812,-0.0234375 -0.292969,-0.0351563 -0.363281,-0.0585938 -0.363281,-0.22265625 0,-0.0117188 0,-0.0585938 0.03516,-0.2109375 z m 10.007812,3.7265625 c 0.02344,-0.046875 0.04687,-0.1171875 0.04687,-0.140625 0,-0.011719 0,-0.1054688 -0.117187,-0.1054688 -0.09375,0 -0.105469,0.058594 -0.128907,0.1171875 -0.644531,1.4765625 -1.019531,2.14453125 -2.71875,2.14453125 h -1.453125 c -0.140625,0 -0.164062,0 -0.222656,-0.0117188 -0.105469,-0.0117188 -0.128906,-0.0234375 -0.128906,-0.10546875 0,-0.0234375 0,-0.046875 0.04687,-0.22265625 l 0.679687,-2.71875005 h 0.984375 c 0.84375,0 0.84375,0.2109375 0.84375,0.4570313 0,0.070312 0,0.1875 -0.07031,0.4804687 -0.01172,0.058594 -0.02344,0.082031 -0.02344,0.1171875 0,0.046875 0.03516,0.1054688 0.128907,0.1054688 0.08203,0 0.105468,-0.046875 0.152343,-0.1992188 l 0.5625,-2.3320311 c 0,-0.058594 -0.04687,-0.1054688 -0.117187,-0.1054688 -0.09375,0 -0.105469,0.058594 -0.140625,0.1757813 -0.210938,0.7617186 -0.386719,0.984375 -1.300781,0.984375 h -0.9375 l 0.597656,-2.4023439 c 0.08203,-0.3398437 0.09375,-0.3867187 0.539062,-0.3867187 h 1.40625 c 1.207032,0 1.511719,0.2929687 1.511719,1.1132812 0,0.234375 0,0.2578125 -0.04687,0.5273438 0,0.058594 -0.01172,0.1289062 -0.01172,0.1757812 0,0.046875 0.03516,0.1171875 0.128907,0.1171875 0.105468,0 0.117187,-0.058594 0.140625,-0.2460937 l 0.199218,-1.7226563 c 0.02344,-0.2695312 -0.02344,-0.2695312 -0.269531,-0.2695312 h -5.039062 c -0.199219,0 -0.292969,0 -0.292969,0.1992187 0,0.1054688 0.09375,0.1054688 0.28125,0.1054688 0.363281,0 0.644531,0 0.644531,0.1875 0,0.035156 0,0.058594 -0.04687,0.234375 l -1.324219,5.2734375 c -0.09375,0.38671875 -0.117187,0.46875 -0.902343,0.46875 -0.164063,0 -0.28125,0 -0.28125,0.1875 0,0.1171875 0.09375,0.1171875 0.28125,0.1171875 h 5.167968 c 0.234375,0 0.246094,-0.01171875 0.316407,-0.1640625 z m 0,0"
         style="fill:#a6a6a6;fill-opacity:1;fill-rule:nonzero;stroke:none" />
      <path
         id="path22"
         d="m 26.948406,2.3909688 c 0,-0.035156 0,-0.046875 -0.164062,-0.2226563 -1.242188,-1.25390625 -1.570313,-3.12890625 -1.570313,-4.6640625 0,-1.7226562 0.386719,-3.4570312 1.605469,-4.7109375 0.128906,-0.1171875 0.128906,-0.1289062 0.128906,-0.1640625 0,-0.070312 -0.03516,-0.1054687 -0.09375,-0.1054687 -0.105468,0 -0.996093,0.6796875 -1.582031,1.9453125 -0.515625,1.1015625 -0.632812,2.203125 -0.632812,3.0351562 0,0.7851563 0.117187,1.9921875 0.65625,3.1171875 0.597656,1.21875 1.453125,1.875 1.558593,1.875 0.05859,0 0.09375,-0.035156 0.09375,-0.1054687 z m 3.477539,-5.8945313 c 0.808594,-0.2695312 1.394532,-0.9726562 1.394532,-1.7578125 0,-0.8203125 -0.878907,-1.3710937 -1.839844,-1.3710937 -1.007813,0 -1.757813,0.5976562 -1.757813,1.3476562 0,0.3398438 0.210938,0.5273438 0.503907,0.5273438 0.304687,0 0.503906,-0.2226563 0.503906,-0.515625 0,-0.4921875 -0.46875,-0.4921875 -0.609375,-0.4921875 0.304687,-0.4921875 0.960937,-0.6210938 1.324219,-0.6210938 0.410156,0 0.949218,0.2226563 0.949218,1.1132813 0,0.1289062 -0.01172,0.703125 -0.269531,1.1367187 -0.304687,0.4804688 -0.644531,0.515625 -0.890625,0.515625 -0.08203,0.011719 -0.316406,0.035156 -0.386719,0.035156 -0.08203,0.011719 -0.152343,0.023437 -0.152343,0.1171875 0,0.1171875 0.07031,0.1171875 0.234375,0.1171875 h 0.445312 c 0.808594,0 1.183594,0.6679687 1.183594,1.6523437 0,1.34765625 -0.691406,1.640625 -1.125,1.640625 -0.433594,0 -1.171875,-0.17578125 -1.523438,-0.76171875 0.351563,0.0585938 0.65625,-0.1640625 0.65625,-0.53906245 0,-0.3632813 -0.269531,-0.5625 -0.5625,-0.5625 -0.234375,0 -0.550781,0.140625 -0.550781,0.5742187 0,0.9140625 0.925781,1.5703125 2.003906,1.5703125 1.21875,0 2.121094,-0.9140625 2.121094,-1.921875 0,-0.8203125 -0.621094,-1.59375 -1.652344,-1.8046872 z m 4.96875,1.0078125 c 0,-0.7734375 -0.117187,-1.9804687 -0.65625,-3.1054687 -0.597656,-1.21875 -1.464843,-1.875 -1.558593,-1.875 -0.05859,0 -0.105469,0.046875 -0.105469,0.1054687 0,0.035156 0,0.046875 0.199219,0.234375 0.972656,0.984375 1.535156,2.5664063 1.535156,4.640625 0,1.7109375 -0.363281,3.45703125 -1.59375,4.7226563 -0.140625,0.1171875 -0.140625,0.1289062 -0.140625,0.1640625 0,0.058594 0.04687,0.1054687 0.105469,0.1054687 0.09375,0 0.996093,-0.6796875 1.582031,-1.9453125 0.503906,-1.1015625 0.632812,-2.203125 0.632812,-3.046875 z m 0,0"
         style="fill:#a6a6a6;fill-opacity:1;fill-rule:nonzero;stroke:none" />
    </g>
    <path
       id="path24"
       d="m 90.81267,0 v 82.70027 h 82.69122 V 0"
       style="fill:none;stroke:#a6a6a6;stroke-width:0.3985;stroke-linecap:butt;stroke-linejoin:miter;stroke-miterlimit:10;stroke-dasharray:2.98883, 2.98883;stroke-dashoffset:0;stroke-opacity:1"
       transform="matrix(1.3333333,0,0,-1.3333333,146.46933,243.116)"
       clip-path="url(#clipPath25)" />
    <path
       id="path26"
       d="M 0,82.70027 H 90.81267"
       style="fill:none;stroke:#a6a6a6;stroke-width:0.3985;stroke-linecap:butt;stroke-linejoin:miter;stroke-miterlimit:10;stroke-dasharray:2.98883, 2.98883;stroke-dashoffset:0;stroke-opacity:1"
       transform="matrix(1.3333333,0,0,-1.3333333,146.46933,243.116)"
       clip-path="url(#clipPath25)" />
    <path
       id="path27"
       d="m 90.81267,0.99628 c 0.37359,0.7472 1.24534,1.24534 2.49069,1.24534 h 36.36423 c 1.24534,0 2.11711,0.49813 2.49069,1.24535 0.3736,-0.74722 1.24535,-1.24535 2.49069,-1.24535 h 36.36423 c 1.24534,0 2.11711,-0.49814 2.49069,-1.24534"
       style="fill:none;stroke:#a6a6a6;stroke-width:0.3985;stroke-linecap:butt;stroke-linejoin:miter;stroke-miterlimit:10;stroke-dasharray:none;stroke-opacity:1"
       transform="matrix(1.3333333,0,0,-1.3333333,146.46933,243.116)" />
    <g
       id="g27"
       aria-label="QTE(0.5)"
       transform="matrix(1.3333333,0,0,1.3333333,293.68533,233.77333)"
       clip-path="url(#clipPath32)">
      <path
         id="path28"
         d="m 4.3580703,-0.05851562 c 1.546875,-0.5859375 3.0117188,-2.36718748 3.0117188,-4.28906248 0,-1.59375 -1.0546875,-2.671875 -2.5429688,-2.671875 -2.1445312,0 -4.33593749,2.2617187 -4.33593749,4.5820312 0,1.65234378 1.11328129,2.66015628 2.54296879,2.66015628 0.2578125,0 0.5859375,-0.046875 0.984375,-0.15234375 -0.046875,0.62109375 -0.046875,0.6328125 -0.046875,0.76171875 0,0.32812502 0,1.10156252 0.8320312,1.10156252 1.1835938,0 1.6640625,-1.82812502 1.6640625,-1.933593775 0,-0.070312495 -0.070312,-0.105468745 -0.1171875,-0.105468745 -0.070312,0 -0.09375,0.05859375 -0.1171875,0.1171875 -0.234375,0.703125 -0.8203125,0.94921875 -1.1601562,0.94921875 -0.4570313,0 -0.609375,-0.2578125 -0.7148438,-1.01953125 z m -1.875,-0.08203125 c -0.7851562,-0.3046875 -1.125,-1.08984373 -1.125,-1.98046873 0,-0.6914063 0.2695313,-2.0976563 1.0195313,-3.1757813 0.7265625,-1.0195312 1.6640625,-1.4765625 2.390625,-1.4765625 0.9960937,0 1.7226562,0.7734375 1.7226562,2.109375 0,0.9960938 -0.5039062,3.328125 -2.1796875,4.26562503 -0.046875,-0.3515625 -0.1523437,-1.07812503 -0.8789062,-1.07812503 -0.5273438,0 -1.0078125,0.50390628 -1.0078125,1.01953128 0,0.19921875 0.058594,0.3046875 0.058594,0.31640625 z m 0.609375,0.10546875 c -0.140625,0 -0.4570312,0 -0.4570312,-0.421875 0,-0.3984375 0.3867187,-0.79687498 0.796875,-0.79687498 0.421875,0 0.609375,0.234375 0.609375,0.84374998 0,0.15234375 -0.011719,0.1640625 -0.1054688,0.19921875 -0.2578125,0.10546875 -0.5625,0.17578125 -0.84375,0.17578125 z M 12.130531,-6.0467969 c 0.07031,-0.28125 0.105469,-0.3398437 0.234375,-0.3632812 0.08203,-0.023437 0.410156,-0.023437 0.621094,-0.023437 1.007812,0 1.453125,0.035156 1.453125,0.8203125 0,0.140625 -0.03516,0.5273437 -0.08203,0.796875 0,0.035156 -0.02344,0.1523437 -0.02344,0.1875 0,0.058594 0.02344,0.1289062 0.117188,0.1289062 0.105468,0 0.128906,-0.082031 0.152343,-0.234375 l 0.269532,-1.734375 c 0.01172,-0.035156 0.01172,-0.140625 0.01172,-0.1640625 0,-0.1054687 -0.09375,-0.1054687 -0.269531,-0.1054687 H 9.095375 c -0.2460938,0 -0.2578125,0 -0.3164063,0.1992187 L 8.1813125,-4.7928906 C 8.1695937,-4.7694531 8.111,-4.6288281 8.111,-4.6171094 c 0,0.070312 0.058594,0.1171875 0.1289062,0.1171875 0.09375,0 0.1054688,-0.046875 0.1640625,-0.2109375 0.5390625,-1.546875 0.796875,-1.7226562 2.2734373,-1.7226562 h 0.386719 c 0.28125,0 0.28125,0.035156 0.28125,0.1171875 0,0.058594 -0.03516,0.1757812 -0.04687,0.2109375 l -1.3242188,5.32031248 c -0.09375,0.36328125 -0.1289062,0.48046875 -1.1953125,0.48046875 -0.3515625,0 -0.4101562,0 -0.4101562,0.1875 0,0.117187495 0.1054687,0.117187495 0.1640625,0.117187495 0.2695312,0 0.5507812,-0.023437495 0.8203125,-0.023437495 0.28125,0 0.5625,-0.01171875 0.8437495,-0.01171875 0.28125,0 0.5625,0.01171875 0.832032,0.01171875 0.28125,0 0.585937,0.023437495 0.867187,0.023437495 0.09375,0 0.210938,0 0.210938,-0.199218745 0,-0.10546875 -0.08203,-0.10546875 -0.339844,-0.10546875 -0.246094,0 -0.375,0 -0.632813,-0.0234375 -0.292968,-0.0351563 -0.363281,-0.0585938 -0.363281,-0.22265625 0,-0.0117188 0,-0.0585938 0.03516,-0.2109375 z m 10.007813,3.7265625 c 0.02344,-0.046875 0.04687,-0.1171875 0.04687,-0.140625 0,-0.011719 0,-0.1054687 -0.117188,-0.1054687 -0.09375,0 -0.105469,0.058594 -0.128906,0.1171875 -0.644531,1.47656248 -1.019531,2.14453123 -2.71875,2.14453123 h -1.45312 c -0.140625,0 -0.164063,0 -0.222656,-0.0117188 -0.105469,-0.0117188 -0.128907,-0.0234375 -0.128907,-0.10546875 0,-0.0234375 0,-0.046875 0.04687,-0.22265625 L 18.14225,-3.3632031 h 0.984375 c 0.84375,0 0.84375,0.2109375 0.84375,0.4570312 0,0.070312 0,0.1875 -0.07031,0.4804688 -0.01172,0.058594 -0.02344,0.082031 -0.02344,0.1171875 0,0.046875 0.03516,0.1054687 0.128906,0.1054687 0.08203,0 0.105469,-0.046875 0.152344,-0.1992187 l 0.5625,-2.3320313 c 0,-0.058594 -0.04687,-0.1054687 -0.117188,-0.1054687 -0.09375,0 -0.105468,0.058594 -0.140625,0.1757812 -0.210937,0.7617188 -0.386718,0.984375 -1.300781,0.984375 h -0.9375 l 0.597656,-2.4023437 c 0.08203,-0.3398438 0.09375,-0.3867188 0.539063,-0.3867188 h 1.40625 c 1.207031,0 1.511719,0.2929688 1.511719,1.1132813 0,0.234375 0,0.2578125 -0.04687,0.5273437 0,0.058594 -0.01172,0.1289063 -0.01172,0.1757813 0,0.046875 0.03516,0.1171875 0.128906,0.1171875 0.105469,0 0.117188,-0.058594 0.140625,-0.2460938 l 0.199219,-1.7226562 c 0.02344,-0.2695313 -0.02344,-0.2695313 -0.269531,-0.2695313 h -5.039063 c -0.199219,0 -0.292969,0 -0.292969,0.1992188 0,0.1054687 0.09375,0.1054687 0.28125,0.1054687 0.363282,0 0.644532,0 0.644532,0.1875 0,0.035156 0,0.058594 -0.04687,0.234375 l -1.324219,5.27343753 c -0.09375,0.38671875 -0.117188,0.46875 -0.902344,0.46875 -0.164062,0 -0.28125,0 -0.28125,0.1875 0,0.117187495 0.09375,0.117187495 0.28125,0.117187495 h 5.167969 c 0.234375,0 0.246094,-0.011718745 0.316406,-0.164062495 z m 0,0"
         style="fill:#a6a6a6;fill-opacity:1;fill-rule:nonzero;stroke:none" />
      <path
         id="path29"
         d="m 26.2985,2.3907031 c 0,-0.035156 0,-0.046875 -0.164063,-0.2226562 -1.242187,-1.25390627 -1.570312,-3.12890627 -1.570312,-4.6640625 0,-1.7226563 0.386719,-3.4570313 1.605469,-4.7109375 0.128906,-0.1171875 0.128906,-0.1289063 0.128906,-0.1640625 0,-0.070312 -0.03516,-0.1054688 -0.09375,-0.1054688 -0.105469,0 -0.996094,0.6796875 -1.582031,1.9453125 -0.515625,1.1015625 -0.632813,2.203125 -0.632813,3.0351563 0,0.7851562 0.117188,1.99218748 0.65625,3.11718748 0.597656,1.21875002 1.453125,1.87500002 1.558594,1.87500002 0.05859,0 0.09375,-0.035156 0.09375,-0.1054688 z m 5.165039,-5.578125 c 0,-0.796875 -0.04687,-1.59375 -0.398437,-2.3320312 -0.457032,-0.9609375 -1.277344,-1.1132813 -1.6875,-1.1132813 -0.597657,0 -1.335938,0.2578125 -1.734375,1.1835938 -0.328125,0.6914062 -0.375,1.4648437 -0.375,2.2617187 0,0.75 0.04687,1.640625 0.445312,2.40234378 0.433594,0.80859375 1.160156,1.0078125 1.652344,1.0078125 0.539062,0 1.289062,-0.2109375 1.734375,-1.16015625 0.316406,-0.69140623 0.363281,-1.46484373 0.363281,-2.25000003 z M 29.365883,7.8125e-5 c -0.386719,0 -0.984375,-0.246093745 -1.160156,-1.207031225 -0.105469,-0.5976563 -0.105469,-1.5117188 -0.105469,-2.0976563 0,-0.6445312 0,-1.3007812 0.08203,-1.8398437 0.1875,-1.1835938 0.925781,-1.265625 1.183594,-1.265625 0.328125,0 0.984375,0.1757812 1.171875,1.1601562 0.09375,0.5625 0.09375,1.3125 0.09375,1.9453125 0,0.75 0,1.4179688 -0.105469,2.0625 C 30.373695,-0.30460937 29.811195,7.8125e-5 29.365883,7.8125e-5 Z m 0,0"
         style="fill:#a6a6a6;fill-opacity:1;fill-rule:nonzero;stroke:none" />
      <path
         id="path30"
         d="m 33.772133,-0.52726562 c 0,-0.29296875 -0.234375,-0.52734378 -0.527344,-0.52734378 -0.28125,0 -0.527344,0.23437503 -0.527344,0.52734378 0,0.29296875 0.246094,0.527343745 0.527344,0.527343745 0.292969,0 0.527344,-0.234374995 0.527344,-0.527343745 z m 0,0"
         style="fill:#a6a6a6;fill-opacity:1;fill-rule:nonzero;stroke:none" />
      <path
         id="path31"
         d="m 39.104164,-2.0038281 c 0,-1.1835938 -0.820312,-2.1796875 -1.898437,-2.1796875 -0.480469,0 -0.902344,0.1640625 -1.265625,0.5039062 v -1.9335937 c 0.199218,0.058594 0.527343,0.1289062 0.84375,0.1289062 1.230468,0 1.933593,-0.9140625 1.933593,-1.0429687 0,-0.058594 -0.03516,-0.1054688 -0.105468,-0.1054688 -0.01172,0 -0.03516,0 -0.08203,0.023437 -0.199218,0.09375 -0.679687,0.2929688 -1.347656,0.2929688 -0.398437,0 -0.855469,-0.070312 -1.324219,-0.28125 -0.08203,-0.023437 -0.105468,-0.023437 -0.128906,-0.023437 -0.09375,0 -0.09375,0.082031 -0.09375,0.234375 v 2.953125 c 0,0.1757812 0,0.2578125 0.140625,0.2578125 0.07031,0 0.08203,-0.035156 0.128906,-0.09375 0.105469,-0.1523438 0.480469,-0.6914063 1.277344,-0.6914063 0.527344,0 0.773438,0.4570313 0.855469,0.6328125 0.152344,0.375 0.175781,0.7617188 0.175781,1.2539063 0,0.3515625 0,0.9492187 -0.234375,1.37109373 -0.246094,0.38671875 -0.609375,0.64453125 -1.066406,0.64453125 -0.726563,0 -1.300781,-0.52734375 -1.464844,-1.11328128 0.02344,0.011719 0.05859,0.011719 0.164063,0.011719 0.328125,0 0.503906,-0.2460938 0.503906,-0.4804688 0,-0.2460937 -0.175781,-0.4921875 -0.503906,-0.4921875 -0.140625,0 -0.480469,0.070312 -0.480469,0.5273438 0,0.85546873 0.679687,1.82812498 1.792969,1.82812498 1.160156,0 2.179687,-0.9609375 2.179687,-2.22656248 z m 3.389648,-0.4921875 c 0,-0.7734375 -0.117187,-1.9804688 -0.65625,-3.1054688 -0.597656,-1.21875 -1.464843,-1.875 -1.558593,-1.875 -0.05859,0 -0.105469,0.046875 -0.105469,0.1054688 0,0.035156 0,0.046875 0.199219,0.234375 0.972656,0.984375 1.535156,2.5664062 1.535156,4.640625 0,1.71093748 -0.363281,3.45703123 -1.59375,4.7226562 C 40.1735,2.3438281 40.1735,2.3555469 40.1735,2.3907031 c 0,0.058594 0.04687,0.1054688 0.105469,0.1054688 0.09375,0 0.996093,-0.6796875 1.582031,-1.94531252 0.503906,-1.1015625 0.632812,-2.20312498 0.632812,-3.04687498 z m 0,0"
         style="fill:#a6a6a6;fill-opacity:1;fill-rule:nonzero;stroke:none" />
    </g>
    <path
       id="path33"
       d="m 4.4067891,-3.6216875 c -0.328125,0.058594 -0.421875,0.3515625 -0.421875,0.4804688 0,0.1757812 0.1171875,0.328125 0.3398437,0.328125 0.2578125,0 0.5039063,-0.2226563 0.5039063,-0.5273438 0,-0.421875 -0.4570313,-0.6210937 -0.8789063,-0.6210937 -0.5390625,0 -0.84375,0.46875 -0.9492187,0.65625 -0.1757813,-0.4335938 -0.5742188,-0.65625 -0.9960938,-0.65625 -0.9609375,0 -1.48828124,1.1484375 -1.48828124,1.3828125 0,0.082031 0.0703125,0.1054687 0.12890625,0.1054687 0.0820313,0 0.10546875,-0.046875 0.12890625,-0.1054687 C 1.0552266,-3.457625 1.6411641,-3.738875 1.9810078,-3.738875 c 0.2578125,0 0.4921875,0.1757813 0.4921875,0.5859375 0,0.328125 -0.3867187,1.7578125 -0.5039062,2.19140625 -0.070312,0.28125 -0.3398438,0.83203125 -0.8320313,0.83203125 -0.17578124,0 -0.36328124,-0.0585938 -0.45703124,-0.1171875 0.24609375,-0.0351563 0.42187504,-0.24609375 0.42187504,-0.48046875 0,-0.22265625 -0.16406254,-0.32812495 -0.33984379,-0.32812495 -0.2578125,0 -0.4921875,0.23437495 -0.4921875,0.53906245 0,0.43359375 0.48046875,0.609375 0.85546879,0.609375 0.5273437,0 0.8320312,-0.421875 0.9609375,-0.66796875 0.2226562,0.59765625 0.7617187,0.66796875 0.9960937,0.66796875 0.9726563,0 1.4765625,-1.16015625 1.4765625,-1.37109375 0,-0.046875 -0.023437,-0.1171875 -0.1171875,-0.1171875 -0.09375,0 -0.1054687,0.035156 -0.1523437,0.1757813 -0.1875,0.6445312 -0.7148438,1.0898437 -1.1835938,1.0898437 -0.2578125,0 -0.4921875,-0.15234375 -0.4921875,-0.5859375 0,-0.19921875 0.1171875,-0.6914062 0.1992188,-1.03125 0.035156,-0.1640625 0.28125,-1.1367187 0.2929687,-1.1953125 0.1171875,-0.3164062 0.3867188,-0.796875 0.84375,-0.796875 0.1523438,0 0.328125,0.023437 0.4570313,0.1171875 z m 0,0"
       style="fill:#a6a6a6;fill-opacity:1;fill-rule:nonzero;stroke:none"
       aria-label="x"
       transform="matrix(1.3333333,0,0,1.3333333,528.636,238.42267)" />
    <path
       id="path34"
       d="m 240.50995,5.65723 h 45.75716 V 34.217 h -45.75716 z"
       style="fill:#ffffff;fill-opacity:1;fill-rule:nonzero;stroke:#000000;stroke-width:0.3985;stroke-linecap:butt;stroke-linejoin:miter;stroke-miterlimit:10;stroke-dasharray:none;stroke-opacity:1"
       transform="matrix(1.3333333,0,0,-1.3333333,146.46933,243.116)" />
    <path
       id="path35"
       d="m 0,0 c 0,0 6.14426,0 8.50412,0 2.35986,0 8.50414,0 8.50414,0"
       style="fill:none;stroke:#a6a6a6;stroke-width:1.59404;stroke-linecap:butt;stroke-linejoin:miter;stroke-miterlimit:10;stroke-dasharray:none;stroke-opacity:1"
       transform="matrix(1.3333333,0,0,-1.3333333,472.19333,208.34267)" />
    <g
       id="g35"
       aria-label="F&#10;Y&#10;0"
       transform="matrix(1.3333333,0,0,1.3333333,498.58933,211.884)">
      <path
         id="path36"
         d="m 3.0238203,-3.2352656 h 0.9609375 c 0.75,0 0.8320313,0.1523437 0.8320313,0.4453125 0,0.070312 0,0.1875 -0.070312,0.4921875 -0.023437,0.046875 -0.035156,0.082031 -0.035156,0.1054687 0,0.082031 0.058594,0.1171875 0.1171875,0.1171875 0.1054688,0 0.1054688,-0.023437 0.1523438,-0.2109375 l 0.5507812,-2.15625 c 0.023437,-0.1054687 0.023437,-0.1289062 0.023437,-0.1640625 0,-0.011719 -0.011719,-0.1054687 -0.1171875,-0.1054687 -0.09375,0 -0.1054687,0.046875 -0.1523437,0.2109375 -0.1992188,0.7734375 -0.4335938,0.9492187 -1.2773438,0.9492187 H 3.0941328 l 0.6445313,-2.53125 c 0.082031,-0.3398437 0.09375,-0.3867187 0.5390625,-0.3867187 h 1.3125 c 1.21875,0 1.453125,0.328125 1.453125,1.1015625 0,0.2226562 0,0.2695312 -0.035156,0.5390625 -0.011719,0.1289062 -0.011719,0.140625 -0.011719,0.1757812 0,0.046875 0.023437,0.1171875 0.1171875,0.1171875 0.1054687,0 0.1171875,-0.058594 0.140625,-0.2460937 L 7.4535078,-6.5047969 C 7.4769453,-6.7743281 7.4300703,-6.7743281 7.1839766,-6.7743281 H 2.2972578 c -0.1992187,0 -0.2929687,0 -0.2929687,0.1992187 0,0.1054688 0.09375,0.1054688 0.28125,0.1054688 0.3632812,0 0.6445312,0 0.6445312,0.1875 0,0.035156 0,0.058594 -0.046875,0.234375 l -1.3242187,5.27343748 c -0.09375,0.38671875 -0.1171875,0.46875 -0.90234379,0.46875 -0.1640625,0 -0.28125,0 -0.28125,0.1875 0,0.117187495 0.12890625,0.117187495 0.15234375,0.117187495 0.29296875,0 1.03125004,-0.035156245 1.31250004,-0.035156245 0.328125,0 1.1601562,0.035156245 1.4882812,0.035156245 0.09375,0 0.2109375,0 0.2109375,-0.187499995 0,-0.0820313 -0.058594,-0.10546875 -0.058594,-0.1171875 -0.035156,0 -0.058594,0 -0.28125,0 -0.2226563,0 -0.2695313,0 -0.515625,-0.0234375 -0.2929688,-0.0351563 -0.328125,-0.0703125 -0.328125,-0.19921875 0,-0.0234375 0,-0.0820313 0.046875,-0.234375 z m 0,0"
         style="fill:#a6a6a6;fill-opacity:1;fill-rule:nonzero;stroke:none" />
      <path
         id="path37"
         d="m 11.130266,-2.1542109 c 0.140625,-0.140625 0.28125,-0.2695313 0.433593,-0.375 0.28125,-0.1875 0.539063,-0.1992188 0.632813,-0.2109375 0.07031,-0.011719 0.164062,-0.011719 0.164062,-0.1523438 0,-0.046875 -0.04687,-0.09375 -0.105468,-0.09375 -0.175782,0 -0.386719,0.023437 -0.5625,0.023437 -0.222657,0 -0.515625,-0.023437 -0.726563,-0.023437 -0.03516,0 -0.140625,0 -0.140625,0.1523438 0,0.082031 0.09375,0.09375 0.128906,0.09375 0.199219,0.011719 0.199219,0.09375 0.199219,0.1289062 0,0.070312 -0.03516,0.1171875 -0.09375,0.1875 -0.03516,0.058594 -0.07031,0.1054688 -0.117187,0.1523438 L 9.2083906,-0.45499219 8.2826094,-2.4940547 c -0.046875,-0.09375 -0.046875,-0.1171875 -0.046875,-0.1171875 0,-0.1289062 0.328125,-0.1289062 0.375,-0.1289062 0.09375,0 0.1757812,0 0.1757812,-0.1523438 0,-0.011719 0,-0.09375 -0.1054687,-0.09375 -0.2109375,0 -0.7265625,0.023437 -0.9375,0.023437 -0.1757813,0 -0.6210938,-0.023437 -0.796875,-0.023437 -0.046875,0 -0.1289063,0.011719 -0.1289063,0.1523438 0,0.09375 0.082031,0.09375 0.1875,0.09375 0.3984375,0 0.421875,0.058594 0.4921875,0.2109375 L 8.5872969,-0.13858594 8.2708906,1.1387578 c -0.09375,0.3515625 -0.09375,0.375 -0.6445312,0.3867188 -0.1171875,0 -0.2109375,0 -0.2109375,0.140625 0,0.070312 0.046875,0.1054687 0.1171875,0.1054687 0.1289062,0 0.2929687,-0.023437 0.4335937,-0.023437 0.1289063,0 0.328125,0 0.4570313,0 0.140625,0 0.3046875,0 0.4453125,0 0.1523437,0 0.3164062,0.023437 0.46875,0.023437 0.035156,0 0.1523437,0 0.1523437,-0.1523437 0,-0.09375 -0.082031,-0.09375 -0.234375,-0.09375 -0.1171875,0 -0.140625,0 -0.2695312,-0.023437 -0.1289063,-0.011719 -0.1523438,-0.023437 -0.1523438,-0.09375 0,-0.046875 0.082031,-0.375 0.1289063,-0.56250004 0.058594,-0.22265625 0.2109375,-0.83203125 0.2226562,-0.85546875 0.023437,-0.10546875 0.023437,-0.1171875 0.09375,-0.1875 z m 0,0"
         style="fill:#a6a6a6;fill-opacity:1;fill-rule:nonzero;stroke:none" />
      <path
         id="path38"
         d="m 15.794328,-1.8143672 c 0,-0.3632812 0,-1.7226562 -1.289062,-1.7226562 -1.300782,0 -1.300782,1.359375 -1.300782,1.7226562 0,0.3632813 0,1.69921876 1.300782,1.69921876 1.289062,0 1.289062,-1.33593746 1.289062,-1.69921876 z m -1.289062,1.53515626 c -0.1875,0 -0.609375,-0.0585938 -0.738282,-0.5625 -0.05859,-0.26953126 -0.07031,-0.62109376 -0.07031,-1.03124996 0,-0.375 0,-0.7148438 0.08203,-0.9960938 0.128906,-0.421875 0.503906,-0.5039062 0.726563,-0.5039062 0.363281,0 0.621093,0.1875 0.726562,0.5390625 0.07031,0.2578125 0.07031,0.6679687 0.07031,0.9609375 0,0.3398437 0,0.7382812 -0.07031,1.04296871 -0.128906,0.48046875 -0.527344,0.55078125 -0.726562,0.55078125 z m 0,0"
         style="fill:#a6a6a6;fill-opacity:1;fill-rule:nonzero;stroke:none" />
    </g>
    <path
       id="path39"
       d="m 0,0 h 8.50412 8.50414"
       style="fill:none;stroke:#a6a6a6;stroke-width:1.59404;stroke-linecap:butt;stroke-linejoin:miter;stroke-miterlimit:10;stroke-dasharray:2.98883, 1.99255, 1.59404, 1.99255;stroke-dashoffset:0;stroke-opacity:1"
       transform="matrix(1.3333333,0,0,-1.3333333,472.19333,224.72533)" />
    <g
       id="g39"
       aria-label="F&#10;Y&#10;1"
       transform="matrix(1.3333333,0,0,1.3333333,498.58933,228.26667)">
      <path
         id="path40"
         d="m 3.0238203,-3.2351562 h 0.9609375 c 0.75,0 0.8320313,0.1523437 0.8320313,0.4453125 0,0.070312 0,0.1875 -0.070312,0.4921875 -0.023437,0.046875 -0.035156,0.082031 -0.035156,0.1054687 0,0.082031 0.058594,0.1171875 0.1171875,0.1171875 0.1054688,0 0.1054688,-0.023437 0.1523438,-0.2109375 l 0.5507812,-2.15625 c 0.023437,-0.1054687 0.023437,-0.1289062 0.023437,-0.1640625 0,-0.011719 -0.011719,-0.1054687 -0.1171875,-0.1054687 -0.09375,0 -0.1054687,0.046875 -0.1523437,0.2109375 -0.1992188,0.7734375 -0.4335938,0.9492187 -1.2773438,0.9492187 H 3.0941328 l 0.6445313,-2.53125 c 0.082031,-0.3398437 0.09375,-0.3867187 0.5390625,-0.3867187 h 1.3125 c 1.21875,0 1.453125,0.328125 1.453125,1.1015625 0,0.2226562 0,0.2695312 -0.035156,0.5390625 -0.011719,0.1289062 -0.011719,0.140625 -0.011719,0.1757812 0,0.046875 0.023437,0.1171875 0.1171875,0.1171875 0.1054687,0 0.1171875,-0.058594 0.140625,-0.2460937 L 7.4535078,-6.5046875 C 7.4769453,-6.7742187 7.4300703,-6.7742187 7.1839766,-6.7742187 H 2.2972578 c -0.1992187,0 -0.2929687,0 -0.2929687,0.1992187 0,0.1054688 0.09375,0.1054688 0.28125,0.1054688 0.3632812,0 0.6445312,0 0.6445312,0.1875 0,0.035156 0,0.058594 -0.046875,0.234375 l -1.3242187,5.27343745 c -0.09375,0.38671875 -0.1171875,0.46875 -0.90234379,0.46875 -0.1640625,0 -0.28125,0 -0.28125,0.1875 0,0.1171875 0.12890625,0.1171875 0.15234375,0.1171875 0.29296875,0 1.03125004,-0.03515625 1.31250004,-0.03515625 0.328125,0 1.1601562,0.03515625 1.4882812,0.03515625 0.09375,0 0.2109375,0 0.2109375,-0.1875 0,-0.0820313 -0.058594,-0.10546875 -0.058594,-0.1171875 -0.035156,0 -0.058594,0 -0.28125,0 -0.2226563,0 -0.2695313,0 -0.515625,-0.0234375 -0.2929688,-0.0351563 -0.328125,-0.0703125 -0.328125,-0.19921875 0,-0.0234375 0,-0.0820313 0.046875,-0.234375 z m 0,0"
         style="fill:#a6a6a6;fill-opacity:1;fill-rule:nonzero;stroke:none" />
      <path
         id="path41"
         d="m 11.130266,-2.1541016 c 0.140625,-0.140625 0.28125,-0.2695312 0.433593,-0.375 0.28125,-0.1875 0.539063,-0.1992187 0.632813,-0.2109375 0.07031,-0.011719 0.164062,-0.011719 0.164062,-0.1523437 0,-0.046875 -0.04687,-0.09375 -0.105468,-0.09375 -0.175782,0 -0.386719,0.023437 -0.5625,0.023437 -0.222657,0 -0.515625,-0.023437 -0.726563,-0.023437 -0.03516,0 -0.140625,0 -0.140625,0.1523437 0,0.082031 0.09375,0.09375 0.128906,0.09375 0.199219,0.011719 0.199219,0.09375 0.199219,0.1289063 0,0.070312 -0.03516,0.1171875 -0.09375,0.1875 -0.03516,0.058594 -0.07031,0.1054687 -0.117187,0.1523437 L 9.2083906,-0.45488281 8.2826094,-2.4939453 c -0.046875,-0.09375 -0.046875,-0.1171875 -0.046875,-0.1171875 0,-0.1289063 0.328125,-0.1289063 0.375,-0.1289063 0.09375,0 0.1757812,0 0.1757812,-0.1523437 0,-0.011719 0,-0.09375 -0.1054687,-0.09375 -0.2109375,0 -0.7265625,0.023437 -0.9375,0.023437 -0.1757813,0 -0.6210938,-0.023437 -0.796875,-0.023437 -0.046875,0 -0.1289063,0.011719 -0.1289063,0.1523437 0,0.09375 0.082031,0.09375 0.1875,0.09375 0.3984375,0 0.421875,0.058594 0.4921875,0.2109375 L 8.5872969,-0.13847656 8.2708906,1.1388672 c -0.09375,0.3515625 -0.09375,0.375 -0.6445312,0.3867187 -0.1171875,0 -0.2109375,0 -0.2109375,0.140625 0,0.070312 0.046875,0.1054688 0.1171875,0.1054688 0.1289062,0 0.2929687,-0.023437 0.4335937,-0.023437 0.1289063,0 0.328125,0 0.4570313,0 0.140625,0 0.3046875,0 0.4453125,0 0.1523437,0 0.3164062,0.023437 0.46875,0.023437 0.035156,0 0.1523437,0 0.1523437,-0.1523438 0,-0.09375 -0.082031,-0.09375 -0.234375,-0.09375 -0.1171875,0 -0.140625,0 -0.2695312,-0.023437 -0.1289063,-0.011719 -0.1523438,-0.023437 -0.1523438,-0.09375 0,-0.046875 0.082031,-0.375 0.1289063,-0.56249996 0.058594,-0.22265625 0.2109375,-0.83203125 0.2226562,-0.85546875 0.023437,-0.10546875 0.023437,-0.1171875 0.09375,-0.1875 z m 0,0"
         style="fill:#a6a6a6;fill-opacity:1;fill-rule:nonzero;stroke:none" />
      <path
         id="path42"
         d="m 14.786516,-3.3845703 c 0,-0.1523438 -0.01172,-0.1523438 -0.175782,-0.1523438 -0.351562,0.3164063 -0.902343,0.3164063 -1.007812,0.3164063 h -0.08203 v 0.2226562 h 0.08203 c 0.117187,0 0.433594,-0.011719 0.726562,-0.140625 v 2.48437504 c 0,0.1640625 0,0.2109375 -0.527343,0.2109375 h -0.246094 v 0.22265625 c 0.269531,-0.0234375 0.714844,-0.0234375 1.007812,-0.0234375 0.28125,0 0.726563,0 0.996094,0.0234375 v -0.22265625 h -0.246094 c -0.527343,0 -0.527343,-0.046875 -0.527343,-0.2109375 z m 0,0"
         style="fill:#a6a6a6;fill-opacity:1;fill-rule:nonzero;stroke:none" />
    </g>
  </g>
</svg>
