<?xml version="1.0" encoding="UTF-8" standalone="no"?>
<!-- Created with Inkscape (http://www.inkscape.org/) -->

<svg
   version="1.1"
   id="svg1"
   width="421.94934"
   height="262.776"
   viewBox="0 0 421.94934 262.776"
   xmlns="http://www.w3.org/2000/svg"
   xmlns:svg="http://www.w3.org/2000/svg">
  <defs
     id="defs1">
    <clipPath
       clipPathUnits="userSpaceOnUse"
       id="clipPath21">
      <path
         d="M -4.5160001,148.435 H 290.8098 V -33.505611 H -4.5160001 Z"
         id="path21" />
    </clipPath>
    <clipPath
       clipPathUnits="userSpaceOnUse"
       id="clipPath25">
      <path
         d="M -2.5000001e-7,0 H 295.3258 V 181.94061 H -2.5000001e-7 Z"
         id="path25" />
    </clipPath>
    <clipPath
       clipPathUnits="userSpaceOnUse"
       id="clipPath30">
      <path
         d="M 34.259001,7.8339977 H 329.5848 V -174.10662 H 34.259001 Z"
         id="path30" />
    </clipPath>
  </defs>
  <g
     id="g1">
    <path
       id="path1"
       d="m 73.83144,-2.12622 v 4.25244 m 73.83145,-4.25244 v 4.25244 m 73.83145,-4.25244 v 4.25244"
       style="fill:none;stroke:#808080;stroke-width:0.19925;stroke-linecap:butt;stroke-linejoin:miter;stroke-miterlimit:10;stroke-dasharray:none;stroke-opacity:1"
       transform="matrix(1.3333333,0,0,-1.3333333,27.654667,243.116)" />
    <path
       id="path2"
       d="m -2.12602,82.70027 h 4.25204 m -4.25204,82.70029 h 4.25204"
       style="fill:none;stroke:#808080;stroke-width:0.19925;stroke-linecap:butt;stroke-linejoin:miter;stroke-miterlimit:10;stroke-dasharray:none;stroke-opacity:1"
       transform="matrix(1.3333333,0,0,-1.3333333,27.654667,243.116)" />
    <path
       id="path3"
       d="M 0,0 H 292.73552"
       style="fill:none;stroke:#a6a6a6;stroke-width:0.79701;stroke-linecap:butt;stroke-linejoin:miter;stroke-miterlimit:10;stroke-dasharray:none;stroke-opacity:1"
       transform="matrix(1.3333333,0,0,-1.3333333,27.654667,243.116)" />
    <path
       id="path4"
       d="M 2.59026,0 -1.55415,2.0722 0,0 -1.55415,-2.0722"
       style="fill:#a6a6a6;fill-opacity:1;fill-rule:nonzero;stroke:none"
       transform="matrix(1.3333333,0,0,-1.3333333,417.96869,243.116)" />
    <path
       id="path5"
       d="M 0,0 V 179.35034"
       style="fill:none;stroke:#a6a6a6;stroke-width:0.79701;stroke-linecap:butt;stroke-linejoin:miter;stroke-miterlimit:10;stroke-dasharray:none;stroke-opacity:1"
       transform="matrix(1.3333333,0,0,-1.3333333,27.654667,243.116)" />
    <path
       id="path6"
       d="M 2.59026,0 -1.55415,2.0722 0,0 -1.55415,-2.0722"
       style="fill:#a6a6a6;fill-opacity:1;fill-rule:nonzero;stroke:none"
       transform="matrix(0,-1.3333333,-1.3333333,0,27.654667,3.9822133)" />
    <path
       id="path7"
       d="m 2.7300469,-5.7307266 c 0,-0.2226562 -0.011719,-0.234375 -0.234375,-0.234375 -0.5625,0.5625 -1.3828125,0.5625 -1.66406253,0.5625 v 0.28125 c 0.17578123,0 0.71484373,0 1.20703123,-0.234375 v 4.64062504 c 0,0.328125 -0.035156,0.43359375 -0.8671875,0.43359375 H 0.89020312 V -2.578125e-4 C 1.2066094,-0.02369531 2.0034844,-0.02369531 2.3784844,-0.02369531 c 0.3632812,0 1.171875,0 1.4882812,0.0234374975 V -0.28150781 h -0.28125 c -0.8320312,0 -0.8554687,-0.10546875 -0.8554687,-0.43359375 z m 0,0"
       style="fill:#a6a6a6;fill-opacity:1;fill-rule:nonzero;stroke:none"
       aria-label="1"
       transform="matrix(1.3333333,0,0,1.3333333,123.024,258.348)" />
    <path
       id="path8"
       d="M 4.1363516,-1.5822891 H 3.8902578 c -0.023437,0.1171875 -0.09375,0.64453129 -0.2109375,0.78515629 -0.046875,0.0820313 -0.6679687,0.0820313 -0.84375,0.0820313 h -1.59375 L 2.1207266,-1.5588516 c 1.4765625,-1.2773437 2.015625,-1.7460937 2.015625,-2.6601562 0,-1.03125 -0.84375,-1.7460938 -1.9453125,-1.7460938 -1.03125,0 -1.73437504,0.8085938 -1.73437504,1.6289063 0,0.4453125 0.38671875,0.4921875 0.46875,0.4921875 0.19921874,0 0.46875004,-0.140625 0.46875004,-0.46875 0,-0.2695313 -0.1875,-0.46875 -0.46875004,-0.46875 -0.046875,0 -0.0703125,0 -0.10546875,0.011719 C 1.0308828,-5.4026013 1.6051016,-5.69557 2.0855703,-5.69557 c 0.9140625,0 1.2304688,0.8554687 1.2304688,1.4765625 0,0.9140625 -0.6914063,1.6523437 -1.125,2.1210937 l -1.64062504,1.76953129 c -0.09375,0.10546875 -0.09375,0.1171875 -0.09375,0.3281249975 H 3.8902578 Z m 0,0"
       style="fill:#a6a6a6;fill-opacity:1;fill-rule:nonzero;stroke:none"
       aria-label="2"
       transform="matrix(1.3333333,0,0,1.3333333,221.46533,258.348)" />
    <path
       id="path9"
       d="m 2.7311562,-3.1526016 c 0.8320313,-0.3164062 1.2304688,-0.9726562 1.2304688,-1.59375 0,-0.6914062 -0.7617188,-1.21875 -1.6875,-1.21875 -0.9375,0 -1.640625,0.5273438 -1.640625,1.2070313 0,0.2929687 0.19921875,0.46875 0.4570312,0.46875 0.2695313,0 0.4570313,-0.1875 0.4570313,-0.4570313 0,-0.3046875 -0.2226563,-0.4453125 -0.5273438,-0.4453125 0.234375,-0.375 0.7851563,-0.5507812 1.21875,-0.5507812 0.75,0 0.890625,0.5859375 0.890625,1.0078125 0,0.2695312 -0.058594,0.703125 -0.28125,1.0429687 -0.2695312,0.3984375 -0.5859375,0.421875 -0.84375,0.4335938 -0.234375,0.023437 -0.2460937,0.023437 -0.3164062,0.023437 -0.082031,0.011719 -0.1523438,0.011719 -0.1523438,0.1171875 0,0.1171875 0.070312,0.1171875 0.2226563,0.1171875 h 0.421875 c 0.7734375,0 1.125,0.6210937 1.125,1.4765625 0,1.14843749 -0.6210938,1.46484374 -1.078125,1.46484374 -0.1640625,0 -1.03125,-0.03515625 -1.44140625,-0.703125 0.32812495,0.046875 0.57421875,-0.17578125 0.57421875,-0.48046874 0,-0.3046875 -0.2226563,-0.4921875 -0.48046875,-0.4921875 -0.22265625,0 -0.4921875,0.140625 -0.4921875,0.515625 0,0.79687499 0.83203125,1.41796874 1.87499995,1.41796874 1.1132813,0 1.9570313,-0.80859375 1.9570313,-1.72265624 0,-0.7851563 -0.6210938,-1.4414063 -1.4882813,-1.6289058 z m 0,0"
       style="fill:#a6a6a6;fill-opacity:1;fill-rule:nonzero;stroke:none"
       aria-label="3"
       transform="matrix(1.3333333,0,0,1.3333333,319.90533,258.348)" />
    <g
       id="g9"
       aria-label="0.5"
       transform="matrix(1.3333333,0,0,1.3333333,4.4266667,136.70267)">
      <path
         id="path10"
         d="m 4.2415234,-2.87075 c 0,-0.5976563 -0.023437,-1.3710938 -0.3398437,-2.0390625 -0.3984375,-0.84375 -1.078125,-1.0546875 -1.59375,-1.0546875 -0.5390625,0 -1.21875,0.2109375 -1.61718751,1.0664062 -0.29296875,0.6210938 -0.328125,1.3476563 -0.328125,2.0273438 0,0.5859375 0.0117188,1.453125 0.3984375,2.16796875 C 1.1829297,0.0589375 1.8860547,0.1995625 2.2962109,0.1995625 c 0.5859375,0 1.2421875,-0.2578125 1.6171875,-1.078125 0.2695313,-0.5976563 0.328125,-1.2773438 0.328125,-1.9921875 z m -1.9335937,2.84765625 c -0.2695313,0 -0.9140625,-0.12890625 -1.0898438,-1.13671875 -0.09375,-0.5390625 -0.09375,-1.3007813 -0.09375,-1.8164063 0,-0.609375 0,-1.3125 0.1171875,-1.8164062 0.1757813,-0.796875 0.75,-0.9492188 1.0546875,-0.9492188 0.3398438,0 0.9023438,0.1757813 1.078125,1.0078125 0.09375,0.4921875 0.09375,1.1953125 0.09375,1.7578125 0,0.5507813 0,1.3125 -0.09375,1.8398438 -0.1875,1.01953125 -0.84375,1.11328125 -1.0664062,1.11328125 z m 0,0"
         style="fill:#a6a6a6;fill-opacity:1;fill-rule:nonzero;stroke:none" />
      <path
         id="path11"
         d="m 6.3655469,-0.480125 c 0,-0.2578125 -0.2109375,-0.4921875 -0.4804688,-0.4921875 -0.28125,0 -0.4921875,0.234375 -0.4921875,0.4921875 0,0.2578125 0.2109375,0.48046875 0.4921875,0.48046875 0.2695313,0 0.4804688,-0.22265625 0.4804688,-0.48046875 z m 0,0"
         style="fill:#a6a6a6;fill-opacity:1;fill-rule:nonzero;stroke:none" />
      <path
         id="path12"
         d="m 8.1057813,-3.0934063 c 0,0.1640625 0,0.2578125 0.1171875,0.2578125 0.070312,0 0.1054687,-0.035156 0.1523437,-0.1171875 0.2695313,-0.375 0.703125,-0.5859375 1.171875,-0.5859375 0.9609375,0 0.9609375,1.3828125 0.9609375,1.6992188 0,0.28125 0,0.8320312 -0.257812,1.2421875 -0.234375,0.375 -0.6210942,0.5390625 -0.960938,0.5390625 -0.5390625,0 -1.1367187,-0.328125 -1.3476562,-0.9960938 0.011719,0 0.058594,0.023437 0.1171875,0.023437 0.1875,0 0.4453125,-0.1171875 0.4453125,-0.4335937 0,-0.28125 -0.1992188,-0.4453125 -0.4453125,-0.4453125 -0.1875,0 -0.4335938,0.1054687 -0.4335938,0.46875 0,0.80859375 0.6796875,1.640625 1.6757813,1.640625 1.0898442,0 2.0039062,-0.87890625 2.0039062,-1.9921875 0,-1.0898438 -0.761719,-1.96875 -1.7460937,-1.96875 -0.421875,0 -0.8671875,0.140625 -1.1835938,0.4570312 v -1.7578125 c 0.2695313,0.082031 0.5507813,0.1171875 0.8320313,0.1171875 1.1015622,0 1.7460942,-0.796875 1.7460942,-0.9140625 0,-0.070312 -0.05859,-0.1054687 -0.105469,-0.1054687 -0.01172,0 -0.03516,0 -0.117188,0.035156 C 10.320625,-5.7535625 9.89875,-5.68325 9.52375,-5.68325 9.1370313,-5.68325 8.7385938,-5.753562 8.3284375,-5.9293438 8.2346875,-5.9645 8.2229688,-5.9645 8.21125,-5.9645 c -0.1054687,0 -0.1054687,0.082031 -0.1054687,0.234375 z m 0,0"
         style="fill:#a6a6a6;fill-opacity:1;fill-rule:nonzero;stroke:none" />
    </g>
    <path
       id="path13"
       d="m 2.73075,-5.7303438 c 0,-0.2226562 -0.011719,-0.234375 -0.234375,-0.234375 -0.5625,0.5625 -1.3828125,0.5625 -1.6640625,0.5625 v 0.28125 c 0.1757813,0 0.7148438,0 1.2070313,-0.234375 v 4.64062505 c 0,0.328125 -0.035156,0.43359375 -0.8671875,0.43359375 H 0.89090625 V 1.25e-4 C 1.2073125,-0.0233125 2.0041875,-0.0233125 2.3791875,-0.0233125 c 0.3632813,0 1.171875,0 1.4882813,0.0234375 v -0.28125 h -0.28125 c -0.8320313,0 -0.8554688,-0.10546875 -0.8554688,-0.43359375 z m 0,0"
       style="fill:#a6a6a6;fill-opacity:1;fill-rule:nonzero;stroke:none"
       aria-label="1"
       transform="matrix(1.3333333,0,0,1.3333333,13.984,26.437333)" />
    <path
       id="path14"
       d="m 0,0 c 0,0 26.67174,8.5079 36.91571,16.54005 10.24399,8.03214 26.67175,27.58074 36.91573,41.35015 10.24397,13.76939 26.67175,45.26823 36.91572,57.8902 10.24397,12.62194 26.67175,27.11335 36.91573,33.0801 10.24397,5.96674 16.42778,7.62914 36.91572,9.92403 20.48795,2.29489 110.74718,6.61603 110.74718,6.61603"
       style="fill:none;stroke:#a6a6a6;stroke-width:0.79701;stroke-linecap:butt;stroke-linejoin:miter;stroke-miterlimit:10;stroke-dasharray:none;stroke-opacity:1"
       transform="matrix(1.3333333,0,0,-1.3333333,27.654667,243.116)" />
    <path
       id="path15"
       d="m 0,0 h 36.91571 l 36.91573,16.54005 73.83145,46.31215 25.841,19.84807 47.99045,57.8902 36.91572,18.19406 36.91573,6.61603"
       style="fill:none;stroke:#a6a6a6;stroke-width:0.79701;stroke-linecap:butt;stroke-linejoin:miter;stroke-miterlimit:10;stroke-dasharray:2.98883, 2.98883;stroke-dashoffset:0;stroke-opacity:1"
       transform="matrix(1.3333333,0,0,-1.3333333,27.654667,243.116)" />
    <path
       id="path16"
       d="m 0,140.59047 h 221.49434 v 20.67508 H 0"
       style="fill:none;stroke:#a6a6a6;stroke-width:0.3985;stroke-linecap:butt;stroke-linejoin:miter;stroke-miterlimit:10;stroke-dasharray:2.98883, 2.98883;stroke-dashoffset:0;stroke-opacity:1"
       transform="matrix(1.3333333,0,0,-1.3333333,27.654667,243.116)" />
    <path
       id="path17"
       d="M 221.49434,0 V 140.59047"
       style="fill:none;stroke:#a6a6a6;stroke-width:0.3985;stroke-linecap:butt;stroke-linejoin:miter;stroke-miterlimit:10;stroke-dasharray:2.98883, 2.98883;stroke-dashoffset:0;stroke-opacity:1"
       transform="matrix(1.3333333,0,0,-1.3333333,27.654667,243.116)" />
    <path
       id="path18"
       d="m 2.98883,140.59047 c 0.74721,0.3736 1.24535,1.24535 1.24535,2.49069 v 5.35614 c 0,1.24535 0.49812,2.11711 1.24534,2.4907 -0.74722,0.37359 -1.24534,1.24534 -1.24534,2.49069 v 5.35617 c 0,1.24534 -0.49814,2.11709 -1.24535,2.49069"
       style="fill:none;stroke:#a6a6a6;stroke-width:0.3985;stroke-linecap:butt;stroke-linejoin:miter;stroke-miterlimit:10;stroke-dasharray:none;stroke-opacity:1"
       transform="matrix(1.3333333,0,0,-1.3333333,27.654667,243.116)" />
    <g
       id="g18"
       aria-label="DTE(3)"
       transform="matrix(1.3333333,0,0,1.3333333,33.676,45.202667)"
       clip-path="url(#clipPath21)">
      <path
         id="path19"
         d="m 1.5818672,-0.77309375 c -0.09375,0.38671875 -0.1171875,0.46875 -0.90234376,0.46875 -0.17578125,0 -0.28125,0 -0.28125,0.1875 0,0.1171875 0.09375,0.1171875 0.28125,0.1171875 H 3.9724922 c 2.0742187,0 4.03125,-2.09765625 4.03125,-4.28906255 0,-1.3945312 -0.84375,-2.5195312 -2.3320313,-2.5195312 H 2.3201484 c -0.1875,0 -0.2929687,0 -0.2929687,0.1992187 0,0.1171875 0.082031,0.1171875 0.28125,0.1171875 0.1289062,0 0.3164062,0.011719 0.4335937,0.011719 0.1523438,0.023437 0.2109375,0.058594 0.2109375,0.1640625 0,0.035156 0,0.070312 -0.035156,0.1875 z m 2.15625,-5.34375005 c 0.082031,-0.3515625 0.1054687,-0.375 0.5390625,-0.375 h 1.0664062 c 0.9726563,0 1.7929688,0.5273438 1.7929688,1.8398438 0,0.4921875 -0.1992188,2.1210937 -1.0429688,3.2226562 -0.28125,0.3632813 -1.078125,1.12500005 -2.296875,1.12500005 h -1.125 c -0.140625,0 -0.1640625,0 -0.2226562,-0.0117188 -0.09375,-0.0117188 -0.1289063,-0.0234375 -0.1289063,-0.10546875 0,-0.0234375 0,-0.046875 0.046875,-0.22265625 z m 9.0439458,0.070312 c 0.07031,-0.28125 0.105468,-0.3398437 0.234375,-0.3632812 0.08203,-0.023437 0.410156,-0.023437 0.621093,-0.023437 1.007813,0 1.453125,0.035156 1.453125,0.8203125 0,0.140625 -0.03516,0.5273437 -0.08203,0.796875 0,0.035156 -0.02344,0.1523437 -0.02344,0.1875 0,0.058594 0.02344,0.1289062 0.117187,0.1289062 0.105469,0 0.128906,-0.082031 0.152344,-0.234375 l 0.269531,-1.734375 c 0.01172,-0.035156 0.01172,-0.140625 0.01172,-0.1640625 0,-0.1054687 -0.09375,-0.1054687 -0.269531,-0.1054687 H 9.7469063 c -0.2460938,0 -0.2578125,0 -0.3164063,0.1992187 L 8.8328438,-4.792625 c -0.011719,0.023437 -0.070312,0.1640625 -0.070312,0.1757812 0,0.070312 0.058594,0.1171875 0.1289062,0.1171875 0.09375,0 0.1054688,-0.046875 0.1640625,-0.2109375 C 9.594563,-6.2574688 9.8523755,-6.43325 11.328939,-6.43325 h 0.386718 c 0.28125,0 0.28125,0.035156 0.28125,0.1171875 0,0.058594 -0.03516,0.1757812 -0.04687,0.2109375 l -1.324219,5.3203125 c -0.09375,0.36328125 -0.128906,0.48046875 -1.1953125,0.48046875 -0.3515625,0 -0.4101562,0 -0.4101562,0.1875 0,0.1171875 0.1054687,0.1171875 0.1640625,0.1171875 0.2695312,0 0.5507812,-0.0234375 0.8203132,-0.0234375 0.28125,0 0.5625,-0.01171875 0.84375,-0.01171875 0.28125,0 0.5625,0.01171875 0.832031,0.01171875 0.28125,0 0.585938,0.0234375 0.867188,0.0234375 0.09375,0 0.210937,0 0.210937,-0.19921875 0,-0.10546875 -0.08203,-0.10546875 -0.339844,-0.10546875 -0.246093,0 -0.375,0 -0.632812,-0.0234375 C 11.493,-0.3629375 11.422688,-0.386375 11.422688,-0.5504375 c 0,-0.0117188 0,-0.0585938 0.03516,-0.2109375 z m 10.007812,3.7265625 c 0.02344,-0.046875 0.04687,-0.1171875 0.04687,-0.140625 0,-0.011719 0,-0.1054687 -0.117187,-0.1054687 -0.09375,0 -0.105469,0.058594 -0.128907,0.1171875 -0.644531,1.4765625 -1.019531,2.14453125 -2.71875,2.14453125 h -1.453125 c -0.140625,0 -0.164062,0 -0.222656,-0.0117188 -0.105469,-0.0117188 -0.128906,-0.0234375 -0.128906,-0.10546875 0,-0.0234375 0,-0.046875 0.04687,-0.22265625 L 18.793771,-3.362938 h 0.984375 c 0.84375,0 0.84375,0.2109375 0.84375,0.4570312 0,0.070312 0,0.1875 -0.07031,0.4804688 -0.01172,0.058594 -0.02344,0.082031 -0.02344,0.1171875 0,0.046875 0.03516,0.1054687 0.128907,0.1054687 0.08203,0 0.105468,-0.046875 0.152343,-0.1992187 l 0.5625,-2.3320313 c 0,-0.058594 -0.04687,-0.1054687 -0.117187,-0.1054687 -0.09375,0 -0.105469,0.058594 -0.140625,0.1757812 -0.210938,0.7617188 -0.386719,0.984375 -1.300781,0.984375 h -0.9375 l 0.597656,-2.4023437 c 0.08203,-0.3398438 0.09375,-0.3867188 0.539062,-0.3867188 h 1.40625 c 1.207032,0 1.511719,0.2929688 1.511719,1.1132813 0,0.234375 0,0.2578125 -0.04687,0.5273437 0,0.058594 -0.01172,0.1289063 -0.01172,0.1757813 0,0.046875 0.03516,0.1171875 0.128907,0.1171875 0.105468,0 0.117187,-0.058594 0.140625,-0.2460938 L 23.34065,-6.503563 c 0.02344,-0.2695313 -0.02344,-0.2695313 -0.269531,-0.2695313 h -5.039062 c -0.199219,0 -0.292969,0 -0.292969,0.1992188 0,0.1054687 0.09375,0.1054687 0.28125,0.1054687 0.363281,0 0.644531,0 0.644531,0.1875 0,0.035156 0,0.058594 -0.04687,0.234375 l -1.324219,5.2734375 c -0.09375,0.38671875 -0.117187,0.46875 -0.902343,0.46875 -0.164063,0 -0.28125,0 -0.28125,0.1875 0,0.1171875 0.09375,0.1171875 0.28125,0.1171875 h 5.167968 c 0.234375,0 0.246094,-0.01171875 0.316407,-0.1640625 z m 0,0"
         style="fill:#a6a6a6;fill-opacity:1;fill-rule:nonzero;stroke:none" />
      <path
         id="path20"
         d="m 26.950031,2.3909687 c 0,-0.035156 0,-0.046875 -0.164062,-0.2226562 -1.242188,-1.25390625 -1.570313,-3.12890625 -1.570313,-4.6640625 0,-1.7226563 0.386719,-3.4570313 1.605469,-4.7109375 0.128906,-0.1171875 0.128906,-0.1289063 0.128906,-0.1640625 0,-0.070312 -0.03516,-0.1054688 -0.09375,-0.1054688 -0.105468,0 -0.996093,0.6796875 -1.582031,1.9453125 -0.515625,1.1015625 -0.632812,2.203125 -0.632812,3.0351563 0,0.7851562 0.117187,1.9921875 0.65625,3.1171875 0.597656,1.21875 1.453125,1.875 1.558593,1.875 0.05859,0 0.09375,-0.035156 0.09375,-0.1054688 z m 3.47461,-5.8945312 c 0.808593,-0.2695313 1.394531,-0.9726563 1.394531,-1.7578125 0,-0.8203125 -0.878906,-1.3710938 -1.839844,-1.3710938 -1.007812,0 -1.757812,0.5976563 -1.757812,1.3476563 0,0.3398437 0.210937,0.5273437 0.503906,0.5273437 0.304687,0 0.503906,-0.2226562 0.503906,-0.515625 0,-0.4921875 -0.46875,-0.4921875 -0.609375,-0.4921875 0.304688,-0.4921875 0.960938,-0.6210937 1.324219,-0.6210937 0.410156,0 0.949219,0.2226562 0.949219,1.1132812 0,0.1289063 -0.01172,0.703125 -0.269532,1.1367188 -0.304687,0.4804687 -0.644531,0.515625 -0.890625,0.515625 -0.08203,0.011719 -0.316406,0.035156 -0.386718,0.035156 -0.08203,0.011719 -0.152344,0.023437 -0.152344,0.1171875 0,0.1171875 0.07031,0.1171875 0.234375,0.1171875 h 0.445312 c 0.808594,0 1.183594,0.6679688 1.183594,1.6523438 0,1.34765625 -0.691406,1.640625 -1.125,1.640625 -0.433594,0 -1.171875,-0.17578125 -1.523437,-0.76171875 0.351562,0.0585938 0.65625,-0.1640625 0.65625,-0.53906255 0,-0.3632812 -0.269532,-0.5625 -0.5625,-0.5625 -0.234375,0 -0.550782,0.140625 -0.550782,0.5742188 0,0.9140625 0.925782,1.5703125 2.003907,1.5703125 1.21875,0 2.121093,-0.9140625 2.121093,-1.921875 0,-0.8203125 -0.621093,-1.59375 -1.652343,-1.8046873 z m 4.96875,1.0078125 c 0,-0.7734375 -0.117188,-1.9804688 -0.65625,-3.1054688 -0.597657,-1.21875 -1.464844,-1.875 -1.558594,-1.875 -0.05859,0 -0.105469,0.046875 -0.105469,0.1054688 0,0.035156 0,0.046875 0.199219,0.234375 0.972656,0.984375 1.535156,2.5664062 1.535156,4.640625 0,1.7109375 -0.363281,3.45703125 -1.59375,4.7226562 -0.140625,0.1171875 -0.140625,0.1289063 -0.140625,0.1640625 0,0.058594 0.04687,0.1054688 0.105469,0.1054688 0.09375,0 0.996094,-0.6796875 1.582031,-1.9453125 0.503906,-1.1015625 0.632813,-2.203125 0.632813,-3.046875 z m 0,0"
         style="fill:#a6a6a6;fill-opacity:1;fill-rule:nonzero;stroke:none" />
    </g>
    <path
       id="path22"
       d="m 90.81267,0 v 82.70027 h 82.69122 V 0"
       style="fill:none;stroke:#a6a6a6;stroke-width:0.3985;stroke-linecap:butt;stroke-linejoin:miter;stroke-miterlimit:10;stroke-dasharray:2.98883, 2.98883;stroke-dashoffset:0;stroke-opacity:1"
       transform="matrix(1.3333333,0,0,-1.3333333,27.654667,243.116)" />
    <path
       id="path23"
       d="M 0,82.70027 H 90.81267"
       style="fill:none;stroke:#a6a6a6;stroke-width:0.3985;stroke-linecap:butt;stroke-linejoin:miter;stroke-miterlimit:10;stroke-dasharray:2.98883, 2.98883;stroke-dashoffset:0;stroke-opacity:1"
       transform="matrix(1.3333333,0,0,-1.3333333,27.654667,243.116)" />
    <path
       id="path24"
       d="M 3.88625,1.0136 C 4.40659,0.4713 4.66673,0.00636 4.49323,-0.20038 l -2e-5,-3e-5 C 4.31972,-0.40718 4.57985,-0.8721 5.1002,-1.41443 4.47577,-0.99612 3.97275,-0.82068 3.79922,-1.02745 l -1e-5,-3e-5 C 3.6257,-1.23425 3.12267,-1.05879 2.49825,-0.64052"
       style="fill:none;stroke:#a6a6a6;stroke-width:0.3985;stroke-linecap:butt;stroke-linejoin:miter;stroke-miterlimit:10;stroke-dasharray:none;stroke-opacity:1"
       transform="matrix(1.3333333,0,0,-1.3333333,27.654667,243.116)"
       clip-path="url(#clipPath25)" />
    <g
       id="g25"
       aria-label="QTE(0.5444444)"
       transform="matrix(1.3333333,0,0,1.3333333,-18.024,232.67067)"
       clip-path="url(#clipPath30)">
      <path
         id="path26"
         d="M 4.3597969,-0.0576875 C 5.9066719,-0.643625 7.3715156,-2.424875 7.3715156,-4.34675 c 0,-1.59375 -1.0546875,-2.671875 -2.5429687,-2.671875 -2.1445313,0 -4.33593752,2.2617187 -4.33593752,4.5820312 0,1.6523438 1.11328122,2.6601563 2.54296872,2.6601563 0.2578125,0 0.5859375,-0.046875 0.984375,-0.15234375 -0.046875,0.62109375 -0.046875,0.6328125 -0.046875,0.76171875 0,0.328125 0,1.1015625 0.8320313,1.1015625 1.1835937,0 1.6640625,-1.828125 1.6640625,-1.93359375 0,-0.0703125 -0.070312,-0.10546875 -0.1171875,-0.10546875 -0.070312,0 -0.09375,0.05859375 -0.1171875,0.1171875 -0.234375,0.703125 -0.8203125,0.94921875 -1.1601563,0.94921875 -0.4570312,0 -0.609375,-0.2578125 -0.7148437,-1.01953125 z m -1.875,-0.08203125 c -0.7851563,-0.3046875 -1.125,-1.08984375 -1.125,-1.98046875 0,-0.6914063 0.2695312,-2.0976563 1.0195312,-3.1757813 0.7265625,-1.0195312 1.6640625,-1.4765625 2.390625,-1.4765625 0.9960938,0 1.7226563,0.7734375 1.7226563,2.109375 0,0.9960938 -0.5039063,3.328125 -2.1796875,4.26562505 -0.046875,-0.3515625 -0.1523438,-1.07812505 -0.8789063,-1.07812505 -0.5273437,0 -1.0078125,0.5039063 -1.0078125,1.0195313 0,0.19921875 0.058594,0.3046875 0.058594,0.31640625 z M 3.0941719,-0.03425 c -0.140625,0 -0.4570313,0 -0.4570313,-0.421875 0,-0.3984375 0.3867188,-0.796875 0.796875,-0.796875 0.421875,0 0.609375,0.234375 0.609375,0.84375 0,0.15234375 -0.011719,0.1640625 -0.1054687,0.19921875 -0.2578125,0.10546875 -0.5625,0.17578125 -0.84375,0.17578125 z m 9.0351561,-6.0117188 c 0.07031,-0.28125 0.105469,-0.3398437 0.234375,-0.3632812 0.08203,-0.023437 0.410156,-0.023437 0.621094,-0.023437 1.007812,0 1.453125,0.035156 1.453125,0.8203125 0,0.140625 -0.03516,0.5273437 -0.08203,0.796875 0,0.035156 -0.02344,0.1523437 -0.02344,0.1875 0,0.058594 0.02344,0.1289062 0.117188,0.1289062 0.105468,0 0.128906,-0.082031 0.152343,-0.234375 l 0.269532,-1.734375 c 0.01172,-0.035156 0.01172,-0.140625 0.01172,-0.1640625 0,-0.1054687 -0.09375,-0.1054687 -0.269531,-0.1054687 H 9.0941719 c -0.2460938,0 -0.2578125,0 -0.3164063,0.1992187 L 8.1801094,-4.792062 c -0.011719,0.023437 -0.070312,0.1640625 -0.070312,0.1757812 0,0.070312 0.058594,0.1171875 0.1289062,0.1171875 0.09375,0 0.1054688,-0.046875 0.1640625,-0.2109375 0.5390625,-1.546875 0.796875,-1.7226562 2.2734379,-1.7226562 h 0.386718 c 0.28125,0 0.28125,0.035156 0.28125,0.1171875 0,0.058594 -0.03516,0.1757812 -0.04687,0.2109375 L 9.9730781,-0.78425 c -0.09375,0.36328125 -0.1289062,0.48046875 -1.1953125,0.48046875 -0.3515625,0 -0.4101562,0 -0.4101562,0.1875 0,0.1171875 0.1054687,0.1171875 0.1640625,0.1171875 0.2695312,0 0.5507812,-0.0234375 0.8203125,-0.0234375 0.28125,0 0.5625,-0.01171875 0.8437496,-0.01171875 0.28125,0 0.5625,0.01171875 0.832032,0.01171875 0.28125,0 0.585937,0.0234375 0.867187,0.0234375 0.09375,0 0.210938,0 0.210938,-0.19921875 0,-0.10546875 -0.08203,-0.10546875 -0.339844,-0.10546875 -0.246094,0 -0.375,0 -0.632813,-0.0234375 -0.292968,-0.0351563 -0.363281,-0.0585938 -0.363281,-0.22265625 0,-0.0117188 0,-0.0585938 0.03516,-0.2109375 z m 10.007813,3.7265625 c 0.02344,-0.046875 0.04687,-0.1171875 0.04687,-0.140625 0,-0.011719 0,-0.1054687 -0.117188,-0.1054687 -0.09375,0 -0.105469,0.058594 -0.128906,0.1171875 -0.644531,1.4765625 -1.019531,2.14453125 -2.71875,2.14453125 h -1.453125 c -0.140625,0 -0.164063,0 -0.222656,-0.0117188 -0.105469,-0.0117188 -0.128907,-0.0234375 -0.128907,-0.10546875 0,-0.0234375 0,-0.046875 0.04687,-0.22265625 L 18.141037,-3.362375 h 0.984375 c 0.84375,0 0.84375,0.2109375 0.84375,0.4570311 0,0.070312 0,0.1875 -0.07031,0.4804689 -0.01172,0.058594 -0.02344,0.082031 -0.02344,0.1171875 0,0.046875 0.03516,0.1054686 0.128906,0.1054686 0.08203,0 0.105469,-0.046875 0.152344,-0.1992186 l 0.5625,-2.3320313 c 0,-0.058594 -0.04687,-0.1054687 -0.117188,-0.1054687 -0.09375,0 -0.105468,0.058594 -0.140625,0.1757812 -0.210937,0.7617188 -0.386718,0.984375 -1.300781,0.984375 h -0.9375 l 0.597656,-2.4023437 c 0.08203,-0.3398438 0.09375,-0.3867188 0.539063,-0.3867188 h 1.40625 c 1.207031,0 1.511719,0.2929688 1.511719,1.1132813 0,0.234375 0,0.2578125 -0.04687,0.5273437 0,0.058594 -0.01172,0.1289063 -0.01172,0.1757813 0,0.046875 0.03516,0.1171875 0.128906,0.1171875 0.105469,0 0.117188,-0.058594 0.140625,-0.2460938 L 22.687922,-6.503 c 0.02344,-0.2695313 -0.02344,-0.2695313 -0.269531,-0.2695313 h -5.039063 c -0.199219,0 -0.292969,0 -0.292969,0.1992188 0,0.1054687 0.09375,0.1054687 0.28125,0.1054687 0.363282,0 0.644532,0 0.644532,0.1875 0,0.035156 0,0.058594 -0.04687,0.234375 l -1.324219,5.27343755 c -0.09375,0.38671875 -0.117188,0.46875 -0.902344,0.46875 -0.164062,0 -0.28125,0 -0.28125,0.1875 0,0.1171875 0.09375,0.1171875 0.28125,0.1171875 h 5.167969 c 0.234375,0 0.246094,-0.01171875 0.316406,-0.1640625 z m 0,0"
         style="fill:#a6a6a6;fill-opacity:1;fill-rule:nonzero;stroke:none" />
      <path
         id="path27"
         d="m 26.297297,2.3915312 c 0,-0.035156 0,-0.046875 -0.164063,-0.2226562 -1.242187,-1.25390625 -1.570312,-3.12890625 -1.570312,-4.6640625 0,-1.7226563 0.386719,-3.4570313 1.605469,-4.7109375 0.128906,-0.1171875 0.128906,-0.1289063 0.128906,-0.1640625 0,-0.070312 -0.03516,-0.1054688 -0.09375,-0.1054688 -0.105469,0 -0.996094,0.6796875 -1.582031,1.9453125 -0.515625,1.1015625 -0.632813,2.203125 -0.632813,3.0351563 0,0.7851562 0.117188,1.9921875 0.65625,3.1171875 0.597656,1.21875 1.453125,1.875 1.558594,1.875 0.05859,0 0.09375,-0.035156 0.09375,-0.1054688 z m 5.165039,-5.578125 c 0,-0.796875 -0.04687,-1.59375 -0.398438,-2.3320312 -0.457031,-0.9609375 -1.277343,-1.1132813 -1.6875,-1.1132813 -0.597656,0 -1.335937,0.2578125 -1.734375,1.1835938 -0.328125,0.6914062 -0.375,1.4648437 -0.375,2.2617187 0,0.75 0.04687,1.640625 0.445313,2.4023438 0.433594,0.80859375 1.160156,1.0078125 1.652344,1.0078125 0.539062,0 1.289062,-0.2109375 1.734375,-1.16015625 C 31.415461,-1.628 31.462336,-2.4014375 31.462336,-3.1865938 Z M 29.36468,9.0625e-4 c -0.386719,0 -0.984375,-0.24609375 -1.160157,-1.20703125 -0.105468,-0.5976563 -0.105468,-1.5117188 -0.105468,-2.0976563 0,-0.6445312 0,-1.3007812 0.08203,-1.8398437 0.1875,-1.1835938 0.925781,-1.265625 1.183594,-1.265625 0.328125,0 0.984375,0.1757812 1.171875,1.1601562 0.09375,0.5625 0.09375,1.3125 0.09375,1.9453125 0,0.75 0,1.4179688 -0.105469,2.0625 -0.152344,0.93750005 -0.714844,1.24218755 -1.160156,1.24218755 z m 0,0"
         style="fill:#a6a6a6;fill-opacity:1;fill-rule:nonzero;stroke:none" />
      <path
         id="path28"
         d="m 33.77093,-0.5264375 c 0,-0.29296875 -0.234375,-0.5273438 -0.527344,-0.5273438 -0.28125,0 -0.527344,0.23437505 -0.527344,0.5273438 0,0.29296875 0.246094,0.52734375 0.527344,0.52734375 0.292969,0 0.527344,-0.234375 0.527344,-0.52734375 z m 0,0"
         style="fill:#a6a6a6;fill-opacity:1;fill-rule:nonzero;stroke:none" />
      <path
         id="path29"
         d="m 39.105891,-2.003 c 0,-1.1835938 -0.820313,-2.1796875 -1.898438,-2.1796875 -0.480469,0 -0.902344,0.1640625 -1.265625,0.5039062 V -5.612375 c 0.199219,0.058594 0.527344,0.1289062 0.84375,0.1289062 1.230469,0 1.933594,-0.9140625 1.933594,-1.0429687 0,-0.058594 -0.03516,-0.1054688 -0.105469,-0.1054688 -0.01172,0 -0.03516,0 -0.08203,0.023437 -0.199219,0.09375 -0.679688,0.2929688 -1.347656,0.2929688 -0.398438,0 -0.855469,-0.070312 -1.324219,-0.28125 -0.08203,-0.023437 -0.105469,-0.023437 -0.128906,-0.023437 -0.09375,0 -0.09375,0.082031 -0.09375,0.234375 v 2.953125 c 0,0.1757812 0,0.2578125 0.140625,0.2578125 0.07031,0 0.08203,-0.035156 0.128906,-0.09375 0.105469,-0.1523438 0.480469,-0.6914063 1.277344,-0.6914063 0.527343,0 0.773437,0.4570313 0.855468,0.6328125 0.152344,0.375 0.175782,0.7617188 0.175782,1.2539063 0,0.3515625 0,0.9492187 -0.234375,1.37109375 -0.246094,0.38671875 -0.609375,0.64453125 -1.066407,0.64453125 -0.726562,0 -1.300781,-0.52734375 -1.464843,-1.1132813 0.02344,0.011719 0.05859,0.011719 0.164062,0.011719 0.328125,0 0.503906,-0.2460938 0.503906,-0.4804688 0,-0.2460937 -0.175781,-0.4921875 -0.503906,-0.4921875 -0.140625,0 -0.480469,0.070312 -0.480469,0.5273438 0,0.85546875 0.679688,1.828125 1.792969,1.828125 1.160156,0 2.179688,-0.9609375 2.179688,-2.2265625 z m 3.433593,0.3632812 v 0.86718755 c 0,0.3515625 -0.02344,0.46875 -0.761718,0.46875 H 41.566828 V 9.0625e-4 C 41.976984,-0.03425 42.504328,-0.03425 42.914484,-0.03425 c 0.421875,0 0.949219,0 1.359375,0.03515625 v -0.3046875 h -0.210937 c -0.738281,0 -0.761719,-0.1171875 -0.761719,-0.46875 V -1.6397188 h 0.996094 V -1.956125 h -0.996094 v -4.5234375 c 0,-0.1992188 0,-0.2578125 -0.152344,-0.2578125 -0.09375,0 -0.117187,0 -0.199218,0.1171875 l -3.058594,4.6640625 v 0.3164062 z m 0.05859,-0.3164062 h -2.425781 l 2.425781,-3.7148438 z m 4.921875,0.3164062 v 0.86718755 c 0,0.3515625 -0.02344,0.46875 -0.761719,0.46875 H 46.547297 V 9.0625e-4 C 46.957453,-0.03425 47.484797,-0.03425 47.894953,-0.03425 c 0.421875,0 0.949219,0 1.359375,0.03515625 v -0.3046875 h -0.210937 c -0.738282,0 -0.761719,-0.1171875 -0.761719,-0.46875 V -1.6397188 h 0.996094 V -1.956125 h -0.996094 v -4.5234375 c 0,-0.1992188 0,-0.2578125 -0.152344,-0.2578125 -0.09375,0 -0.117187,0 -0.199219,0.1171875 l -3.058593,4.6640625 v 0.3164062 z m 0.05859,-0.3164062 h -2.425781 l 2.425781,-3.7148438 z m 4.924805,0.3164062 v 0.86718755 c 0,0.3515625 -0.02344,0.46875 -0.761719,0.46875 h -0.21093 V 9.0625e-4 C 51.940852,-0.03425 52.468195,-0.03425 52.878352,-0.03425 c 0.421875,0 0.949218,0 1.359375,0.03515625 v -0.3046875 h -0.210938 c -0.738281,0 -0.761719,-0.1171875 -0.761719,-0.46875 V -1.6397188 h 0.996094 V -1.956125 H 53.26507 v -4.5234375 c 0,-0.1992188 0,-0.2578125 -0.152343,-0.2578125 -0.09375,0 -0.117188,0 -0.199219,0.1171875 l -3.058594,4.6640625 v 0.3164062 z m 0.05859,-0.3164062 h -2.425781 l 2.425781,-3.7148438 z m 4.921875,0.3164062 v 0.86718755 c 0,0.3515625 -0.02344,0.46875 -0.761718,0.46875 H 56.511164 V 9.0625e-4 C 56.92132,-0.03425 57.448664,-0.03425 57.85882,-0.03425 c 0.421875,0 0.949219,0 1.359375,0.03515625 v -0.3046875 h -0.210937 c -0.738281,0 -0.761719,-0.1171875 -0.761719,-0.46875 V -1.6397188 h 0.996094 V -1.956125 h -0.996094 v -4.5234375 c 0,-0.1992188 0,-0.2578125 -0.152344,-0.2578125 -0.09375,0 -0.117187,0 -0.199218,0.1171875 l -3.058594,4.6640625 v 0.3164062 z m 0.05859,-0.3164062 h -2.425781 l 2.425781,-3.7148438 z m 4.921875,0.3164062 v 0.86718755 c 0,0.3515625 -0.02344,0.46875 -0.761719,0.46875 H 61.491633 V 9.0625e-4 C 61.901789,-0.03425 62.429133,-0.03425 62.839289,-0.03425 c 0.421875,0 0.949219,0 1.359375,0.03515625 v -0.3046875 h -0.210937 c -0.738282,0 -0.761719,-0.1171875 -0.761719,-0.46875 V -1.6397188 h 0.996094 V -1.956125 h -0.996094 v -4.5234375 c 0,-0.1992188 0,-0.2578125 -0.152344,-0.2578125 -0.09375,0 -0.117187,0 -0.199219,0.1171875 l -3.058593,4.6640625 v 0.3164062 z m 0.05859,-0.3164062 h -2.425781 l 2.425781,-3.7148438 z m 4.924804,0.3164062 v 0.86718755 c 0,0.3515625 -0.02344,0.46875 -0.761718,0.46875 H 66.475031 V 9.0625e-4 C 66.885187,-0.03425 67.412531,-0.03425 67.822687,-0.03425 c 0.421875,0 0.949219,0 1.359375,0.03515625 v -0.3046875 h -0.210937 c -0.738281,0 -0.761719,-0.1171875 -0.761719,-0.46875 V -1.6397188 H 69.2055 V -1.956125 h -0.996094 v -4.5234375 c 0,-0.1992188 0,-0.2578125 -0.152344,-0.2578125 -0.09375,0 -0.117187,0 -0.199218,0.1171875 L 64.79925,-1.956125 v 0.3164062 z m 0.05859,-0.3164062 H 65.0805 l 2.425781,-3.7148438 z m 4.875,-0.5390625 c 0,-0.7734375 -0.117187,-1.9804688 -0.65625,-3.1054688 -0.597656,-1.21875 -1.464844,-1.875 -1.558594,-1.875 -0.05859,0 -0.105468,0.046875 -0.105468,0.1054688 0,0.035156 0,0.046875 0.199218,0.234375 0.972657,0.984375 1.535157,2.5664062 1.535157,4.640625 0,1.7109375 -0.363282,3.45703125 -1.59375,4.7226562 -0.140625,0.1171875 -0.140625,0.1289063 -0.140625,0.1640625 0,0.058594 0.04687,0.1054688 0.105468,0.1054688 0.09375,0 0.996094,-0.6796875 1.582032,-1.9453125 0.503906,-1.1015625 0.632812,-2.203125 0.632812,-3.046875 z m 0,0"
         style="fill:#a6a6a6;fill-opacity:1;fill-rule:nonzero;stroke:none" />
    </g>
    <path
       id="path31"
       d="m 4.4074141,-3.6216875 c -0.328125,0.058594 -0.421875,0.3515625 -0.421875,0.4804687 0,0.1757813 0.1171875,0.328125 0.3398437,0.328125 0.2578125,0 0.5039063,-0.2226562 0.5039063,-0.5273437 0,-0.421875 -0.4570313,-0.6210938 -0.8789063,-0.6210938 -0.5390625,0 -0.84375,0.46875 -0.9492187,0.65625 -0.1757813,-0.4335937 -0.5742188,-0.65625 -0.9960938,-0.65625 -0.9609375,0 -1.48828124,1.1484375 -1.48828124,1.3828125 0,0.082031 0.0703125,0.1054688 0.12890625,0.1054688 0.0820313,0 0.10546875,-0.046875 0.12890625,-0.1054688 C 1.0558516,-3.457625 1.6417891,-3.738875 1.9816328,-3.738875 c 0.2578125,0 0.4921875,0.1757812 0.4921875,0.5859375 0,0.328125 -0.3867187,1.7578125 -0.5039062,2.19140625 -0.070312,0.28125 -0.3398438,0.83203125 -0.8320313,0.83203125 -0.17578124,0 -0.36328124,-0.0585938 -0.45703124,-0.1171875 0.24609375,-0.0351563 0.42187504,-0.24609375 0.42187504,-0.48046875 0,-0.22265625 -0.16406254,-0.32812505 -0.33984379,-0.32812505 -0.2578125,0 -0.4921875,0.23437505 -0.4921875,0.53906255 0,0.43359375 0.48046875,0.609375 0.85546879,0.609375 0.5273437,0 0.8320312,-0.421875 0.9609375,-0.66796875 0.2226562,0.59765625 0.7617187,0.66796875 0.9960937,0.66796875 0.9726563,0 1.4765625,-1.16015625 1.4765625,-1.37109375 0,-0.046875 -0.023437,-0.1171875 -0.1171875,-0.1171875 -0.09375,0 -0.1054687,0.035156 -0.1523437,0.1757812 -0.1875,0.6445313 -0.7148438,1.0898438 -1.1835938,1.0898438 -0.2578125,0 -0.4921875,-0.15234375 -0.4921875,-0.5859375 0,-0.19921875 0.1171875,-0.6914063 0.1992188,-1.03125 0.035156,-0.1640625 0.28125,-1.1367188 0.2929687,-1.1953125 0.1171875,-0.3164063 0.3867188,-0.796875 0.84375,-0.796875 0.1523438,0 0.328125,0.023437 0.4570313,0.1171875 z m 0,0"
       style="fill:#a6a6a6;fill-opacity:1;fill-rule:nonzero;stroke:none"
       aria-label="x"
       transform="matrix(1.3333333,0,0,1.3333333,409.82267,238.42267)" />
    <path
       id="path32"
       d="M 241.30699,5.65723 H 286.2671 V 34.217 h -44.96011 z"
       style="fill:#ffffff;fill-opacity:1;fill-rule:nonzero;stroke:#000000;stroke-width:0.3985;stroke-linecap:butt;stroke-linejoin:miter;stroke-miterlimit:10;stroke-dasharray:none;stroke-opacity:1"
       transform="matrix(1.3333333,0,0,-1.3333333,27.654667,243.116)" />
    <path
       id="path33"
       d="m 0,0 c 0,0 6.14426,0 8.50412,0 2.35986,0 8.50414,0 8.50414,0"
       style="fill:none;stroke:#a6a6a6;stroke-width:0.79701;stroke-linecap:butt;stroke-linejoin:miter;stroke-miterlimit:10;stroke-dasharray:none;stroke-opacity:1"
       transform="matrix(1.3333333,0,0,-1.3333333,353.91067,208.34267)" />
    <g
       id="g33"
       aria-label="F&#10;Y&#10;0"
       transform="matrix(1.3333333,0,0,1.3333333,379.776,211.884)">
      <path
         id="path34"
         d="m 3.0244453,-3.2352656 h 0.9609375 c 0.75,0 0.8320313,0.1523437 0.8320313,0.4453125 0,0.070312 0,0.1875 -0.070312,0.4921875 -0.023437,0.046875 -0.035156,0.082031 -0.035156,0.1054687 0,0.082031 0.058594,0.1171875 0.1171875,0.1171875 0.1054688,0 0.1054688,-0.023437 0.1523438,-0.2109375 l 0.5507812,-2.15625 c 0.023437,-0.1054687 0.023437,-0.1289062 0.023437,-0.1640625 0,-0.011719 -0.011719,-0.1054687 -0.1171875,-0.1054687 -0.09375,0 -0.1054687,0.046875 -0.1523437,0.2109375 -0.1992188,0.7734375 -0.4335938,0.9492187 -1.2773438,0.9492187 H 3.0947578 l 0.6445313,-2.53125 c 0.082031,-0.3398437 0.09375,-0.3867187 0.5390625,-0.3867187 h 1.3125 c 1.21875,0 1.453125,0.328125 1.453125,1.1015625 0,0.2226562 0,0.2695312 -0.035156,0.5390625 -0.011719,0.1289062 -0.011719,0.140625 -0.011719,0.1757812 0,0.046875 0.023437,0.1171875 0.1171875,0.1171875 0.1054687,0 0.1171875,-0.058594 0.140625,-0.2460937 L 7.4541328,-6.5047969 C 7.4775703,-6.7743281 7.4306953,-6.7743281 7.1846016,-6.7743281 H 2.2978828 c -0.1992187,0 -0.2929687,0 -0.2929687,0.1992187 0,0.1054688 0.09375,0.1054688 0.28125,0.1054688 0.3632812,0 0.6445312,0 0.6445312,0.1875 0,0.035156 0,0.058594 -0.046875,0.234375 l -1.3242187,5.27343747 c -0.09375,0.38671875 -0.1171875,0.46875 -0.90234379,0.46875 -0.1640625,0 -0.28125,0 -0.28125,0.1875 0,0.117187505 0.12890625,0.117187505 0.15234375,0.117187505 0.29296875,0 1.03125004,-0.035156255 1.31250004,-0.035156255 0.328125,0 1.1601562,0.035156255 1.4882812,0.035156255 0.09375,0 0.2109375,0 0.2109375,-0.187500005 0,-0.0820313 -0.058594,-0.10546875 -0.058594,-0.1171875 -0.035156,0 -0.058594,0 -0.28125,0 -0.2226563,0 -0.2695313,0 -0.515625,-0.0234375 -0.2929688,-0.0351563 -0.328125,-0.0703125 -0.328125,-0.19921875 0,-0.0234375 0,-0.0820313 0.046875,-0.234375 z m 0,0"
         style="fill:#a6a6a6;fill-opacity:1;fill-rule:nonzero;stroke:none" />
      <path
         id="path35"
         d="m 11.127961,-2.1542109 c 0.140625,-0.140625 0.28125,-0.2695313 0.433594,-0.375 0.28125,-0.1875 0.539062,-0.1992188 0.632812,-0.2109375 0.07031,-0.011719 0.164063,-0.011719 0.164063,-0.1523438 0,-0.046875 -0.04687,-0.09375 -0.105469,-0.09375 -0.175781,0 -0.386719,0.023437 -0.5625,0.023437 -0.222656,0 -0.515625,-0.023437 -0.726563,-0.023437 -0.03516,0 -0.140625,0 -0.140625,0.1523438 0,0.082031 0.09375,0.09375 0.128907,0.09375 0.199218,0.011719 0.199218,0.09375 0.199218,0.1289062 0,0.070312 -0.03516,0.1171875 -0.09375,0.1875 -0.03516,0.058594 -0.07031,0.1054688 -0.117187,0.1523438 L 9.2060859,-0.45499219 8.2803047,-2.4940547 c -0.046875,-0.09375 -0.046875,-0.1171875 -0.046875,-0.1171875 0,-0.1289062 0.328125,-0.1289062 0.375,-0.1289062 0.09375,0 0.1757812,0 0.1757812,-0.1523438 0,-0.011719 0,-0.09375 -0.1054687,-0.09375 -0.2109375,0 -0.7265625,0.023437 -0.9375,0.023437 -0.1757813,0 -0.6210938,-0.023437 -0.796875,-0.023437 -0.046875,0 -0.1289063,0.011719 -0.1289063,0.1523438 0,0.09375 0.082031,0.09375 0.1875,0.09375 0.3984375,0 0.421875,0.058594 0.4921875,0.2109375 L 8.5849922,-0.13858594 8.2685859,1.1387578 c -0.09375,0.3515625 -0.09375,0.375 -0.6445312,0.3867188 -0.1171875,0 -0.2109375,0 -0.2109375,0.140625 0,0.070312 0.046875,0.1054687 0.1171875,0.1054687 0.1289062,0 0.2929687,-0.023437 0.4335937,-0.023437 0.1289063,0 0.328125,0 0.4570313,0 0.140625,0 0.3046875,0 0.4453125,0 0.1523437,0 0.3164062,0.023437 0.46875,0.023437 0.035156,0 0.1523437,0 0.1523437,-0.1523437 0,-0.09375 -0.082031,-0.09375 -0.234375,-0.09375 -0.1171875,0 -0.140625,0 -0.2695312,-0.023437 -0.1289063,-0.011719 -0.1523438,-0.023437 -0.1523438,-0.09375 0,-0.046875 0.082031,-0.375 0.1289063,-0.56250004 0.058594,-0.22265625 0.2109375,-0.83203125 0.2226562,-0.85546875 0.023437,-0.10546875 0.023437,-0.1171875 0.09375,-0.1875 z m 0,0"
         style="fill:#a6a6a6;fill-opacity:1;fill-rule:nonzero;stroke:none" />
      <path
         id="path36"
         d="m 15.792023,-1.8143672 c 0,-0.3632812 0,-1.7226562 -1.289062,-1.7226562 -1.300781,0 -1.300781,1.359375 -1.300781,1.7226562 0,0.3632813 0,1.69921876 1.300781,1.69921876 1.289062,0 1.289062,-1.33593746 1.289062,-1.69921876 z m -1.289062,1.53515626 c -0.1875,0 -0.609375,-0.0585938 -0.738281,-0.5625 -0.05859,-0.26953126 -0.07031,-0.62109376 -0.07031,-1.03124996 0,-0.375 0,-0.7148438 0.08203,-0.9960938 0.128907,-0.421875 0.503907,-0.5039062 0.726563,-0.5039062 0.363281,0 0.621094,0.1875 0.726562,0.5390625 0.07031,0.2578125 0.07031,0.6679687 0.07031,0.9609375 0,0.3398437 0,0.7382812 -0.07031,1.04296871 -0.128906,0.48046875 -0.527343,0.55078125 -0.726562,0.55078125 z m 0,0"
         style="fill:#a6a6a6;fill-opacity:1;fill-rule:nonzero;stroke:none" />
    </g>
    <path
       id="path37"
       d="m 0,0 h 8.50412 8.50414"
       style="fill:none;stroke:#a6a6a6;stroke-width:0.79701;stroke-linecap:butt;stroke-linejoin:miter;stroke-miterlimit:10;stroke-dasharray:2.98883, 2.98883;stroke-dashoffset:0;stroke-opacity:1"
       transform="matrix(1.3333333,0,0,-1.3333333,353.91067,224.72533)" />
    <g
       id="g37"
       aria-label="F&#10;Y&#10;1"
       transform="matrix(1.3333333,0,0,1.3333333,379.776,228.268)">
      <path
         id="path38"
         d="m 3.0244453,-3.2332266 h 0.9609375 c 0.75,0 0.8320313,0.1523438 0.8320313,0.4453125 0,0.070312 0,0.1875 -0.070312,0.4921875 -0.023437,0.046875 -0.035156,0.082031 -0.035156,0.1054688 0,0.082031 0.058594,0.1171875 0.1171875,0.1171875 0.1054688,0 0.1054688,-0.023437 0.1523438,-0.2109375 l 0.5507812,-2.15625 c 0.023437,-0.1054688 0.023437,-0.1289063 0.023437,-0.1640625 0,-0.011719 -0.011719,-0.1054688 -0.1171875,-0.1054688 -0.09375,0 -0.1054687,0.046875 -0.1523437,0.2109375 -0.1992188,0.7734375 -0.4335938,0.9492188 -1.2773438,0.9492188 H 3.0947578 l 0.6445313,-2.53125 c 0.082031,-0.3398438 0.09375,-0.3867188 0.5390625,-0.3867188 h 1.3125 c 1.21875,0 1.453125,0.328125 1.453125,1.1015625 0,0.2226563 0,0.2695313 -0.035156,0.5390625 -0.011719,0.1289063 -0.011719,0.140625 -0.011719,0.1757813 0,0.046875 0.023437,0.1171875 0.1171875,0.1171875 0.1054687,0 0.1171875,-0.058594 0.140625,-0.2460938 L 7.4541328,-6.5027578 C 7.4775703,-6.7722891 7.4306953,-6.7722891 7.1846016,-6.7722891 H 2.2978828 c -0.1992187,0 -0.2929687,0 -0.2929687,0.1992188 0,0.1054687 0.09375,0.1054687 0.28125,0.1054687 0.3632812,0 0.6445312,0 0.6445312,0.1875 0,0.035156 0,0.058594 -0.046875,0.234375 l -1.3242187,5.27343754 c -0.09375,0.38671875 -0.1171875,0.46875 -0.90234379,0.46875 -0.1640625,0 -0.28125,0 -0.28125,0.1875 0,0.1171875 0.12890625,0.1171875 0.15234375,0.1171875 0.29296875,0 1.03125004,-0.03515625 1.31250004,-0.03515625 0.328125,0 1.1601562,0.03515625 1.4882812,0.03515625 0.09375,0 0.2109375,0 0.2109375,-0.1875 0,-0.0820313 -0.058594,-0.10546875 -0.058594,-0.1171875 -0.035156,0 -0.058594,0 -0.28125,0 -0.2226563,0 -0.2695313,0 -0.515625,-0.0234375 -0.2929688,-0.0351563 -0.328125,-0.0703125 -0.328125,-0.19921875 0,-0.0234375 0,-0.0820313 0.046875,-0.234375 z m 0,0"
         style="fill:#a6a6a6;fill-opacity:1;fill-rule:nonzero;stroke:none" />
      <path
         id="path39"
         d="m 11.127961,-2.1551016 c 0.140625,-0.140625 0.28125,-0.2695312 0.433594,-0.375 0.28125,-0.1875 0.539062,-0.1992187 0.632812,-0.2109375 0.07031,-0.011719 0.164063,-0.011719 0.164063,-0.1523437 0,-0.046875 -0.04687,-0.09375 -0.105469,-0.09375 -0.175781,0 -0.386719,0.023437 -0.5625,0.023437 -0.222656,0 -0.515625,-0.023437 -0.726563,-0.023437 -0.03516,0 -0.140625,0 -0.140625,0.1523437 0,0.082031 0.09375,0.09375 0.128907,0.09375 0.199218,0.011719 0.199218,0.09375 0.199218,0.1289063 0,0.070312 -0.03516,0.1171875 -0.09375,0.1875 -0.03516,0.058594 -0.07031,0.1054687 -0.117187,0.1523437 L 9.2060859,-0.45588281 8.2803047,-2.4949453 c -0.046875,-0.09375 -0.046875,-0.1171875 -0.046875,-0.1171875 0,-0.1289063 0.328125,-0.1289063 0.375,-0.1289063 0.09375,0 0.1757812,0 0.1757812,-0.1523437 0,-0.011719 0,-0.09375 -0.1054687,-0.09375 -0.2109375,0 -0.7265625,0.023437 -0.9375,0.023437 -0.1757813,0 -0.6210938,-0.023437 -0.796875,-0.023437 -0.046875,0 -0.1289063,0.011719 -0.1289063,0.1523437 0,0.09375 0.082031,0.09375 0.1875,0.09375 0.3984375,0 0.421875,0.058594 0.4921875,0.2109375 L 8.5849922,-0.13947656 8.2685859,1.1378672 c -0.09375,0.3515625 -0.09375,0.375 -0.6445312,0.3867187 -0.1171875,0 -0.2109375,0 -0.2109375,0.140625 0,0.070312 0.046875,0.1054688 0.1171875,0.1054688 0.1289062,0 0.2929687,-0.023437 0.4335937,-0.023437 0.1289063,0 0.328125,0 0.4570313,0 0.140625,0 0.3046875,0 0.4453125,0 0.1523437,0 0.3164062,0.023437 0.46875,0.023437 0.035156,0 0.1523437,0 0.1523437,-0.1523438 0,-0.09375 -0.082031,-0.09375 -0.234375,-0.09375 -0.1171875,0 -0.140625,0 -0.2695312,-0.023437 -0.1289063,-0.011719 -0.1523438,-0.023437 -0.1523438,-0.09375 0,-0.046875 0.082031,-0.375 0.1289063,-0.56249996 0.058594,-0.22265625 0.2109375,-0.83203125 0.2226562,-0.85546875 0.023437,-0.10546875 0.023437,-0.1171875 0.09375,-0.1875 z m 0,0"
         style="fill:#a6a6a6;fill-opacity:1;fill-rule:nonzero;stroke:none" />
      <path
         id="path40"
         d="m 14.784211,-3.3855703 c 0,-0.1523438 -0.01172,-0.1523438 -0.175781,-0.1523438 -0.351563,0.3164063 -0.902344,0.3164063 -1.007813,0.3164063 h -0.08203 v 0.2226562 h 0.08203 c 0.117188,0 0.433594,-0.011719 0.726563,-0.140625 v 2.48437504 c 0,0.1640625 0,0.2109375 -0.527344,0.2109375 h -0.246094 v 0.22265625 c 0.269531,-0.0234375 0.714844,-0.0234375 1.007813,-0.0234375 0.28125,0 0.726562,0 0.996093,0.0234375 v -0.22265625 h -0.246093 c -0.527344,0 -0.527344,-0.046875 -0.527344,-0.2109375 z m 0,0"
         style="fill:#a6a6a6;fill-opacity:1;fill-rule:nonzero;stroke:none" />
    </g>
  </g>
</svg>
