<?xml version="1.0" encoding="UTF-8" standalone="no"?>
<!-- Created with Inkscape (http://www.inkscape.org/) -->

<svg
   version="1.1"
   id="svg1"
   width="195.93333"
   height="34.801334"
   viewBox="0 0 195.93333 34.801334"
   xmlns="http://www.w3.org/2000/svg"
   xmlns:svg="http://www.w3.org/2000/svg">
  <defs
     id="defs1" />
  <g
     id="g1">
    <g
       id="g2"
       aria-label="xF&#10;Y&#10;0&#10;F&#10;Y&#10;1"
       transform="matrix(1.3333333,0,0,1.3333333,0.26533333,23.732)">
      <path
         id="path2"
         d="m 3.3283438,-3.0128672 c 0.058594,-0.2578125 0.2929687,-1.171875 0.9843749,-1.171875 0.046875,0 0.2929688,0 0.5039063,0.1289063 -0.28125,0.046875 -0.4804688,0.3046875 -0.4804688,0.5390625 0,0.1640625 0.1054688,0.3515625 0.375,0.3515625 0.2226563,0 0.5390625,-0.1875 0.5390625,-0.5859375 0,-0.515625 -0.5859375,-0.65625 -0.9257812,-0.65625 -0.5742187,0 -0.9257812,0.5273437 -1.0429687,0.7617187 -0.2578125,-0.65625 -0.7851563,-0.7617187 -1.078125,-0.7617187 -1.0429688,0 -1.6054688,1.2890625 -1.6054688,1.5351562 0,0.1054688 0.10546875,0.1054688 0.1171875,0.1054688 0.0820313,0 0.1171875,-0.023437 0.12890625,-0.1171875 0.33984375,-1.0546875 0.99609375,-1.3007813 1.33593755,-1.3007813 0.1875,0 0.5390625,0.09375 0.5390625,0.6679688 0,0.3046875 -0.1640625,0.9726562 -0.5390625,2.3671875 -0.1523438,0.62109371 -0.5039063,1.04296871 -0.9492188,1.04296871 -0.058594,0 -0.28125,0 -0.4921875,-0.12890625 0.24609375,-0.0585937 0.46875,-0.26953125 0.46875,-0.5390625 0,-0.26953126 -0.22265625,-0.35156246 -0.375,-0.35156246 -0.29296875,0 -0.5390625,0.25781246 -0.5390625,0.57421871 0,0.45703125 0.4921875,0.65625 0.9375,0.65625 0.65625,0 1.0078125,-0.69140625 1.0429688,-0.75 0.1171875,0.36328125 0.4804687,0.75 1.078125,0.75 1.0195312,0 1.5937499,-1.27734371 1.5937499,-1.53515621 0,-0.09375 -0.09375,-0.09375 -0.1289062,-0.09375 -0.082031,0 -0.1054688,0.035156 -0.1289063,0.1054687 -0.328125,1.06640626 -0.9960937,1.31250001 -1.3242187,1.31250001 -0.3867187,0 -0.5390625,-0.328125 -0.5390625,-0.65625 0,-0.22265625 0.058594,-0.44531251 0.1640625,-0.87890621 z m 5.3876953,-0.2226562 h 0.9609375 c 0.7500004,0 0.8320314,0.1523437 0.8320314,0.4453125 0,0.070312 0,0.1875 -0.07031,0.4921875 -0.02344,0.046875 -0.03516,0.082031 -0.03516,0.1054687 0,0.082031 0.05859,0.1171875 0.117188,0.1171875 0.105468,0 0.105468,-0.023437 0.152343,-0.2109375 l 0.550782,-2.15625 c 0.02344,-0.1054687 0.02344,-0.1289062 0.02344,-0.1640625 0,-0.011719 -0.01172,-0.1054687 -0.117187,-0.1054687 -0.09375,0 -0.105469,0.046875 -0.152344,0.2109375 -0.199219,0.7734375 -0.433594,0.9492187 -1.2773439,0.9492187 H 8.7863516 l 0.6445312,-2.53125 c 0.082031,-0.3398437 0.09375,-0.3867187 0.5390625,-0.3867187 h 1.3124997 c 1.21875,0 1.453125,0.328125 1.453125,1.1015625 0,0.2226562 0,0.2695312 -0.03516,0.5390625 -0.01172,0.1289062 -0.01172,0.140625 -0.01172,0.1757812 0,0.046875 0.02344,0.1171875 0.117188,0.1171875 0.105469,0 0.117187,-0.058594 0.140625,-0.2460937 l 0.199219,-1.7226563 c 0.02344,-0.2695312 -0.02344,-0.2695312 -0.269532,-0.2695312 H 7.9894766 c -0.1992188,0 -0.2929688,0 -0.2929688,0.1992187 0,0.1054688 0.09375,0.1054688 0.28125,0.1054688 0.3632813,0 0.6445313,0 0.6445313,0.1875 0,0.035156 0,0.058594 -0.046875,0.234375 l -1.3242188,5.27343746 c -0.09375,0.38671875 -0.1171875,0.46875 -0.9023437,0.46875 -0.1640625,0 -0.28125,0 -0.28125,0.1875 0,0.1171875 0.1289062,0.1171875 0.1523437,0.1171875 0.2929688,0 1.03125,-0.03515625 1.3125,-0.03515625 0.328125,0 1.1601563,0.03515625 1.4882813,0.03515625 0.09375,0 0.2109375,0 0.2109375,-0.1875 0,-0.0820312 -0.058594,-0.10546875 -0.058594,-0.1171875 -0.035156,0 -0.058594,0 -0.28125,0 -0.2226562,0 -0.2695312,0 -0.515625,-0.0234375 -0.2929687,-0.0351563 -0.328125,-0.0703125 -0.328125,-0.19921875 0,-0.0234375 0,-0.0820313 0.046875,-0.234375 z m 0,0"
         style="fill:#000000;fill-opacity:1;fill-rule:nonzero;stroke:none" />
      <path
         id="path3"
         d="m 16.822484,-2.1544687 c 0.140625,-0.140625 0.28125,-0.2695313 0.433594,-0.375 0.28125,-0.1875 0.539063,-0.1992188 0.632813,-0.2109375 0.07031,-0.011719 0.164062,-0.011719 0.164062,-0.1523438 0,-0.046875 -0.04687,-0.09375 -0.105469,-0.09375 -0.175781,0 -0.386718,0.023437 -0.5625,0.023437 -0.222656,0 -0.515625,-0.023437 -0.726562,-0.023437 -0.03516,0 -0.140625,0 -0.140625,0.1523438 0,0.082031 0.09375,0.09375 0.128906,0.09375 0.199219,0.011719 0.199219,0.09375 0.199219,0.1289062 0,0.070312 -0.03516,0.1171875 -0.09375,0.1875 -0.03516,0.058594 -0.07031,0.1054688 -0.117188,0.1523438 L 14.900609,-0.45525 13.974828,-2.4943125 c -0.04687,-0.09375 -0.04687,-0.1171875 -0.04687,-0.1171875 0,-0.1289062 0.328125,-0.1289062 0.375,-0.1289062 0.09375,0 0.175781,0 0.175781,-0.1523438 0,-0.011719 0,-0.09375 -0.105468,-0.09375 -0.210938,0 -0.726563,0.023437 -0.9375,0.023437 -0.175782,0 -0.621094,-0.023437 -0.796875,-0.023437 -0.04687,0 -0.128907,0.011719 -0.128907,0.1523438 0,0.09375 0.08203,0.09375 0.1875,0.09375 0.398438,0 0.421875,0.058594 0.492188,0.2109375 L 14.279516,-0.13884375 13.963109,1.1385 c -0.09375,0.3515625 -0.09375,0.375 -0.644531,0.3867188 -0.117187,0 -0.210937,0 -0.210937,0.140625 0,0.070312 0.04687,0.1054687 0.117187,0.1054687 0.128906,0 0.292969,-0.023437 0.433594,-0.023437 0.128906,0 0.328125,0 0.457031,0 0.140625,0 0.304688,0 0.445313,0 0.152343,0 0.316406,0.023437 0.46875,0.023437 0.03516,0 0.152343,0 0.152343,-0.1523437 0,-0.09375 -0.08203,-0.09375 -0.234375,-0.09375 -0.117187,0 -0.140625,0 -0.269531,-0.023437 -0.128906,-0.011719 -0.152344,-0.023437 -0.152344,-0.09375 0,-0.046875 0.08203,-0.375 0.128907,-0.56250005 C 14.713109,0.622875 14.865453,0.0135 14.877172,-0.0099375 c 0.02344,-0.10546875 0.02344,-0.1171875 0.09375,-0.1875 z m 0,0"
         style="fill:#000000;fill-opacity:1;fill-rule:nonzero;stroke:none" />
      <path
         id="path4"
         d="m 21.489477,-1.814625 c 0,-0.3632812 0,-1.7226562 -1.289063,-1.7226562 -1.300781,0 -1.300781,1.359375 -1.300781,1.7226562 0,0.3632813 0,1.69921875 1.300781,1.69921875 1.289063,0 1.289063,-1.33593745 1.289063,-1.69921875 z m -1.289063,1.53515625 c -0.1875,0 -0.609375,-0.0585938 -0.738281,-0.5625 C 19.403539,-1.1115 19.39182,-1.4630625 19.39182,-1.8732187 c 0,-0.375 0,-0.7148438 0.08203,-0.9960938 0.128906,-0.421875 0.503906,-0.5039062 0.726562,-0.5039062 0.363281,0 0.621094,0.1875 0.726563,0.5390625 0.07031,0.2578125 0.07031,0.6679687 0.07031,0.9609375 0,0.3398437 0,0.7382812 -0.07031,1.0429687 -0.128907,0.48046875 -0.527344,0.55078125 -0.726563,0.55078125 z m 0,0"
         style="fill:#000000;fill-opacity:1;fill-rule:nonzero;stroke:none" />
      <path
         id="path5"
         d="m 25.910375,-3.2355234 h 0.960937 c 0.75,0 0.832032,0.1523437 0.832032,0.4453125 0,0.070312 0,0.1875 -0.07031,0.4921875 -0.02344,0.046875 -0.03516,0.082031 -0.03516,0.1054687 0,0.082031 0.05859,0.1171875 0.117187,0.1171875 0.105469,0 0.105469,-0.023437 0.152344,-0.2109375 l 0.550781,-2.15625 c 0.02344,-0.1054687 0.02344,-0.1289062 0.02344,-0.1640625 0,-0.011719 -0.01172,-0.1054687 -0.117188,-0.1054687 -0.09375,0 -0.105468,0.046875 -0.152343,0.2109375 -0.199219,0.7734375 -0.433594,0.9492187 -1.277344,0.9492187 h -0.914063 l 0.644532,-2.53125 c 0.08203,-0.3398437 0.09375,-0.3867187 0.539062,-0.3867187 h 1.3125 c 1.21875,0 1.453125,0.328125 1.453125,1.1015625 0,0.2226562 0,0.2695312 -0.03516,0.5390625 -0.01172,0.1289062 -0.01172,0.140625 -0.01172,0.1757812 0,0.046875 0.02344,0.1171875 0.117188,0.1171875 0.105468,0 0.117187,-0.058594 0.140625,-0.2460937 l 0.199218,-1.7226563 c 0.02344,-0.2695312 -0.02344,-0.2695312 -0.269531,-0.2695312 h -4.886719 c -0.199218,0 -0.292968,0 -0.292968,0.1992187 0,0.1054688 0.09375,0.1054688 0.28125,0.1054688 0.363281,0 0.644531,0 0.644531,0.1875 0,0.035156 0,0.058594 -0.04687,0.234375 l -1.324219,5.27343746 c -0.09375,0.38671875 -0.117187,0.46875 -0.902344,0.46875 -0.164062,0 -0.28125,0 -0.28125,0.1875 0,0.1171875 0.128907,0.1171875 0.152344,0.1171875 0.292969,0 1.03125,-0.03515625 1.3125,-0.03515625 0.328125,0 1.160156,0.03515625 1.488281,0.03515625 0.09375,0 0.210938,0 0.210938,-0.1875 0,-0.0820312 -0.05859,-0.10546875 -0.05859,-0.1171875 -0.03516,0 -0.05859,0 -0.28125,0 -0.222656,0 -0.269531,0 -0.515625,-0.0234375 -0.292969,-0.0351563 -0.328125,-0.0703125 -0.328125,-0.19921875 0,-0.0234375 0,-0.0820313 0.04687,-0.234375 z m 0,0"
         style="fill:#000000;fill-opacity:1;fill-rule:nonzero;stroke:none" />
      <path
         id="path6"
         d="m 34.01682,-2.1544687 c 0.140625,-0.140625 0.28125,-0.2695313 0.433594,-0.375 0.28125,-0.1875 0.539063,-0.1992188 0.632813,-0.2109375 0.07031,-0.011719 0.164062,-0.011719 0.164062,-0.1523438 0,-0.046875 -0.04687,-0.09375 -0.105469,-0.09375 -0.175781,0 -0.386718,0.023437 -0.5625,0.023437 -0.222656,0 -0.515625,-0.023437 -0.726562,-0.023437 -0.03516,0 -0.140625,0 -0.140625,0.1523438 0,0.082031 0.09375,0.09375 0.128906,0.09375 0.199219,0.011719 0.199219,0.09375 0.199219,0.1289062 0,0.070312 -0.03516,0.1171875 -0.09375,0.1875 -0.03516,0.058594 -0.07031,0.1054688 -0.117188,0.1523438 L 32.094945,-0.45525 31.169164,-2.4943125 c -0.04687,-0.09375 -0.04687,-0.1171875 -0.04687,-0.1171875 0,-0.1289062 0.328125,-0.1289062 0.375,-0.1289062 0.09375,0 0.175781,0 0.175781,-0.1523438 0,-0.011719 0,-0.09375 -0.105468,-0.09375 -0.210938,0 -0.726563,0.023437 -0.9375,0.023437 -0.175782,0 -0.621094,-0.023437 -0.796875,-0.023437 -0.04687,0 -0.128907,0.011719 -0.128907,0.1523438 0,0.09375 0.08203,0.09375 0.1875,0.09375 0.398438,0 0.421875,0.058594 0.492188,0.2109375 L 31.473852,-0.13884375 31.157445,1.1385 c -0.09375,0.3515625 -0.09375,0.375 -0.644531,0.3867188 -0.117187,0 -0.210937,0 -0.210937,0.140625 0,0.070312 0.04687,0.1054687 0.117187,0.1054687 0.128906,0 0.292969,-0.023437 0.433594,-0.023437 0.128906,0 0.328125,0 0.457031,0 0.140625,0 0.304688,0 0.445313,0 0.152343,0 0.316406,0.023437 0.46875,0.023437 0.03516,0 0.152343,0 0.152343,-0.1523437 0,-0.09375 -0.08203,-0.09375 -0.234375,-0.09375 -0.117187,0 -0.140625,0 -0.269531,-0.023437 -0.128906,-0.011719 -0.152344,-0.023437 -0.152344,-0.09375 0,-0.046875 0.08203,-0.375 0.128907,-0.56250005 C 31.907445,0.622875 32.059789,0.0135 32.071508,-0.0099375 c 0.02344,-0.10546875 0.02344,-0.1171875 0.09375,-0.1875 z m 0,0"
         style="fill:#000000;fill-opacity:1;fill-rule:nonzero;stroke:none" />
      <path
         id="path7"
         d="m 37.67307,-3.3849375 c 0,-0.1523437 -0.01172,-0.1523437 -0.175781,-0.1523437 -0.351562,0.3164062 -0.902344,0.3164062 -1.007812,0.3164062 h -0.08203 v 0.2226563 h 0.08203 c 0.117187,0 0.433593,-0.011719 0.726562,-0.140625 v 2.48437495 c 0,0.1640625 0,0.2109375 -0.527344,0.2109375 H 36.442602 V -0.220875 c 0.269531,-0.0234375 0.714843,-0.0234375 1.007812,-0.0234375 0.28125,0 0.726563,0 0.996094,0.0234375 v -0.22265625 h -0.246094 c -0.527344,0 -0.527344,-0.046875 -0.527344,-0.2109375 z m 0,0"
         style="fill:#000000;fill-opacity:1;fill-rule:nonzero;stroke:none" />
    </g>
    <path
       id="path8"
       d="M 0,0 V 0 0 0"
       style="fill:none;stroke:#a6a6a6;stroke-width:0.3985;stroke-linecap:butt;stroke-linejoin:miter;stroke-miterlimit:10;stroke-dasharray:2.98883, 2.98883;stroke-dashoffset:0;stroke-opacity:1"
       transform="matrix(1.3333333,0,0,-1.3333333,53.702667,23.732)" />
    <path
       id="path9"
       d="M 0,0 V 0"
       style="fill:none;stroke:#a6a6a6;stroke-width:0.3985;stroke-linecap:butt;stroke-linejoin:miter;stroke-miterlimit:10;stroke-dasharray:2.98883, 2.98883;stroke-dashoffset:0;stroke-opacity:1"
       transform="matrix(1.3333333,0,0,-1.3333333,53.702667,23.732)" />
    <g
       id="g9"
       aria-label="DTE(3)"
       transform="matrix(1.3333333,0,0,1.3333333,59.724,27.053333)">
      <path
         id="path10"
         d="m 1.5810234,-0.77242187 c -0.09375,0.38671875 -0.1171875,0.46875 -0.90234371,0.46875 -0.17578125,0 -0.28125,0 -0.28125,0.1875 0,0.1171875 0.09375,0.1171875 0.28125,0.1171875 H 3.9716484 c 2.0742188,0 4.03125,-2.09765623 4.03125,-4.28906253 0,-1.3945312 -0.84375,-2.5195312 -2.3320312,-2.5195312 H 2.3193047 c -0.1875,0 -0.2929688,0 -0.2929688,0.1992187 0,0.1171875 0.082031,0.1171875 0.28125,0.1171875 0.1289063,0 0.3164063,0.011719 0.4335938,0.011719 0.1523437,0.023437 0.2109375,0.058594 0.2109375,0.1640625 0,0.035156 0,0.070312 -0.035156,0.1875 z m 2.15625,-5.34375003 c 0.082031,-0.3515625 0.1054688,-0.375 0.5390625,-0.375 h 1.0664063 c 0.9726562,0 1.7929687,0.5273438 1.7929687,1.8398438 0,0.4921875 -0.1992187,2.1210937 -1.0429687,3.2226562 -0.28125,0.3632813 -1.078125,1.12500003 -2.296875,1.12500003 h -1.125 c -0.140625,0 -0.1640625,0 -0.2226563,-0.0117188 -0.09375,-0.0117188 -0.1289062,-0.0234375 -0.1289062,-0.10546875 0,-0.0234375 0,-0.046875 0.046875,-0.22265625 z m 9.0439456,0.070312 c 0.07031,-0.28125 0.105469,-0.3398437 0.234375,-0.3632812 0.08203,-0.023437 0.410156,-0.023437 0.621094,-0.023437 1.007812,0 1.453125,0.035156 1.453125,0.8203125 0,0.140625 -0.03516,0.5273437 -0.08203,0.796875 0,0.035156 -0.02344,0.1523437 -0.02344,0.1875 0,0.058594 0.02344,0.1289062 0.117187,0.1289062 0.105469,0 0.128907,-0.082031 0.152344,-0.234375 l 0.269531,-1.734375 c 0.01172,-0.035156 0.01172,-0.140625 0.01172,-0.1640625 0,-0.1054687 -0.09375,-0.1054687 -0.269531,-0.1054687 H 9.7460625 c -0.2460937,0 -0.2578125,0 -0.3164062,0.1992187 L 8.832,-4.7919531 c -0.011719,0.023437 -0.070312,0.1640625 -0.070312,0.1757812 0,0.070312 0.058594,0.1171875 0.1289063,0.1171875 0.09375,0 0.1054687,-0.046875 0.1640625,-0.2109375 0.5390625,-1.546875 0.796875,-1.7226562 2.2734382,-1.7226562 h 0.386719 c 0.28125,0 0.28125,0.035156 0.28125,0.1171875 0,0.058594 -0.03516,0.1757812 -0.04687,0.2109375 l -1.324219,5.32031248 c -0.09375,0.36328125 -0.128906,0.48046875 -1.1953132,0.48046875 -0.3515625,0 -0.4101563,0 -0.4101563,0.1875 0,0.1171875 0.1054688,0.1171875 0.1640625,0.1171875 0.2695313,0 0.5507813,-0.0234375 0.820313,-0.0234375 0.28125,0 0.5625,-0.01171875 0.84375,-0.01171875 0.28125,0 0.5625,0.01171875 0.832031,0.01171875 0.28125,0 0.585938,0.0234375 0.867188,0.0234375 0.09375,0 0.210937,0 0.210937,-0.19921875 0,-0.10546875 -0.08203,-0.10546875 -0.339843,-0.10546875 -0.246094,0 -0.375,0 -0.632813,-0.0234375 -0.292969,-0.0351563 -0.363281,-0.0585938 -0.363281,-0.22265625 0,-0.0117188 0,-0.0585938 0.03516,-0.2109375 z m 10.007812,3.7265625 c 0.02344,-0.046875 0.04687,-0.1171875 0.04687,-0.140625 0,-0.011719 0,-0.1054687 -0.117187,-0.1054687 -0.09375,0 -0.105469,0.058594 -0.128907,0.1171875 -0.644531,1.47656248 -1.019531,2.14453123 -2.71875,2.14453123 h -1.453125 c -0.140625,0 -0.164062,0 -0.222656,-0.0117188 -0.105469,-0.0117188 -0.128906,-0.0234375 -0.128906,-0.10546875 0,-0.0234375 0,-0.046875 0.04687,-0.22265625 l 0.679687,-2.71874993 h 0.984375 c 0.84375,0 0.84375,0.2109375 0.84375,0.4570312 0,0.070312 0,0.1875 -0.07031,0.4804688 -0.01172,0.058594 -0.02344,0.082031 -0.02344,0.1171875 0,0.046875 0.03516,0.1054687 0.128907,0.1054687 0.08203,0 0.105468,-0.046875 0.152343,-0.1992187 l 0.5625,-2.3320313 c 0,-0.058594 -0.04687,-0.1054687 -0.117187,-0.1054687 -0.09375,0 -0.105469,0.058594 -0.140625,0.1757812 -0.210938,0.7617188 -0.386719,0.984375 -1.300781,0.984375 h -0.9375 l 0.597656,-2.4023437 c 0.08203,-0.3398438 0.09375,-0.3867188 0.539062,-0.3867188 h 1.40625 c 1.207032,0 1.511719,0.2929688 1.511719,1.1132813 0,0.234375 0,0.2578125 -0.04687,0.5273437 0,0.058594 -0.01172,0.1289063 -0.01172,0.1757813 0,0.046875 0.03516,0.1171875 0.128907,0.1171875 0.105468,0 0.117187,-0.058594 0.140625,-0.2460938 l 0.199218,-1.7226562 c 0.02344,-0.2695313 -0.02344,-0.2695313 -0.269531,-0.2695313 h -5.039062 c -0.199219,0 -0.292969,0 -0.292969,0.1992188 0,0.1054687 0.09375,0.1054687 0.28125,0.1054687 0.363281,0 0.644531,0 0.644531,0.1875 0,0.035156 0,0.058594 -0.04687,0.234375 l -1.324219,5.27343748 c -0.09375,0.38671875 -0.117187,0.46875 -0.902343,0.46875 -0.164063,0 -0.28125,0 -0.28125,0.1875 0,0.1171875 0.09375,0.1171875 0.28125,0.1171875 h 5.167968 c 0.234375,0 0.246094,-0.01171875 0.316407,-0.1640625 z m 0,0"
         style="fill:#a6a6a6;fill-opacity:1;fill-rule:nonzero;stroke:none" />
      <path
         id="path11"
         d="m 26.949187,2.3916406 c 0,-0.035156 0,-0.046875 -0.164062,-0.2226562 -1.242188,-1.25390627 -1.570313,-3.12890627 -1.570313,-4.6640625 0,-1.7226563 0.386719,-3.4570313 1.605469,-4.7109375 0.128906,-0.1171875 0.128906,-0.1289063 0.128906,-0.1640625 0,-0.070312 -0.03516,-0.1054688 -0.09375,-0.1054688 -0.105468,0 -0.996093,0.6796875 -1.582031,1.9453125 -0.515625,1.1015625 -0.632812,2.203125 -0.632812,3.0351563 0,0.7851562 0.117187,1.99218748 0.65625,3.11718748 0.597656,1.21875002 1.453125,1.87500002 1.558593,1.87500002 0.05859,0 0.09375,-0.035156 0.09375,-0.1054688 z m 3.47461,-5.8945312 c 0.808594,-0.2695313 1.394531,-0.9726563 1.394531,-1.7578125 0,-0.8203125 -0.878906,-1.3710938 -1.839844,-1.3710938 -1.007812,0 -1.757812,0.5976563 -1.757812,1.3476563 0,0.3398437 0.210937,0.5273437 0.503906,0.5273437 0.304688,0 0.503906,-0.2226562 0.503906,-0.515625 0,-0.4921875 -0.46875,-0.4921875 -0.609375,-0.4921875 0.304688,-0.4921875 0.960938,-0.6210937 1.324219,-0.6210937 0.410156,0 0.949219,0.2226562 0.949219,1.1132812 0,0.1289063 -0.01172,0.703125 -0.269531,1.1367188 -0.304688,0.4804687 -0.644532,0.515625 -0.890625,0.515625 -0.08203,0.011719 -0.316407,0.035156 -0.386719,0.035156 -0.08203,0.011719 -0.152344,0.023437 -0.152344,0.1171875 0,0.1171875 0.07031,0.1171875 0.234375,0.1171875 h 0.445313 c 0.808593,0 1.183593,0.6679688 1.183593,1.6523438 0,1.34765623 -0.691406,1.64062498 -1.125,1.64062498 -0.433593,0 -1.171875,-0.17578125 -1.523437,-0.76171875 0.351562,0.0585938 0.65625,-0.1640625 0.65625,-0.53906253 0,-0.3632812 -0.269531,-0.5625 -0.5625,-0.5625 -0.234375,0 -0.550781,0.140625 -0.550781,0.5742188 0,0.91406248 0.925781,1.57031248 2.003906,1.57031248 1.21875,0 2.121094,-0.9140625 2.121094,-1.92187498 0,-0.8203125 -0.621094,-1.59375 -1.652344,-1.8046873 z m 4.97168,1.0078125 c 0,-0.7734375 -0.117188,-1.9804688 -0.65625,-3.1054688 -0.597657,-1.21875 -1.464844,-1.875 -1.558594,-1.875 -0.05859,0 -0.105469,0.046875 -0.105469,0.1054688 0,0.035156 0,0.046875 0.199219,0.234375 0.972656,0.984375 1.535156,2.5664062 1.535156,4.640625 0,1.71093748 -0.363281,3.45703123 -1.59375,4.7226562 -0.140625,0.1171875 -0.140625,0.1289063 -0.140625,0.1640625 0,0.058594 0.04687,0.1054688 0.105469,0.1054688 0.09375,0 0.996094,-0.6796875 1.582031,-1.94531252 0.503906,-1.1015625 0.632813,-2.20312498 0.632813,-3.04687498 z m 0,0"
         style="fill:#a6a6a6;fill-opacity:1;fill-rule:nonzero;stroke:none" />
    </g>
    <path
       id="path12"
       d="M 0,0 V 0 0 0"
       style="fill:none;stroke:#a6a6a6;stroke-width:0.3985;stroke-linecap:butt;stroke-linejoin:miter;stroke-miterlimit:10;stroke-dasharray:2.98883, 2.98883;stroke-dashoffset:0;stroke-opacity:1"
       transform="matrix(1.3333333,0,0,-1.3333333,53.702667,23.732)" />
    <path
       id="path13"
       d="M 0,0 V 0"
       style="fill:none;stroke:#a6a6a6;stroke-width:0.3985;stroke-linecap:butt;stroke-linejoin:miter;stroke-miterlimit:10;stroke-dasharray:2.98883, 2.98883;stroke-dashoffset:0;stroke-opacity:1"
       transform="matrix(1.3333333,0,0,-1.3333333,53.702667,23.732)" />
    <path
       id="path14"
       d="m 76.70609,0.99628 c 0.37359,0.7472 1.24534,1.24534 2.49069,1.24534 h 29.94217 c 1.24535,0 2.11711,0.49813 2.49069,1.24535 0.37359,-0.74722 1.24534,-1.24535 2.49069,-1.24535 h 29.94219 c 1.24534,0 2.11709,-0.49814 2.49068,-1.24534"
       style="fill:none;stroke:#a6a6a6;stroke-width:0.3985;stroke-linecap:butt;stroke-linejoin:miter;stroke-miterlimit:10;stroke-dasharray:none;stroke-opacity:1"
       transform="matrix(1.3333333,0,0,-1.3333333,53.702667,23.732)" />
    <g
       id="g14"
       aria-label="QTE(0.5)"
       transform="matrix(1.3333333,0,0,1.3333333,173.548,14.389333)">
      <path
         id="path15"
         d="M 4.3585312,-0.057625 C 5.9054062,-0.6435625 7.37025,-2.4248125 7.37025,-4.3466875 c 0,-1.59375 -1.0546875,-2.671875 -2.5429688,-2.671875 -2.1445312,0 -4.33593745,2.2617188 -4.33593745,4.5820313 0,1.6523437 1.11328125,2.6601562 2.54296875,2.6601562 0.2578125,0 0.5859375,-0.046875 0.984375,-0.15234375 C 3.9718125,0.692375 3.9718125,0.70409375 3.9718125,0.833 c 0,0.328125 0,1.1015625 0.8320312,1.1015625 1.1835938,0 1.6640625,-1.828125 1.6640625,-1.93359375 0,-0.0703125 -0.070312,-0.10546875 -0.1171875,-0.10546875 -0.070312,0 -0.09375,0.05859375 -0.1171875,0.1171875 -0.234375,0.703125 -0.8203125,0.94921875 -1.1601562,0.94921875 -0.4570313,0 -0.609375,-0.2578125 -0.7148438,-1.01953125 z m -1.875,-0.08203125 c -0.7851562,-0.3046875 -1.125,-1.08984375 -1.125,-1.98046875 0,-0.6914063 0.2695313,-2.0976562 1.0195313,-3.1757812 0.7265625,-1.0195313 1.6640625,-1.4765625 2.390625,-1.4765625 0.9960937,0 1.7226562,0.7734375 1.7226562,2.109375 0,0.9960937 -0.5039062,3.328125 -2.1796875,4.26562495 C 4.2647812,-0.74903125 4.1593125,-1.4755937 3.43275,-1.4755937 c -0.5273438,0 -1.0078125,0.5039062 -1.0078125,1.0195312 0,0.19921875 0.058594,0.3046875 0.058594,0.31640625 z m 0.609375,0.10546875 c -0.140625,0 -0.4570312,0 -0.4570312,-0.421875 0,-0.3984375 0.3867187,-0.796875 0.796875,-0.796875 0.421875,0 0.609375,0.234375 0.609375,0.84375 0,0.15234375 -0.011719,0.1640625 -0.1054688,0.19921875 -0.2578125,0.10546875 -0.5625,0.17578125 -0.84375,0.17578125 z m 9.0380858,-6.0117187 c 0.07031,-0.28125 0.105469,-0.3398438 0.234375,-0.3632813 0.08203,-0.023437 0.410156,-0.023437 0.621094,-0.023437 1.007812,0 1.453125,0.035156 1.453125,0.8203125 0,0.140625 -0.03516,0.5273438 -0.08203,0.796875 0,0.035156 -0.02344,0.1523438 -0.02344,0.1875 0,0.058594 0.02344,0.1289063 0.117188,0.1289063 0.105468,0 0.128906,-0.082031 0.152343,-0.234375 l 0.269532,-1.734375 c 0.01172,-0.035156 0.01172,-0.140625 0.01172,-0.1640625 0,-0.1054688 -0.09375,-0.1054688 -0.269531,-0.1054688 H 9.0958359 c -0.2460937,0 -0.2578125,0 -0.3164062,0.1992188 L 8.1817734,-4.792 c -0.011719,0.023437 -0.070312,0.1640625 -0.070312,0.1757813 0,0.070312 0.058594,0.1171875 0.1289063,0.1171875 0.09375,0 0.1054687,-0.046875 0.1640625,-0.2109375 0.5390625,-1.546875 0.796875,-1.7226563 2.2734378,-1.7226563 h 0.386719 c 0.28125,0 0.28125,0.035156 0.28125,0.1171875 0,0.058594 -0.03516,0.1757813 -0.04687,0.2109375 l -1.3242193,5.3203125 c -0.09375,0.36328125 -0.1289063,0.48046875 -1.1953125,0.48046875 -0.3515625,0 -0.4101563,0 -0.4101563,0.1875 0,0.1171875 0.1054688,0.1171875 0.1640625,0.1171875 0.2695313,0 0.5507813,-0.0234375 0.8203125,-0.0234375 0.28125,0 0.5625,-0.01171875 0.8437501,-0.01171875 0.28125,0 0.5625,0.01171875 0.832032,0.01171875 0.28125,0 0.585936,0.0234375 0.867186,0.0234375 0.09375,0 0.210939,0 0.210939,-0.19921875 0,-0.10546875 -0.08203,-0.10546875 -0.339844,-0.10546875 -0.246094,0 -0.375,0 -0.632813,-0.0234375 -0.292968,-0.0351563 -0.363282,-0.0585938 -0.363282,-0.22265625 0,-0.0117188 0,-0.0585938 0.03516,-0.2109375 z m 10.007813,3.7265625 c 0.02344,-0.046875 0.04687,-0.1171875 0.04687,-0.140625 0,-0.011719 0,-0.1054688 -0.117188,-0.1054688 -0.09375,0 -0.105469,0.058594 -0.128906,0.1171875 -0.644531,1.4765625 -1.019531,2.14453125 -2.71875,2.14453125 h -1.453125 c -0.140625,0 -0.164063,0 -0.222656,-0.0117188 -0.105469,-0.0117188 -0.128907,-0.0234375 -0.128907,-0.10546875 0,-0.0234375 0,-0.046875 0.04687,-0.22265625 l 0.679688,-2.71875005 h 0.984375 c 0.84375,0 0.84375,0.2109375 0.84375,0.4570312 0,0.070312 0,0.1875001 -0.07031,0.4804688 -0.01172,0.058594 -0.02344,0.082031 -0.02344,0.1171875 0,0.046875 0.03516,0.1054688 0.128906,0.1054688 0.08203,0 0.105469,-0.046875 0.152344,-0.1992188 l 0.5625,-2.3320311 c 0,-0.058594 -0.04687,-0.1054688 -0.117188,-0.1054688 -0.09375,0 -0.105468,0.058594 -0.140625,0.1757813 -0.210937,0.7617186 -0.386718,0.984375 -1.300781,0.984375 h -0.9375 l 0.597656,-2.4023439 c 0.08203,-0.3398437 0.09375,-0.3867187 0.539063,-0.3867187 h 1.40625 c 1.207031,0 1.511719,0.2929687 1.511719,1.1132812 0,0.234375 0,0.2578125 -0.04687,0.5273438 0,0.058594 -0.01172,0.1289062 -0.01172,0.1757812 0,0.046875 0.03516,0.1171875 0.128906,0.1171875 0.105469,0 0.117188,-0.058594 0.140625,-0.2460937 l 0.199219,-1.7226563 c 0.02344,-0.2695312 -0.02344,-0.2695312 -0.269531,-0.2695312 h -5.039063 c -0.199219,0 -0.292969,0 -0.292969,0.1992187 0,0.1054688 0.09375,0.1054688 0.28125,0.1054688 0.363282,0 0.644532,0 0.644532,0.1875 0,0.035156 0,0.058594 -0.04687,0.234375 l -1.324219,5.2734375 c -0.09375,0.38671875 -0.117188,0.46875 -0.902344,0.46875 -0.164062,0 -0.28125,0 -0.28125,0.1875 0,0.1171875 0.09375,0.1171875 0.28125,0.1171875 h 5.167969 c 0.234375,0 0.246094,-0.01171875 0.316406,-0.1640625 z m 0,0"
         style="fill:#a6a6a6;fill-opacity:1;fill-rule:nonzero;stroke:none" />
      <path
         id="path16"
         d="m 26.298961,2.3915938 c 0,-0.035156 0,-0.046875 -0.164063,-0.2226563 -1.242187,-1.25390625 -1.570312,-3.12890625 -1.570312,-4.6640625 0,-1.7226562 0.386719,-3.4570312 1.605469,-4.7109375 0.128906,-0.1171875 0.128906,-0.1289062 0.128906,-0.1640625 0,-0.070312 -0.03516,-0.1054687 -0.09375,-0.1054687 -0.105469,0 -0.996094,0.6796875 -1.582031,1.9453125 -0.515625,1.1015625 -0.632813,2.203125 -0.632813,3.0351562 0,0.7851563 0.117188,1.9921875 0.65625,3.1171875 0.597656,1.21875 1.453125,1.875 1.558594,1.875 0.05859,0 0.09375,-0.035156 0.09375,-0.1054687 z m 5.162109,-5.578125 c 0,-0.7968751 -0.04687,-1.59375 -0.398437,-2.3320313 -0.457031,-0.9609375 -1.277344,-1.1132812 -1.6875,-1.1132812 -0.597656,0 -1.335938,0.2578125 -1.734375,1.1835937 -0.328125,0.6914063 -0.375,1.4648437 -0.375,2.2617188 0,0.75 0.04687,1.640625 0.445312,2.4023437 0.433594,0.80859375 1.160157,1.0078125 1.652344,1.0078125 0.539063,0 1.289063,-0.2109375 1.734375,-1.16015625 C 31.414195,-1.6279375 31.46107,-2.401375 31.46107,-3.1865312 Z M 29.363414,9.6875e-4 c -0.386719,0 -0.984375,-0.24609375 -1.160156,-1.20703125 -0.105469,-0.5976562 -0.105469,-1.5117187 -0.105469,-2.0976562 0,-0.6445313 0,-1.3007813 0.08203,-1.8398438 0.1875,-1.1835937 0.925782,-1.265625 1.183594,-1.265625 0.328125,0 0.984375,0.1757813 1.171875,1.1601563 0.09375,0.5625 0.09375,1.3124999 0.09375,1.9453125 0,0.75 0,1.4179687 -0.105469,2.0625 -0.152343,0.93749995 -0.714843,1.24218745 -1.160156,1.24218745 z m 0,0"
         style="fill:#a6a6a6;fill-opacity:1;fill-rule:nonzero;stroke:none" />
      <path
         id="path17"
         d="m 33.772594,-0.526375 c 0,-0.29296875 -0.234375,-0.5273437 -0.527344,-0.5273437 -0.28125,0 -0.527344,0.23437495 -0.527344,0.5273437 0,0.29296875 0.246094,0.52734375 0.527344,0.52734375 0.292969,0 0.527344,-0.234375 0.527344,-0.52734375 z m 0,0"
         style="fill:#a6a6a6;fill-opacity:1;fill-rule:nonzero;stroke:none" />
      <path
         id="path18"
         d="m 39.104625,-2.0029375 c 0,-1.1835937 -0.820313,-2.1796875 -1.898438,-2.1796875 -0.480468,0 -0.902343,0.1640625 -1.265625,0.5039063 v -1.9335938 c 0.199219,0.058594 0.527344,0.1289063 0.84375,0.1289063 1.230469,0 1.933594,-0.9140625 1.933594,-1.0429688 0,-0.058594 -0.03516,-0.1054687 -0.105469,-0.1054687 -0.01172,0 -0.03516,0 -0.08203,0.023437 -0.199219,0.09375 -0.679687,0.2929687 -1.347656,0.2929687 -0.398438,0 -0.855469,-0.070312 -1.324219,-0.28125 -0.08203,-0.023437 -0.105469,-0.023437 -0.128906,-0.023437 -0.09375,0 -0.09375,0.082031 -0.09375,0.234375 v 2.953125 c 0,0.1757813 0,0.2578125 0.140625,0.2578125 0.07031,0 0.08203,-0.035156 0.128906,-0.09375 0.105469,-0.1523437 0.480469,-0.6914063 1.277344,-0.6914063 0.527344,0 0.773437,0.4570313 0.855469,0.6328126 0.152343,0.3749999 0.175781,0.7617187 0.175781,1.2539062 0,0.3515625 0,0.9492188 -0.234375,1.37109375 -0.246094,0.38671875 -0.609375,0.64453125 -1.066406,0.64453125 -0.726563,0 -1.300782,-0.52734375 -1.464844,-1.1132812 0.02344,0.011719 0.05859,0.011719 0.164062,0.011719 0.328125,0 0.503907,-0.2460937 0.503907,-0.4804687 0,-0.2460938 -0.175782,-0.4921875 -0.503907,-0.4921875 -0.140625,0 -0.480468,0.070312 -0.480468,0.5273437 0,0.85546875 0.679687,1.828125 1.792968,1.828125 1.160157,0 2.179688,-0.9609375 2.179688,-2.2265625 z m 3.389648,-0.4921875 c 0,-0.7734375 -0.117187,-1.9804687 -0.65625,-3.1054687 -0.597656,-1.21875 -1.464843,-1.875 -1.558593,-1.875 -0.05859,0 -0.105469,0.046875 -0.105469,0.1054687 0,0.035156 0,0.046875 0.199219,0.234375 0.972656,0.984375 1.535156,2.5664063 1.535156,4.640625 0,1.7109375 -0.363281,3.45703125 -1.59375,4.7226563 -0.140625,0.1171875 -0.140625,0.1289062 -0.140625,0.1640625 0,0.058594 0.04687,0.1054687 0.105469,0.1054687 0.09375,0 0.996093,-0.6796875 1.582031,-1.9453125 0.503906,-1.1015625 0.632812,-2.203125 0.632812,-3.046875 z m 0,0"
         style="fill:#a6a6a6;fill-opacity:1;fill-rule:nonzero;stroke:none" />
    </g>
  </g>
</svg>
