<?xml version="1.0" encoding="UTF-8" standalone="no"?>
<!-- Created with Inkscape (http://www.inkscape.org/) -->

<svg
   version="1.1"
   id="svg1"
   width="259.58267"
   height="145.756"
   viewBox="0 0 259.58267 145.756"
   xmlns="http://www.w3.org/2000/svg"
   xmlns:svg="http://www.w3.org/2000/svg">
  <defs
     id="defs1" />
  <g
     id="g1">
    <g
       id="g2"
       aria-label="X&#10;i&#10;|x"
       transform="matrix(1.3333333,0,0,1.3333333,33.570667,138.008)">
      <path
         id="path2"
         d="M 4.8278594,-4.0899844 3.9958281,-6.0821719 c -0.035156,-0.070312 -0.046875,-0.1171875 -0.046875,-0.1289062 0,-0.058594 0.1640625,-0.2460938 0.5859375,-0.28125 0.09375,-0.011719 0.1992188,-0.023437 0.1992188,-0.1875 0,-0.1289063 -0.1171875,-0.1289063 -0.1523438,-0.1289063 -0.4101562,0 -0.8320312,0.035156 -1.2539062,0.035156 -0.2460938,0 -0.8671875,-0.035156 -1.1132813,-0.035156 -0.058594,0 -0.1875,0 -0.1875,0.1992188 0,0.1171875 0.1054688,0.1171875 0.234375,0.1171875 0.5976563,0 0.65625,0.09375 0.75,0.3164062 l 1.171875,2.7773438 -2.0976562,2.2617187 -0.1289063,0.1054688 c -0.4921875,0.52734373 -0.96093747,0.69140623 -1.46484372,0.72656248 -0.12890625,0 -0.22265625,0 -0.22265625,0.19921875 0,0 0,0.105468745 0.12890625,0.105468745 0.3046875,0 0.63281252,-0.035156245 0.93750002,-0.035156245 0.3632812,0 0.7617187,0.035156245 1.1132812,0.035156245 0.058594,0 0.1757813,0 0.1757813,-0.199218745 0,-0.10546875 -0.09375,-0.10546875 -0.1171875,-0.10546875 -0.082031,-0.0117188 -0.3984375,-0.0351563 -0.3984375,-0.31640625 0,-0.15234375 0.1523437,-0.31640625 0.2695312,-0.44531253 l 1.0195313,-1.078125 0.890625,-0.9726562 1.0078125,2.37890623 c 0.046875,0.10546875 0.046875,0.1171875 0.046875,0.140625 0,0.0820313 -0.1875,0.24609375 -0.5742188,0.29296875 -0.1054687,0 -0.1992187,0.0117188 -0.1992187,0.1875 0,0.117187495 0.1171875,0.117187495 0.1523437,0.117187495 0.28125,0 0.9726563,-0.035156245 1.2539063,-0.035156245 0.2460937,0 0.8554687,0.035156245 1.1015625,0.035156245 0.070312,0 0.1992187,0 0.1992187,-0.187499995 0,-0.1171875 -0.1054687,-0.1171875 -0.1875,-0.1171875 -0.6679687,-0.0117188 -0.6796875,-0.046875 -0.8554687,-0.4453125 C 5.8473906,-1.6759219 5.1794219,-3.2227969 4.9450469,-3.8204531 c 0.6796875,-0.703125 1.734375,-1.8867188 2.0507812,-2.1679688 0.28125,-0.234375 0.6679688,-0.4804687 1.265625,-0.5039062 0.1289063,-0.011719 0.2109375,-0.011719 0.2109375,-0.1992188 0,-0.011719 0,-0.1171875 -0.1289062,-0.1171875 -0.2929688,0 -0.6210938,0.035156 -0.9375,0.035156 -0.3632813,0 -0.7382813,-0.035156 -1.1015625,-0.035156 -0.058594,0 -0.1875,0 -0.1875,0.1992188 0,0.070312 0.046875,0.1054687 0.1171875,0.1171875 0.09375,0.011719 0.3984375,0.023437 0.3984375,0.3046875 0,0.140625 -0.1054688,0.2695312 -0.1875,0.3632812 z m 0,0"
         style="fill:#a6a6a6;fill-opacity:1;fill-rule:nonzero;stroke:none" />
      <path
         id="path3"
         d="m 10.514383,-2.865375 c 0,-0.1054687 -0.08203,-0.2578125 -0.28125,-0.2578125 -0.1875,0 -0.3867189,0.1757813 -0.3867189,0.375 0,0.1171875 0.082031,0.2695313 0.2695309,0.2695313 0.210938,0 0.398438,-0.1992188 0.398438,-0.3867188 z M 9.0846953,0.6736875 c -0.023437,0.09375 -0.058594,0.17578125 -0.058594,0.29296875 0,0.32812505 0.28125,0.59765625 0.6679687,0.59765625 0.691407,0 0.996094,-0.9609375 0.996094,-1.06640625 0,-0.09375 -0.08203,-0.09375 -0.105469,-0.09375 -0.105468,0 -0.105468,0.046875 -0.140625,0.1171875 C 10.291727,1.0838438 9.9870391,1.3650938 9.7057891,1.3650938 c -0.140625,0 -0.1757813,-0.082031 -0.1757813,-0.2460938 0,-0.15234375 0.058594,-0.29296875 0.1171875,-0.4453125 0.070312,-0.1875 0.140625,-0.375 0.2226563,-0.55078125 0.058594,-0.1640625 0.3164064,-0.80859375 0.3398434,-0.890625 0.02344,-0.0703125 0.04687,-0.15234375 0.04687,-0.22265625 0,-0.328125 -0.2812497,-0.5859375 -0.6679684,-0.5859375 -0.6914063,0 -1.0078125,0.94921875 -1.0078125,1.06640625 0,0.0820313 0.09375,0.0820313 0.1171875,0.0820313 0.09375,0 0.1054687,-0.0351563 0.1289062,-0.10546875 0.1757863,-0.5976563 0.4804738,-0.8554688 0.7382863,-0.8554688 0.1171875,0 0.1757812,0.058594 0.1757812,0.2460938 0,0.16406245 -0.035156,0.2695312 -0.2109375,0.70312495 z m 0,0"
         style="fill:#a6a6a6;fill-opacity:1;fill-rule:nonzero;stroke:none" />
      <path
         id="path4"
         d="m 13.154031,-7.1134219 c 0,-0.1757812 0,-0.3632812 -0.199218,-0.3632812 -0.199219,0 -0.199219,0.1875 -0.199219,0.3632812 v 9.2460938 c 0,0.1757812 0,0.3632812 0.199219,0.3632812 0.199218,0 0.199218,-0.1875 0.199218,-0.3632812 z m 0,0"
         style="fill:#a6a6a6;fill-opacity:1;fill-rule:nonzero;stroke:none" />
      <path
         id="path5"
         d="m 17.66575,-3.0118594 c 0.05859,-0.2578125 0.292969,-1.171875 0.984375,-1.171875 0.04687,0 0.292969,0 0.503906,0.1289063 -0.28125,0.046875 -0.480468,0.3046875 -0.480468,0.5390625 0,0.1640625 0.105468,0.3515625 0.375,0.3515625 0.222656,0 0.539062,-0.1875 0.539062,-0.5859375 0,-0.515625 -0.585937,-0.65625 -0.925781,-0.65625 -0.574219,0 -0.925781,0.5273437 -1.042969,0.7617187 -0.257812,-0.65625 -0.785156,-0.7617187 -1.078125,-0.7617187 -1.042969,0 -1.605469,1.2890625 -1.605469,1.5351562 0,0.1054688 0.105469,0.1054688 0.117188,0.1054688 0.08203,0 0.117187,-0.023437 0.128906,-0.1171875 0.339844,-1.0546875 0.996094,-1.3007813 1.335938,-1.3007813 0.1875,0 0.539062,0.09375 0.539062,0.6679688 0,0.3046875 -0.164062,0.9726562 -0.539062,2.3671875 -0.152344,0.62109373 -0.503907,1.04296873 -0.949219,1.04296873 -0.05859,0 -0.28125,0 -0.492188,-0.12890625 0.246094,-0.0585937 0.46875,-0.26953125 0.46875,-0.5390625 0,-0.26953128 -0.222656,-0.35156248 -0.375,-0.35156248 -0.292968,0 -0.539062,0.25781248 -0.539062,0.57421873 0,0.45703125 0.492187,0.65625 0.9375,0.65625 0.65625,0 1.007812,-0.69140625 1.042969,-0.75 0.117187,0.36328125 0.480468,0.75 1.078125,0.75 1.019531,0 1.59375,-1.27734373 1.59375,-1.53515623 0,-0.09375 -0.09375,-0.09375 -0.128907,-0.09375 -0.08203,0 -0.105468,0.035156 -0.128906,0.1054687 -0.328125,1.06640628 -0.996094,1.31250003 -1.324219,1.31250003 -0.386718,0 -0.539062,-0.328125 -0.539062,-0.65625 0,-0.22265625 0.05859,-0.44531253 0.164062,-0.87890623 z m 0,0"
         style="fill:#a6a6a6;fill-opacity:1;fill-rule:nonzero;stroke:none" />
    </g>
    <g
       id="g5"
       aria-label="Y&#10;x&#10;i"
       transform="matrix(1.3333333,0,0,1.3333333,237.80267,137.496)">
      <path
         id="path6"
         d="m 5.9399922,-5.6718047 0.140625,-0.140625 c 0.3046875,-0.2929687 0.6328125,-0.6328125 1.3125,-0.6796875 0.1054687,-0.011719 0.1992187,-0.011719 0.1992187,-0.1875 0,-0.082031 -0.058594,-0.1289062 -0.1289062,-0.1289062 -0.2578125,0 -0.5507813,0.035156 -0.8203125,0.035156 -0.328125,0 -0.6796875,-0.035156 -0.9960938,-0.035156 -0.058594,0 -0.1875,0 -0.1875,0.1992187 0,0.1054688 0.09375,0.1171875 0.1523438,0.1171875 0.070312,0 0.3515625,0.011719 0.3515625,0.2226563 0,0.1757812 -0.2226563,0.4335937 -0.2695313,0.4804687 l -2.3085937,2.6601563 -1.0898438,-2.953125 c -0.070312,-0.140625 -0.070312,-0.1640625 -0.070312,-0.1757813 0,-0.234375 0.4921875,-0.234375 0.5976563,-0.234375 0.1289062,0 0.234375,0 0.234375,-0.1992187 0,-0.1171875 -0.1171875,-0.1171875 -0.1523438,-0.1171875 -0.28125,0 -0.9726562,0.035156 -1.2539062,0.035156 -0.2460938,0 -0.86718751,-0.035156 -1.11328126,-0.035156 -0.0585938,0 -0.1875,0 -0.1875,0.1992187 0,0.1171875 0.09375,0.1171875 0.22265625,0.1171875 0.59765621,0 0.64453121,0.082031 0.72656251,0.3398438 l 1.2304687,3.2695312 c 0.011719,0.035156 0.035156,0.140625 0.035156,0.1757813 0,0.023437 -0.3984375,1.6289062 -0.4453125,1.80468746 -0.1289063,0.55078125 -0.140625,0.5859375 -0.9375,0.59765625 -0.18750001,0 -0.26953126,0 -0.26953126,0.19921875 0,0.1054687525 0.11718746,0.1054687525 0.14062496,0.1054687525 0.28125,0 0.9726563,-0.0351562525 1.2539063,-0.0351562525 0.28125,0 0.9960937,0.0351562525 1.2773437,0.0351562525 0.070312,0 0.1875,0 0.1875,-0.1992187525 0,-0.10546875 -0.082031,-0.10546875 -0.28125,-0.10546875 -0.011719,0 -0.1992187,0 -0.375,-0.0234375 -0.2109375,-0.0234375 -0.2695312,-0.0351563 -0.2695312,-0.1640625 0,-0.0703125 0.09375,-0.41015625 0.140625,-0.62109371 l 0.3515625,-1.40625 c 0.046875,-0.1875 0.058594,-0.2226563 0.140625,-0.3046875 z m 0,0"
         style="fill:#a6a6a6;fill-opacity:1;fill-rule:nonzero;stroke:none" />
      <path
         id="path7"
         d="m 9.7310078,-4.3534453 c -0.070312,0.234375 -0.2929687,0.609375 -0.65625,0.609375 -0.023437,0 -0.2226562,0 -0.375,-0.09375 0.28125,-0.09375 0.3046875,-0.3398438 0.3046875,-0.3867188 0,-0.1523437 -0.1171875,-0.2578125 -0.28125,-0.2578125 -0.1875,0 -0.3867187,0.1640625 -0.3867187,0.4335938 0,0.3398437 0.3867187,0.5039062 0.7265625,0.5039062 0.3164062,0 0.609375,-0.1992187 0.7851562,-0.4921875 0.1640627,0.3632813 0.5507817,0.4921875 0.8203127,0.4921875 0.808594,0 1.230469,-0.8671875 1.230469,-1.0664062 0,-0.09375 -0.09375,-0.09375 -0.105469,-0.09375 -0.105469,0 -0.105469,0.035156 -0.140625,0.1171875 -0.140625,0.4804687 -0.5625,0.84375 -0.949219,0.84375 -0.28125,0 -0.421875,-0.1875 -0.421875,-0.4453125 0,-0.1875 0.164063,-0.8203125 0.363281,-1.59375 0.128907,-0.5390625 0.445313,-0.7148438 0.679688,-0.7148438 0.01172,0 0.222656,0 0.375,0.1054688 -0.222656,0.058594 -0.304688,0.2578125 -0.304688,0.375 0,0.1523437 0.117188,0.2578125 0.28125,0.2578125 0.152344,0 0.386719,-0.1289063 0.386719,-0.421875 0,-0.3867188 -0.445312,-0.5039063 -0.726562,-0.5039063 -0.351563,0 -0.632813,0.2226563 -0.785157,0.4921875 -0.117187,-0.2929687 -0.445312,-0.4921875 -0.8320309,-0.4921875 -0.7851563,0 -1.2304688,0.8554688 -1.2304688,1.0664063 0,0.082031 0.1054688,0.082031 0.1171875,0.082031 0.09375,0 0.1054688,-0.023437 0.140625,-0.1171875 0.1757813,-0.5390625 0.609375,-0.84375 0.9492188,-0.84375 0.234375,0 0.4218754,0.1289063 0.4218754,0.46875 0,0.1289063 -0.08203,0.4804688 -0.1523442,0.7148438 z m -1.6845703,2.5869141 c 0,-0.1054688 -0.082031,-0.2578125 -0.28125,-0.2578125 -0.1875,0 -0.3867187,0.1757812 -0.3867187,0.375 0,0.1171875 0.082031,0.2695312 0.2695312,0.2695312 0.2109375,0 0.3984375,-0.1992187 0.3984375,-0.3867187 z M 6.61675,1.7725313 C 6.593313,1.8662813 6.558156,1.9483125 6.558156,2.0655 c 0,0.328125 0.28125,0.5976563 0.6679687,0.5976563 0.6914063,0 0.9960938,-0.9609375 0.9960938,-1.0664063 0,-0.09375 -0.082031,-0.09375 -0.1054688,-0.09375 -0.1054687,0 -0.1054687,0.046875 -0.140625,0.1171875 -0.1523437,0.5625 -0.4570312,0.84375 -0.7382812,0.84375 -0.140625,0 -0.1757813,-0.082031 -0.1757813,-0.2460937 0,-0.1523438 0.058594,-0.2929688 0.1171875,-0.4453125 0.070312,-0.1875 0.140625,-0.375 0.2226563,-0.5507813 C 7.4605,1.0576875 7.7183125,0.41315625 7.74175,0.331125 7.7651875,0.2608125 7.788625,0.17878125 7.788625,0.10846875 c 0,-0.328125 -0.28125,-0.5859375 -0.6679687,-0.5859375 -0.6914063,0 -1.0078125,0.94921875 -1.0078125,1.06640625 0,0.0820313 0.09375,0.0820313 0.1171875,0.0820313 0.09375,0 0.1054687,-0.0351563 0.1289062,-0.10546875 0.1757813,-0.59765625 0.4804688,-0.85546875 0.7382813,-0.85546875 0.1171875,0 0.1757812,0.0585938 0.1757812,0.24609375 0,0.1640625 -0.035156,0.26953125 -0.2109375,0.703125 z m 0,0"
         style="fill:#a6a6a6;fill-opacity:1;fill-rule:nonzero;stroke:none" />
    </g>
    <g
       id="g7"
       aria-label="W&#10;i"
       transform="matrix(1.3333333,0,0,1.3333333,4.428,13.504)">
      <path
         id="path8"
         d="m 9.1301719,-5.6485078 c 0.2578125,-0.4335938 0.4921875,-0.796875 1.1250001,-0.84375 0.08203,-0.011719 0.1875,-0.011719 0.1875,-0.1992188 0,-0.046875 -0.04687,-0.1171875 -0.117188,-0.1171875 -0.246093,0 -0.5273434,0.035156 -0.7734371,0.035156 -0.3398438,0 -0.703125,-0.035156 -1.03125,-0.035156 -0.058594,0 -0.1875,0 -0.1875,0.1992188 0,0.1054687 0.082031,0.1171875 0.140625,0.1171875 0.2460937,0.011719 0.5976562,0.082031 0.5976562,0.3867187 0,0.1054688 -0.058594,0.1875 -0.140625,0.328125 l -2.6835937,4.6875 -0.3632813,-4.9335937 c -0.011719,-0.1992188 -0.035156,-0.4570313 0.6914063,-0.46875 0.1640625,0 0.2695312,0 0.2695312,-0.1992188 0,-0.1054687 -0.1054687,-0.1171875 -0.1523437,-0.1171875 -0.3984375,0 -0.8085938,0.035156 -1.2070313,0.035156 -0.234375,0 -0.8203125,-0.035156 -1.0546875,-0.035156 -0.058594,0 -0.1875,0 -0.1875,0.1992188 0,0.1171875 0.1054688,0.1171875 0.2460938,0.1171875 0.4335937,0 0.5039062,0.058594 0.5273437,0.2460937 l 0.058594,0.7617188 -2.5195313,4.3945312 -0.3867187,-5.0507812 c 0,-0.1171875 0,-0.3398438 0.7617187,-0.3515625 0.09375,0 0.2109375,0 0.2109375,-0.1992188 0,-0.1171875 -0.1171875,-0.1171875 -0.140625,-0.1171875 -0.3984375,0 -0.8203125,0.035156 -1.2304687,0.035156 -0.3398438,0 -0.703125,-0.035156 -1.04296877,-0.035156 -0.046875,0 -0.17578125,0 -0.17578125,0.1992188 0,0.1171875 0.0820313,0.1171875 0.24609375,0.1171875 0.50390627,0 0.50390627,0.082031 0.52734377,0.3632812 l 0.4453125,6.09375004 c 0.011719,0.17578125 0.023437,0.2578125 0.1640625,0.2578125 0.1171875,0 0.1523437,-0.0585938 0.234375,-0.2109375 l 2.9296875,-5.08593754 0.375,5.03906254 c 0.011719,0.19921875 0.035156,0.2578125 0.1523437,0.2578125 0.1289063,0 0.1875,-0.10546875 0.2460938,-0.1875 z m 0,0"
         style="fill:#a6a6a6;fill-opacity:1;fill-rule:nonzero;stroke:none" />
      <path
         id="path9"
         d="m 11.670211,-2.8653047 c 0,-0.1054687 -0.08203,-0.2578125 -0.28125,-0.2578125 -0.1875,0 -0.386719,0.1757813 -0.386719,0.375 0,0.1171875 0.08203,0.2695313 0.269531,0.2695313 0.210938,0 0.398438,-0.1992188 0.398438,-0.3867188 z m -1.429688,3.53906251 c -0.02344,0.09375 -0.05859,0.17578125 -0.05859,0.29296875 0,0.32812504 0.28125,0.59765624 0.667968,0.59765624 0.691407,0 0.996094,-0.96093749 0.996094,-1.06640624 0,-0.09375 -0.08203,-0.09375 -0.105469,-0.09375 -0.105468,0 -0.105468,0.046875 -0.140625,0.1171875 C 11.447558,1.0839141 11.14287,1.3651641 10.86162,1.3651641 c -0.140625,0 -0.175781,-0.082031 -0.175781,-0.2460938 0,-0.15234374 0.05859,-0.29296874 0.117187,-0.44531249 0.07031,-0.1875 0.140625,-0.375 0.222657,-0.55078125 0.05859,-0.1640625 0.316406,-0.80859375 0.339843,-0.890625 0.02344,-0.0703125 0.04687,-0.15234375 0.04687,-0.22265625 0,-0.32812501 -0.28125,-0.58593751 -0.667968,-0.58593751 -0.691407,0 -1.0078128,0.94921876 -1.0078128,1.06640626 0,0.0820313 0.09375,0.0820313 0.1171875,0.0820313 0.09375,0 0.1054687,-0.0351563 0.1289062,-0.10546875 C 10.15849,-1.1309296 10.463178,-1.3887421 10.72099,-1.3887421 c 0.117188,0 0.175781,0.058594 0.175781,0.2460938 0,0.16406241 -0.03516,0.26953116 -0.210937,0.70312491 z m 0,0"
         style="fill:#a6a6a6;fill-opacity:1;fill-rule:nonzero;stroke:none" />
    </g>
    <path
       id="path10"
       d="m 351.26192,-367.28146 124.87837,-0.003"
       style="fill:none;stroke:#a6a6a6;stroke-width:0.79701;stroke-linecap:butt;stroke-linejoin:miter;stroke-miterlimit:10;stroke-dasharray:none;stroke-opacity:1"
       transform="matrix(1.3333333,0,0,-1.3333333,-403.21867,-355.148)" />
    <path
       id="path11"
       d="M -2.55046,3.11095 C -2.0845,1.24435 -1.04614,0.36295 0,0 -1.04614,-0.36295 -2.0845,-1.24435 -2.55046,-3.11095"
       style="fill:none;stroke:#a6a6a6;stroke-width:0.79701;stroke-linecap:round;stroke-linejoin:round;stroke-miterlimit:10;stroke-dasharray:none;stroke-opacity:1"
       transform="matrix(1.3333067,2.6666667e-5,2.6666667e-5,-1.3333067,232.1664,134.56485)" />
    <path
       id="path12"
       d="m 322.10513,-279.148 154.12915,-82.3145"
       style="fill:none;stroke:#a6a6a6;stroke-width:0.79701;stroke-linecap:butt;stroke-linejoin:miter;stroke-miterlimit:10;stroke-dasharray:none;stroke-opacity:1"
       transform="matrix(1.3333333,0,0,-1.3333333,-403.21867,-355.148)" />
    <path
       id="path13"
       d="M -2.55046,3.11095 C -2.0845,1.24435 -1.04614,0.36295 0,0 -1.04614,-0.36295 -2.0845,-1.24435 -2.55046,-3.11095"
       style="fill:none;stroke:#a6a6a6;stroke-width:0.79701;stroke-linecap:round;stroke-linejoin:round;stroke-miterlimit:10;stroke-dasharray:none;stroke-opacity:1"
       transform="matrix(1.17608,0.62809333,0.62809333,-1.17608,232.22904,127.05227)" />
    <path
       id="path14"
       d="m 314.16469,-281.6367 20.77998,-76.18657"
       style="fill:none;stroke:#a6a6a6;stroke-width:0.79701;stroke-linecap:butt;stroke-linejoin:miter;stroke-miterlimit:10;stroke-dasharray:none;stroke-opacity:1"
       transform="matrix(1.3333333,0,0,-1.3333333,-403.21867,-355.148)" />
    <path
       id="path15"
       d="M -2.55046,3.11095 C -2.0845,1.24435 -1.04614,0.36295 0,0 -1.04614,-0.36295 -2.0845,-1.24435 -2.55046,-3.11095"
       style="fill:none;stroke:#a6a6a6;stroke-width:0.79701;stroke-linecap:round;stroke-linejoin:round;stroke-miterlimit:10;stroke-dasharray:none;stroke-opacity:1"
       transform="matrix(0.35082667,1.2862933,1.2862933,-0.35082667,43.514013,122.46229)" />
  </g>
</svg>
